<?xml version="1.0" encoding="UTF-8"?><svg xmlns="http://www.w3.org/2000/svg" viewBox="0 0 853.21 959.87"><defs><style>.cls-1{fill:#fff;}.cls-2{stroke-dasharray:0 0 3.36 2.52;}.cls-2,.cls-3,.cls-4,.cls-5,.cls-6,.cls-7{fill:none;}.cls-2,.cls-3,.cls-4,.cls-6,.cls-7{stroke:#b0adb0;stroke-miterlimit:10;}.cls-3{stroke-dasharray:0 0 3.76 2.82;}.cls-8{fill:#b0adb0;}.cls-9{fill:#575548;}.cls-4{stroke-dasharray:0 0 4.21 3.16;}.cls-10{fill:#d32027;}.cls-5{stroke:#656569;}.cls-11{fill:#33353b;}.cls-12{fill:#656569;}.cls-13{fill:#79c143;}.cls-7{stroke-dasharray:0 0 4 3;}</style></defs><g id="Body_Merge"><path class="cls-11" d="m791.46,418.8v-14.9l56.95-20.04v-9.57h-.05v-146.48h-117.9l-.08-11.02h4.03v-95.68s-19,5.98-19,5.98h-7s-16.93-2.04-16.93-2.04l-53.12-21.94-9.94-10.99-16.99,5.97h-3.97l-10.09,9.03h-8.97l-11.99-9.03h-37.96v-30.64l14.96-18.34v-7.99h.05V2.81h-129.07v38.31l21,27v27.99h-27.96l-9.03,19.01v14.01l-8.99,8.97-15.99,5.01v2.98l-1.03,1.99-22.96,14.16v22.87h-56.01l-16.97,8.7h-12l-15.03-10.71h-9.03s0-1,0-1h-47.95l-6.03-4.99h-4s-10.01,5.99-10.01,5.99h-5.99l-28.01-39h-1.98l-19.01,10.95v37.79H32.33l-16.89,27.2v74.78h16.99l36.98,30.97v34.31l-37.48,30.7H5.43v136.01h0v78.99h120.03v23.99h49v-16.03h80.01v40.02h59.02v58h51.94v75.99h136.96v-29.05h5.01v41.36h-137.98v34.72h107.01v122.33h101.02v-125.34h51.98v-31.98h-76.96v-38.05h4.96v25.04h267.02v-25.99h1v-1h2v-101.69h-3v-2.29h-.04v-16.06h24.03v-220.96h-56.97Zm-199.05,26.01v194.95h49v11.05h-57.99v-104.6h-93.03v-26.4h-23.98v-82.04h27.03v3.05h90.08v-101.04h74.94v52.03h26.95v53h-92.98Zm-89.02-106.65v-26.43h33v74.06h-33v-47.63Zm196.08-110.34h-106.07v62.34h-8.97v-73.36h114.97l.08,11.02Zm-247.07,31.97v78.37h-30.93v117.91h-5.07v-122.26h27.04v-68.99h-61.13s-4.45,0-4.45,0l-44,21.37h-3.46v-26.39h122.01Zm-164.95,149.03h-50.02v-70.01h-63.04v-5.01h177.03v5.01h-11.98v70.01h-52Zm108,0v-70.01h-27.03v-5.01h9.44s22.52,0,22.52,0v122.26h-4.93v-47.25Zm-80.09-100.05v6.05h-168v23.99h-25.96v-81.04h183.04v51h10.92Zm-175.92,139.96h148.01v26.29h106.99v88.72h32.02v32.02h71.02v76.04h-26.04v5h-76.03v-98.92h-32.97v-51.06h-223v-78.09Zm218.93,242.43v-66.33h-44.9s-11.5,0-11.5,0l-8.51,8.29h-6.02v-24.33h78v68.01h-.02v14.35h-7.04Zm420-35.33h-87.98v-16.06h87.98v16.06Zm-87.98-48h-61.99v-54.06h74.98v54.06h-12.99Z"/></g><g id="Lines_under_map"><rect class="cls-5" x="201.71" y="258.31" width="27.79" height="19.34"/><rect class="cls-5" x="201.71" y="277.64" width="27.79" height="17.73"/><rect class="cls-5" x="201.71" y="295.37" width="27.79" height="18.93"/><path class="cls-5" d="m229.5,258.31l-27.79,19.34"/><path class="cls-5" d="m229.5,277.64l-27.79,17.73"/><path class="cls-5" d="m229.5,295.37l-27.79,18.53"/><path class="cls-5" d="m229.5,277.64l-27.79-19.34"/><path class="cls-5" d="m229.5,295.37l-27.79-17.73"/><path class="cls-5" d="m229.5,313.9l-27.79-18.53"/></g><g id="Bombsite"><polygon class="cls-9" points="91.46 462.76 91.46 325.8 119.44 325.8 119.44 340.56 172.51 340.56 174.51 340.59 208.47 340.59 208.47 447.06 137.52 447.06 137.52 462.76 91.46 462.76"/><path class="cls-9" d="m117.44,327.8v14.76h53.07v.03h35.97v102.46h-70.96v15.71h-42.06v-132.96h23.98m4-4h-31.98v140.96h50.06v-15.71h70.96v-110.46h-35.97v-.03h-53.07v-14.76h0Z"/><rect class="cls-9" x="660.45" y="229.58" width="185.89" height="98.23"/><path class="cls-9" d="m844.34,231.58v94.23h-181.89v-94.23h181.89m4-4h-189.89v102.23h189.89v-102.23h0Z"/><rect class="cls-11" x="180.95" y="378.3" width="7" height="9"/><rect class="cls-11" x="741.96" y="301.32" width="21" height="9.98"/><polyline class="cls-11" points="806.75 270.37 820.93 271.29 820 285.46 805.83 284.54 806.75 270.37"/><rect class="cls-11" x="822.96" y="316.31" width="25.92" height="14"/></g><g id="Hell_lines"><polyline class="cls-7" points="419.93 483.44 397.21 483.44 397.21 474.99"/><line class="cls-6" x1="414.64" y1="456.04" x2="412.64" y2="456.04"/><line class="cls-2" x1="410.12" y1="456.04" x2="405.5" y2="456.04"/><line class="cls-6" x1="404.24" y1="456.04" x2="402.24" y2="456.04"/><line class="cls-6" x1="117.32" y1="407.51" x2="117.32" y2="405.51"/><line class="cls-3" x1="117.32" y1="402.69" x2="117.32" y2="397.52"/><polyline class="cls-6" points="117.32 396.11 117.32 394.11 119.32 394.11"/><line class="cls-4" x1="122.48" y1="394.11" x2="179.87" y2="394.11"/><polyline class="cls-6" points="181.45 394.11 183.45 394.11 183.45 396.11"/><line class="cls-3" x1="183.45" y1="398.93" x2="183.45" y2="404.1"/><line class="cls-6" x1="183.45" y1="405.51" x2="183.45" y2="407.51"/></g><g id="Shapes"><rect class="cls-6" x="644.97" y="444.29" width="13.98" height="19.04" transform="translate(1303.91 907.61) rotate(180)"/><rect class="cls-6" x="615.13" y="460.31" width="5.87" height="6.98" transform="translate(1236.13 927.61) rotate(180)"/><rect class="cls-6" x="606.96" y="460.31" width="8" height="6.98" transform="translate(1221.93 927.61) rotate(180)"/><rect class="cls-6" x="591.91" y="444.27" width="15.05" height="25.05" transform="translate(1198.87 913.58) rotate(180)"/><rect class="cls-6" x="606.96" y="444.27" width="14.04" height="16.04" transform="translate(1227.96 904.58) rotate(180)"/><path class="cls-8" d="m779.45,475.81v23.99h-86v-23.99h86m1-1h-88v25.99h88v-25.99h0Z"/><path class="cls-8" d="m742.45,392.84v50.97h-57.08v-50.97h57.08m1-1h-59.08v52.97h59.08v-52.97h0Z"/><path class="cls-8" d="m731.46,415.81v14.97h-46.09v-14.97h46.09m1-1h-48.09v16.97h48.09v-16.97h0Z"/><path class="cls-8" d="m728.45,406.81v7.99h-43.08v-7.99h43.08m1-1h-45.08v9.99h45.08v-9.99h0Z"/><rect class="cls-6" x="706.96" y="341.29" width="73" height="26.02" transform="translate(1486.91 708.61) rotate(180)"/><rect class="cls-6" x="822.96" y="316.31" width="25.92" height="14" transform="translate(1671.84 646.61) rotate(180)"/><rect class="cls-6" x="741.96" y="301.32" width="21" height="9.98" transform="translate(1504.92 612.61) rotate(180)"/><rect class="cls-6" x="687.96" y="273.31" width="88" height="28.01" transform="translate(1463.91 574.62) rotate(180)"/><polygon class="cls-6" points="658.03 296.3 641.97 296.3 641.97 340.31 657.95 340.31 658.03 296.3"/><rect class="cls-6" x="620.95" y="650.28" width="12.01" height="7.04" transform="translate(1253.91 1307.59) rotate(180)"/><rect class="cls-6" x="575.96" y="633.31" width="8" height="8" transform="translate(1159.92 1274.63) rotate(180)"/><rect class="cls-6" x="569.96" y="619.31" width="14" height="14" transform="translate(1153.92 1252.63) rotate(180)"/><rect class="cls-6" x="561.94" y="619.31" width="8.02" height="6" transform="translate(1131.9 1244.63) rotate(180)"/><rect class="cls-6" x="557.95" y="545.66" width="26.01" height="73.66" transform="translate(1141.91 1164.97) rotate(180)"/><rect class="cls-6" x="415.96" y="676.26" width="8.02" height="6.04" transform="translate(839.93 1358.57) rotate(180)"/><rect class="cls-6" x="312.92" y="654.32" width="14.04" height="12.94" transform="translate(639.88 1321.58) rotate(180)"/><rect class="cls-6" x="288.96" y="526.29" width="74.06" height="51.06" transform="translate(651.98 1103.64) rotate(180)"/><rect class="cls-6" x="191.97" y="577.31" width="13.96" height="14.82" transform="translate(397.89 1169.45) rotate(180)"/><rect class="cls-6" x="205.92" y="577.31" width="6.07" height="7.95" transform="translate(417.91 1162.58) rotate(180)"/><rect class="cls-6" x="4.9" y="585.31" width="8.06" height="9.01" transform="translate(17.85 1179.63) rotate(180)"/><rect class="cls-6" x="4.9" y="594.32" width="16.06" height="12.02" transform="translate(25.85 1200.66) rotate(180)"/><rect class="cls-6" x="79.96" y="490.32" width="15" height="13.98" transform="translate(174.91 994.62) rotate(180)"/><rect class="cls-6" x="50.97" y="490.32" width="28.99" height="73" transform="translate(130.92 1053.64) rotate(180)"/><rect class="cls-6" x="180.95" y="378.3" width="7" height="9" transform="translate(368.9 765.61) rotate(180)"/><polyline class="cls-6" points="174.92 335.83 174.93 378.3 194.92 378.3 194.92 408.31 106.91 408.31 106.91 378.3 154.91 378.3 154.91 340.28 154.91 338.27 147.23 338.27"/><rect class="cls-6" x="372.96" y="328.31" width="8" height="6.04" transform="translate(753.91 662.66) rotate(180)"/><rect class="cls-6" x="273.94" y="434.33" width="13.01" height="14.93" transform="translate(560.9 883.58) rotate(180)"/><rect class="cls-6" x="487.96" y="776.33" width="14.95" height="11.96" transform="translate(990.88 1564.61) rotate(180)"/><rect class="cls-6" x="458.07" y="785.3" width="29.89" height="2.98" transform="translate(946.03 1573.58) rotate(180)"/><rect class="cls-6" x="458.07" y="759.29" width="29.89" height="26.01" transform="translate(946.03 1544.59) rotate(180)"/><rect class="cls-6" x="487.96" y="759.29" width="15.01" height="17.04" transform="translate(990.94 1535.61) rotate(180)"/><rect class="cls-6" x="436.95" y="759.29" width="21.01" height="14.79" transform="translate(894.9 1533.37) rotate(180)"/><rect class="cls-6" x="436.95" y="774.3" width="21.01" height="13.98" transform="translate(894.9 1562.59) rotate(180)"/><rect class="cls-6" x="556.93" y="764.27" width="21.94" height="23.08" transform="translate(1135.79 1551.62) rotate(180)"/><rect class="cls-6" x="595.96" y="770.31" width="25.99" height="17.04" transform="translate(1217.9 1557.66) rotate(180)"/><rect class="cls-6" x="578.87" y="770.31" width="17.09" height="17.04" transform="translate(1174.82 1557.66) rotate(180)"/><rect class="cls-6" x="578.87" y="755.3" width="15.07" height="15" transform="translate(1172.8 1525.61) rotate(180)"/><rect class="cls-6" x="593.93" y="756.3" width="19.01" height="14.01" transform="translate(1206.88 1526.61) rotate(180)"/><rect class="cls-6" x="612.94" y="759.3" width="9" height="11.01" transform="translate(1234.89 1529.61) rotate(180)"/><polyline class="cls-6" points="566.99 763.85 566.99 758.2 561.93 756.18 559.91 750.32 552.97 750.32 552.97 756.66"/><rect class="cls-8" x="552.48" y="690.82" width=".99" height="71.28" transform="translate(1105.94 1452.92) rotate(180)"/><rect class="cls-8" x="506.37" y="691.81" width=".98" height="67.15" transform="translate(1013.73 1450.78) rotate(180)"/><rect class="cls-6" x="251.95" y="314.3" width="6.01" height="6.01" transform="translate(509.91 634.6) rotate(180)"/><polyline class="cls-6" points="330.94 241.73 330.94 253.3 302.95 253.3 302.95 190.31 330.94 190.31 330.94 195.87"/><line class="cls-6" x1="330.94" y1="184.94" x2="330.94" y2="189.87"/><line class="cls-6" x1="330.94" y1="260.12" x2="330.94" y2="253.04"/><rect class="cls-8" x="703" y="606.81" width="97.42" height="1" transform="translate(1503.43 1214.61) rotate(180)"/><rect class="cls-8" x="715.46" y="582.81" width="133.12" height="1" transform="translate(1564.03 1166.62) rotate(180)"/><polygon class="cls-8" points="826.07 444.82 825.46 444.82 792.45 444.82 792.45 418.79 791.46 418.79 791.46 444.82 791.46 445.31 791.46 445.8 825.46 445.8 825.46 530.81 780.45 530.81 780.45 500.33 778.46 500.33 778.46 530.81 776.46 530.81 775.96 530.81 775.46 530.81 775.46 554.84 703.36 554.84 703.36 555.8 776.46 555.8 776.46 555.32 776.46 554.84 776.46 531.81 826.46 531.81 826.46 531.32 826.46 530.82 826.46 444.82 826.07 444.82"/><path class="cls-8" d="m775.45,541.81v12.99h-12.99v-12.99h12.99m1-1h-14.99v14.99h14.99v-14.99h0Z"/><circle class="cls-6" cx="757.96" cy="551.38" r="3.07"/><circle class="cls-6" cx="771.92" cy="537.44" r="3.07"/><circle class="cls-6" cx="821.89" cy="527.24" r="3.07"/><circle class="cls-6" cx="821.89" cy="520.09" r="3.07"/><circle class="cls-6" cx="594.63" cy="471.89" r="1.74"/><circle class="cls-6" cx="599.11" cy="471.89" r="1.74"/><circle class="cls-6" cx="594.63" cy="476.26" r="1.74"/><circle class="cls-6" cx="642.25" cy="446.99" r="1.74"/><circle class="cls-6" cx="623.63" cy="447.11" r="1.74"/><circle class="cls-6" cx="623.63" cy="451.62" r="1.74"/><polyline class="cls-6" points="822.91 330.3 790.92 330.3 790.92 367.31 779.8 367.31 693.98 367.31 693.98 332.93"/><line class="cls-6" x1="643.91" y1="296.3" x2="627.46" y2="296.3"/><rect class="cls-8" x="593.23" y="247.83" width="255.48" height=".99" transform="translate(1441.95 496.65) rotate(180)"/><rect class="cls-6" x="806.28" y="270.81" width="14.2" height="14.2" transform="translate(1606.99 608.08) rotate(-176.28)"/><polyline class="cls-6" points="181.04 182.96 181.04 224.21 243.94 224.21 243.94 182.1"/><line class="cls-6" x1="302.95" y1="257.88" x2="302.95" y2="184.85"/><line class="cls-6" x1="358.92" y1="213.81" x2="358.92" y2="184.89"/><polyline class="cls-6" points="408.09 237.31 358.92 237.31 358.92 234.25"/><polyline class="cls-6" points="443.95 97.13 443.95 111.36 413.98 111.36 413.98 102.17"/><rect class="cls-6" x="426.91" y="95.56" width="17.04" height="15.8" transform="translate(870.86 206.92) rotate(180)"/><rect class="cls-6" x="540.02" y="97.55" width="29.95" height="13.75" transform="translate(1109.98 208.84) rotate(180)"/><rect class="cls-6" x="554.99" y="103.32" width="14.97" height="7.97"/><rect class="cls-6" x="554.99" y="97.55" width="9.01" height="5.78" transform="translate(1118.99 200.87) rotate(180)"/><line class="cls-6" x1="540.02" y1="110.63" x2="540.02" y2="156.79"/><line class="cls-6" x1="443.95" y1="110.53" x2="443.95" y2="156.8"/><line class="cls-6" x1="358.92" y1="232.81" x2="358.92" y2="238.35"/><rect class="cls-6" x="836.95" y="626.31" width="12.02" height="13.96" transform="translate(1685.93 1266.57) rotate(180)"/><rect class="cls-6" x="843.98" y="619.3" width="4.99" height="7.01" transform="translate(1692.96 1245.61) rotate(180)"/><circle class="cls-6" cx="833.18" cy="636.23" r="3.07"/><rect class="cls-6" x="451.86" y="312.3" width="52.06" height="25.29" transform="translate(955.79 649.89) rotate(180)"/><rect class="cls-6" x="480.96" y="295.28" width="32.99" height="16.99" transform="translate(994.91 607.55) rotate(180)"/><rect class="cls-6" x="568.98" y="426.31" width="15.02" height="15.02" transform="translate(1152.97 867.64) rotate(180)"/><rect class="cls-6" x="553.96" y="426.31" width="15.02" height="15.02" transform="translate(1122.94 867.64) rotate(180)"/><polyline class="cls-6" points="395.97 455.53 395.97 541.29 420.93 541.29 420.93 455.53"/><polygon class="cls-8" points="341.32 281.77 344.54 288.03 344.54 288.03 345.03 288.96 378.68 271.83 435.45 271.83 435.45 311.13 427.16 332.91 428.05 333.24 436.4 311.31 436.4 311.31 436.4 270.78 435.93 270.78 435.45 270.78 378.43 270.78 378.43 270.78 378.43 270.78 345.49 287.55 342.26 281.29 341.32 281.77"/><rect class="cls-6" x="730.96" y="167.31" width="3.96" height="6" transform="translate(1465.88 340.62) rotate(180)"/><rect class="cls-6" x="721.95" y="173.31" width="12.97" height="15.99" transform="translate(1456.87 362.62) rotate(180)"/><line class="cls-6" x1="721.85" y1="189.3" x2="614.46" y2="189.3"/><polyline class="cls-6" points="599.43 104.97 602.87 109.79 612.13 106.75 613.01 102.81 607.98 97.61"/><polyline class="cls-6" points="613.01 102.81 614.87 101.39 615.84 97.45 621.03 107.49 625.48 108.64 630.81 107.83 634.92 105.88 636.77 100.79"/><path class="cls-6" d="m654.84,109.29l9.17,9.38h3.24l2.26-2.08c.26-.2.65-.01.64.32l-.97,7.62,3.64,1.82,3.19,1.47,2.02-1.11,1.97-2.58,2.15-3.48"/><polyline class="cls-6" points="695.99 125.16 698.7 130.96 702.79 132.98 708.56 133.79 712.3 132.98 713.87 130.45 713.87 127.09"/><path class="cls-6" d="m711.78,133.09l3.8,2.06,2.07,4.2s2.88,1.26,3.03,1.42,3.54,1.82,3.54,1.82l2.48-.86,4.1-1.87,4.12-2.88"/><polyline class="cls-6" points="126.85 187.61 141.1 154.36 141.1 151.35 138.75 148.48"/><polyline class="cls-6" points="127.42 166.83 132 166.26 134.88 164.53 136.35 161.6 135.44 156.13 132.2 152.3"/><polyline class="cls-6" points="135.66 157.46 138.67 155.02 141.1 151.28"/><polyline class="cls-6" points="152.11 149.25 150 151.69 146.76 153.51 143.63 153.51 141.1 152.3"/><polyline class="cls-6" points="15.08 230.17 19.82 227.93 21.37 224.76 20.97 218.43 20.36 215.93 18.21 214.45"/><line class="cls-6" x1="693.98" y1="329.81" x2="693.98" y2="333.44"/><rect class="cls-8" x="289.29" y="552.81" width="73.51" height="1"/><path class="cls-8" d="m258.45,526.79v13.98h-13.98v-13.98h13.98m1-1h-15.98v15.98h15.98v-15.98h0Z"/><path class="cls-8" d="m213.45,553.81v22.99h-72v-22.99h72m1-1h-74v24.99h74v-24.99h0Z"/><rect class="cls-8" x="330.46" y="207.81" width="1" height="21"/><line class="cls-6" x1="480.96" y1="270.81" x2="480.96" y2="295.28"/><rect class="cls-8" x="359.17" y="211.81" width="12.24" height=".99"/><rect class="cls-8" x="359.2" y="233.81" width="12.21" height=".99"/><polygon class="cls-8" points="374.45 338.21 374.45 352.81 340.45 352.81 340.45 338.81 339.46 338.81 339.46 352.81 339.46 353.09 339.46 353.8 375.45 353.8 375.45 353.31 375.45 352.81 375.45 338.21 374.45 338.21"/><rect class="cls-8" x="351.22" y="336.79" width="17.36" height=".99"/></g><g id="Outlines"><path class="cls-12" d="m553.45,2.81v38.31h-.05v7.99l-14.96,18.34v30.64h37.96l11.99,9.03h8.97l10.09-9.03h3.97l16.99-5.97,9.94,10.99,53.12,21.94,16.93,2.03h7s19-5.97,19-5.97v73.54s0,22.15,0,22.15h-4.03l.08,11.02h117.9v146.48h.05v9.57l-56.95,20.04v14.9h56.97v220.95h-24.03v16.06h.04v2.29h3v101.69h-2v1h-1v25.99h-267.02v-25.04h-4.96v38.05h76.96v31.98h-51.98v125.34h-101.02v-122.33h-107.01v-34.72h137.98v-41.36h-5.01v29.05h-136.96v-75.99h-51.94v-58h-59.02v-40.02h-80.01v16.03h-49v-23.99H5.43v-78.99h0v-136.01h26.49l37.48-30.7v-34.31l-36.98-30.97H15.44v-74.78l16.89-27.2h95.09v-37.79l19.01-10.95h1.98l28.01,39h5.99l10.01-6h4s6.03,5,6.03,5h47.95v1h0s9.03,0,9.03,0l15.03,10.71h12l16.97-8.7h56.01v-22.87l22.96-14.16,1.03-1.99v-2.98l15.99-5.01,8.99-8.97v-14.01l9.03-19.01h27.96v-27.99l-21-27V2.81h129.07m30.97,287.35h8.97v-62.34h106.07l-.08-11.02h-114.97v73.36m-463.02,48.65h25.96v-23.99h168v-6.05h-10.92v-51H121.41v81.04m209-52.63h3.46l44-21.37h4.45s61.13,0,61.13,0v68.99h-27.04v122.26h5.07v-117.91h30.93v-78.37h-122.01v26.39m172.99,99.61h33v-74.06h-33v74.06m-134.97-46.98h27.03v117.26h4.93v-122.26h-22.52s-9.44,0-9.44,0v5.01m-194.02,0h63.04v70.01h102.02v-70.01h11.98v-5.01h-177.03v5.01m319.03,102v-3.05h-27.03v82.04h23.98v26.4h93.03v104.6h57.99v-11.05h-49v-194.95h92.98v-53h-26.95v-52.03h-74.94v101.04h-90.08m-353.98,86h223v51.06h32.97v98.92h76.03v-5h26.04v-76.04h-71.02v-32.02h-32.02v-88.72h-106.99v-26.29h-148.01v78.09m488.96,81h74.98v-54.06h-74.98v54.06m-340.97,25.29h6.02l8.51-8.29h11.5s0,0,0,0h44.9v66.33h7.04v-14.35h.02v-68.01h-78v24.33m402.96,22.71h87.98v-16.06h-87.98v16.06M554.5,1.76h-131.17v39.72l.22.28,20.78,26.72v26.58h-27.57l-.28.6-9.03,19.01-.1.21v13.81l-8.5,8.48-15.75,4.93-.74.23v3.5l-.78,1.5-22.71,14-.5.31v22.41h-55.21l-.23.12-16.75,8.58h-11.41l-14.76-10.51-.27-.19h-8.31v-1h-48.62l-5.74-4.75-.29-.24h-.38s-4,0-4,0h-.29s-.25.15-.25.15l-9.76,5.85h-5.16l-27.69-38.56-.31-.44h-2.8l-.24.14-19.01,10.95-.53.3v37.34H31.74l-.31.5-16.89,27.2-.16.25v76.13h17.66l36.31,30.41v33.32l-36.81,30.14H4.38v216.06s0,1.05,0,1.05h120.03v23.99h51.1v-16.03h77.91v40.02h59.02v58h51.94v75.99h139.06v-29.05h2.91v39.26h-137.98v36.82h107.01v122.33h103.12v-125.34h51.98v-34.08h-76.96v-35.95h2.86v25.04h269.12v-25.99h1v-1h2v-103.79h-3v-2.29h-.04v-13.96h24.03v-223.05h-56.97v-13.11l56.25-19.79.7-.25v-11.33h-.05v-146.52h-117.91l-.07-8.92h4.02v-96.73s0-1.43,0-1.43l-1.37.43-18.85,5.94h-6.77s-16.73-2.02-16.73-2.02l-52.77-21.8-9.78-10.81-.47-.52-.66.23-16.82,5.91h-4.19l-.3.27-9.79,8.76h-8.22l-11.71-8.81-.28-.21h-37.26v-29.22l14.72-18.05.24-.29v-7.31l.05-1.05V1.76h0Zm30.97,216.09h112.88l.07,8.92h-106.07v62.34h-6.87v-71.26h0Zm-463.02,40.97h180.94v51h10.92v3.95h-168v23.99h-23.86v-78.94h0Zm209,2.02h119.91v76.27h-30.93v117.91h-2.97v-120.16h27.04v-71.09h-62.18s-4.45,0-4.45,0h-.24l-.22.11-43.79,21.26h-2.16v-24.29h0Zm172.99,51.94h30.9v71.96h-30.9v-71.96h0Zm-134.97,22.07h8.39s21.47,0,21.47,0v120.16h-2.83v-117.26h-27.03v-2.91h0Zm-194.02,0h174.93v2.91h-11.98v70.01h-99.92v-70.01h-63.04v-2.91h0Zm409.11,5.97h72.84v52.03h26.95v50.9h-92.98v197.05h49v8.95h-55.89v-104.6h-93.03v-26.4h-23.98v-79.94h24.93v3.05h92.18v-101.04h0Zm-444.06,108.94h145.91v26.29h106.99v88.72h32.02v32.02h71.02v73.94h-26.04v5h-73.93v-98.92h-32.97v-51.06h-223v-75.99h0Zm488.96,105.03h72.88v51.96h-72.88v-51.96h0Zm-340.97,55.03h75.9v65.91l-.02,1.05v13.3h-4.94v-66.33h-47s-10.45,0-10.45,0h-.43s-.31.3-.31.3l-8.21,7.99h-4.55v-22.23h0Zm402.96,30.98h85.88v13.96h-85.88v-13.96h0Z"/></g><g id="Callouts_copy"><path class="cls-10" d="m480.62,913.67c0-.16.04-.38.13-.61l2.5-6.81c.27-.74.72-1.08,1.44-1.08s1.19.33,1.47,1.08l2.51,6.82c.09.25.12.42.12.61,0,.53-.4.9-.96.9s-.83-.25-1-.84l-.48-1.45h-3.31l-.48,1.43c-.18.61-.46.86-.97.86-.6,0-.97-.35-.97-.9Zm5.29-2.88l-1.21-3.75h-.04l-1.19,3.75h2.44Z"/><path class="cls-10" d="m489.84,909.04h-.36c-.44,0-.72-.27-.72-.7s.28-.7.72-.7h.36v-.75c0-.6.35-.96.93-.96s.93.37.93.96v.75h.65c.44,0,.71.27.71.7s-.27.7-.71.7h-.65v3.26c0,.48.17.69.56.72h.12c.46.06.71.25.71.69,0,.55-.53.83-1.31.83h-.06c-1.24,0-1.87-.62-1.87-1.82v-3.67Z"/><path class="cls-10" d="m494.46,909.04h-.36c-.44,0-.72-.27-.72-.7s.28-.7.72-.7h.36v-.75c0-.6.35-.96.93-.96s.93.37.93.96v.75h.65c.44,0,.71.27.71.7s-.27.7-.71.7h-.65v3.26c0,.48.17.69.56.72h.12c.46.06.71.25.71.69,0,.55-.53.83-1.31.83h-.06c-1.24,0-1.87-.62-1.87-1.82v-3.67Z"/><path class="cls-10" d="m498.26,912.49c0-1.24.95-1.96,2.65-2.06l1.71-.1v-.45c0-.63-.44-1-1.14-1-.57,0-.91.18-1.32.72-.2.23-.44.34-.74.34-.45,0-.77-.29-.77-.71,0-.15.03-.28.1-.42.32-.81,1.41-1.31,2.82-1.31,1.75,0,2.88.9,2.88,2.27v3.88c0,.62-.37.93-.9.93s-.85-.28-.89-.83v-.35h-.04c-.38.72-1.23,1.15-2.08,1.15-1.29,0-2.28-.84-2.28-2.06Zm4.37-.54v-.49l-1.43.09c-.69.05-1.09.36-1.09.84,0,.51.42.83,1.04.83.81,0,1.48-.53,1.48-1.26Z"/><path class="cls-10" d="m505.39,911.05c0-2.18,1.29-3.55,3.34-3.55,1.37,0,2.5.66,2.87,1.62.06.16.1.32.1.46,0,.46-.36.72-.79.72-.37,0-.59-.15-.78-.48-.34-.6-.75-.87-1.34-.87-.94,0-1.52.77-1.52,2.09s.58,2.1,1.5,2.1c.65,0,1.05-.32,1.33-.8.25-.39.45-.55.84-.55.43,0,.78.29.78.74,0,.15-.04.3-.12.48-.41.93-1.57,1.57-2.87,1.57-2.05,0-3.35-1.35-3.35-3.55Z"/><path class="cls-10" d="m512.77,913.62v-7.5c0-.63.39-.97.93-.97s.93.34.93.97v4.22h.03l2.46-2.47c.25-.26.46-.37.74-.37.48,0,.83.35.83.81,0,.28-.08.45-.35.7l-1.73,1.64,1.9,2.42c.2.27.26.44.26.68,0,.49-.36.84-.88.84-.39,0-.62-.14-.91-.58l-1.75-2.31-.59.55v1.38c0,.63-.38.96-.93.96s-.93-.33-.93-.96Z"/><path class="cls-10" d="m519.16,911.08c0-2.19,1.28-3.58,3.29-3.58s3.22,1.32,3.22,3.17c0,.51-.29.81-.81.81h-3.88v.08c0,1.01.61,1.67,1.55,1.67.68,0,1.12-.23,1.62-.82.2-.2.36-.27.6-.27.4,0,.72.25.72.68,0,.15-.04.3-.13.45-.45.84-1.5,1.33-2.82,1.33-2.13,0-3.38-1.31-3.38-3.52Zm4.73-.74c-.04-.89-.61-1.47-1.42-1.47s-1.4.6-1.47,1.47h2.89Z"/><path class="cls-10" d="m526.62,913.62v-5.18c0-.59.36-.93.9-.93s.88.34.88.93v.44h.04c.18-.84.74-1.35,1.42-1.35.25,0,.44.06.58.17.18.14.27.37.27.69,0,.29-.09.51-.27.67s-.44.24-.81.24c-.84.01-1.14.49-1.14,1.29v3.02c0,.62-.36.96-.93.96s-.93-.35-.93-.96Z"/><path class="cls-10" d="m533.96,912.84c-.06-.16-.1-.34-.1-.51,0-.51.35-.84.84-.84.39,0,.65.15.88.56.3.7,1.02,1.02,1.89,1.02,1.03,0,1.73-.5,1.73-1.17,0-.6-.43-.95-1.58-1.18l-.97-.19c-1.83-.36-2.72-1.24-2.72-2.6,0-1.68,1.46-2.79,3.5-2.79,1.68,0,2.94.7,3.35,1.9.04.13.07.26.07.43,0,.46-.33.77-.82.77-.43,0-.7-.17-.91-.56-.3-.69-.89-.98-1.68-.98-.95,0-1.57.44-1.57,1.12,0,.57.44.91,1.52,1.13l.96.2c1.94.39,2.78,1.17,2.78,2.56,0,1.79-1.4,2.92-3.69,2.92-1.89,0-3.1-.75-3.47-1.76Z"/><path class="cls-10" d="m542.13,915.91v-7.45c0-.62.38-.95.91-.95s.91.33.91.96v.37h.04c.37-.8,1.12-1.29,2.11-1.29,1.73,0,2.79,1.31,2.79,3.51s-1.05,3.51-2.75,3.51c-.99,0-1.75-.48-2.11-1.25h-.04v2.6c0,.63-.38.96-.93.96s-.93-.33-.93-.96Zm4.86-4.86c0-1.23-.58-2.02-1.51-2.02s-1.5.81-1.5,2.02.6,2.02,1.5,2.02,1.51-.78,1.51-2.02Z"/><path class="cls-10" d="m549.57,912.49c0-1.24.95-1.96,2.65-2.06l1.71-.1v-.45c0-.63-.44-1-1.14-1-.57,0-.91.18-1.32.72-.2.23-.44.34-.74.34-.45,0-.77-.29-.77-.71,0-.15.03-.28.1-.42.32-.81,1.41-1.31,2.82-1.31,1.75,0,2.88.9,2.88,2.27v3.88c0,.62-.37.93-.9.93s-.85-.28-.89-.83v-.35h-.04c-.38.72-1.23,1.15-2.08,1.15-1.29,0-2.28-.84-2.28-2.06Zm4.37-.54v-.49l-1.43.09c-.69.05-1.09.36-1.09.84,0,.51.42.83,1.04.83.81,0,1.48-.53,1.48-1.26Z"/><path class="cls-10" d="m558.03,913.61l-1.37-4.74c-.07-.24-.1-.39-.1-.57,0-.46.37-.79.89-.79.46,0,.76.28.87.79l1.01,4.4h.04l1.05-4.33c.12-.55.48-.85,1.05-.85s.91.3,1.04.85l1.06,4.33h.04l1.02-4.41c.1-.5.4-.77.86-.77.51,0,.88.32.88.79,0,.17-.03.32-.1.56l-1.37,4.75c-.19.67-.55.98-1.19.98-.68,0-1.04-.29-1.2-.98l-1.03-3.96h-.04l-1.03,3.97c-.16.67-.53.97-1.19.97s-.98-.3-1.17-.97Z"/><path class="cls-10" d="m567.19,913.62v-5.18c0-.58.34-.93.9-.93s.93.36.93.94v.38h.04c.36-.84,1.05-1.31,2.09-1.31,1.51,0,2.36.95,2.36,2.55v3.55c0,.63-.39.96-.93.96s-.93-.33-.93-.96v-3.17c0-.89-.42-1.4-1.25-1.4s-1.36.61-1.36,1.49v3.07c0,.63-.38.96-.93.96s-.93-.33-.93-.96Z"/><path class="cls-13" d="m439.82,26.57v-7.16c0-.63.36-1,.96-1h2.54c2.75,0,4.37,1.64,4.37,4.54s-1.62,4.61-4.37,4.61h-2.54c-.6,0-.96-.37-.96-1Zm3.27-.58c1.71,0,2.64-1.04,2.64-3.02s-.95-2.97-2.64-2.97h-1.35v5.99h1.35Z"/><path class="cls-13" d="m448.51,24.2c0-2.19,1.28-3.58,3.29-3.58s3.22,1.32,3.22,3.17c0,.51-.29.81-.81.81h-3.88v.08c0,1.01.61,1.67,1.55,1.67.68,0,1.12-.23,1.62-.82.2-.2.36-.27.6-.27.4,0,.72.25.72.68,0,.15-.04.3-.13.45-.45.84-1.5,1.33-2.82,1.33-2.13,0-3.38-1.31-3.38-3.52Zm4.73-.74c-.04-.89-.61-1.47-1.42-1.47s-1.4.6-1.47,1.47h2.89Z"/><path class="cls-13" d="m456.47,26.74v-4.58h-.36c-.39,0-.68-.25-.68-.69s.29-.68.68-.68h.36v-.51c0-1.35.66-1.94,1.94-1.96.98,0,1.4.31,1.4.75,0,.26-.13.41-.37.49-.1.03-.22.04-.36.05-.57.02-.8.25-.8.75v.43h.78c.39,0,.68.25.68.68s-.29.69-.68.69h-.74v4.58c0,.64-.38.96-.93.96s-.93-.32-.93-.96Z"/><path class="cls-13" d="m460.17,24.2c0-2.19,1.28-3.58,3.29-3.58s3.22,1.32,3.22,3.17c0,.51-.29.81-.81.81h-3.88v.08c0,1.01.61,1.67,1.55,1.67.68,0,1.12-.23,1.62-.82.2-.2.36-.27.6-.27.4,0,.72.25.72.68,0,.15-.04.3-.13.45-.45.84-1.5,1.33-2.82,1.33-2.13,0-3.38-1.31-3.38-3.52Zm4.73-.74c-.04-.89-.61-1.47-1.42-1.47s-1.4.6-1.47,1.47h2.89Z"/><path class="cls-13" d="m467.63,26.74v-5.18c0-.58.34-.93.9-.93s.93.36.93.94v.38h.04c.36-.84,1.05-1.31,2.09-1.31,1.51,0,2.36.95,2.36,2.55v3.55c0,.63-.39.96-.93.96s-.93-.33-.93-.96v-3.17c0-.89-.42-1.4-1.25-1.4s-1.36.61-1.36,1.49v3.07c0,.63-.38.96-.93.96s-.93-.33-.93-.96Z"/><path class="cls-13" d="m474.88,24.16c0-2.16,1.08-3.5,2.79-3.5.98,0,1.75.52,2.08,1.28h.04v-2.69c0-.63.39-.97.93-.97s.93.34.93.97v7.52c0,.62-.38.94-.92.94s-.93-.32-.93-.94v-.39h-.03c-.3.76-1.05,1.31-2.09,1.31-1.7,0-2.77-1.35-2.77-3.52Zm4.91.01c0-1.24-.59-2.02-1.51-2.02s-1.5.78-1.5,2.02.57,2.02,1.5,2.02,1.51-.77,1.51-2.02Z"/><path class="cls-13" d="m482.62,24.2c0-2.19,1.28-3.58,3.29-3.58s3.22,1.32,3.22,3.17c0,.51-.29.81-.81.81h-3.88v.08c0,1.01.61,1.67,1.55,1.67.68,0,1.12-.23,1.62-.82.2-.2.36-.27.6-.27.4,0,.72.25.72.68,0,.15-.04.3-.13.45-.45.84-1.5,1.33-2.82,1.33-2.13,0-3.38-1.31-3.38-3.52Zm4.73-.74c-.04-.89-.61-1.47-1.42-1.47s-1.4.6-1.47,1.47h2.89Z"/><path class="cls-13" d="m490.09,26.74v-5.18c0-.59.36-.93.89-.93s.88.34.88.93v.44h.04c.18-.84.74-1.35,1.42-1.35.25,0,.44.06.58.17.18.14.27.37.27.69,0,.29-.09.51-.27.67s-.44.23-.81.24c-.84.01-1.14.49-1.14,1.29v3.02c0,.62-.36.96-.93.96s-.93-.35-.93-.96Z"/><path class="cls-13" d="m497.42,25.97c-.06-.17-.1-.34-.1-.51,0-.51.35-.84.84-.84.39,0,.65.15.88.56.3.7,1.02,1.02,1.89,1.02,1.03,0,1.73-.5,1.73-1.17,0-.6-.43-.95-1.58-1.18l-.97-.19c-1.83-.36-2.72-1.24-2.72-2.6,0-1.68,1.46-2.79,3.5-2.79,1.68,0,2.94.7,3.35,1.9.04.13.07.26.07.43,0,.46-.33.77-.82.77-.43,0-.7-.17-.91-.56-.3-.69-.9-.98-1.68-.98-.95,0-1.57.44-1.57,1.12,0,.56.44.91,1.52,1.13l.96.2c1.94.39,2.78,1.17,2.78,2.56,0,1.79-1.4,2.92-3.69,2.92-1.89,0-3.1-.76-3.47-1.76Z"/><path class="cls-13" d="m505.59,29.03v-7.45c0-.62.38-.95.91-.95s.91.33.91.96v.37h.04c.37-.8,1.12-1.29,2.11-1.29,1.73,0,2.79,1.31,2.79,3.51s-1.05,3.51-2.76,3.51c-.99,0-1.75-.48-2.11-1.25h-.04v2.6c0,.63-.38.96-.93.96s-.93-.33-.93-.96Zm4.86-4.86c0-1.23-.58-2.02-1.51-2.02s-1.5.81-1.5,2.02.6,2.02,1.5,2.02,1.51-.78,1.51-2.02Z"/><path class="cls-13" d="m513.04,25.62c0-1.24.95-1.96,2.65-2.06l1.71-.1v-.45c0-.63-.45-1-1.14-1-.57,0-.91.18-1.32.72-.2.23-.44.34-.74.34-.45,0-.78-.29-.78-.71,0-.15.03-.28.1-.42.32-.81,1.41-1.31,2.82-1.31,1.75,0,2.88.9,2.88,2.27v3.88c0,.62-.37.93-.9.93s-.85-.28-.89-.83v-.35h-.04c-.38.72-1.23,1.15-2.08,1.15-1.29,0-2.28-.84-2.28-2.06Zm4.37-.54v-.5l-1.44.09c-.69.05-1.08.36-1.08.84,0,.51.42.83,1.04.83.81,0,1.48-.53,1.48-1.26Z"/><path class="cls-13" d="m521.5,26.74l-1.37-4.74c-.07-.24-.1-.39-.1-.57,0-.46.38-.79.89-.79.46,0,.76.28.87.79l1.01,4.4h.04l1.05-4.34c.12-.55.48-.85,1.05-.85s.91.3,1.03.85l1.06,4.34h.04l1.02-4.41c.1-.5.4-.77.86-.77.51,0,.88.32.88.79,0,.17-.03.32-.1.56l-1.37,4.75c-.19.67-.55.98-1.19.98-.68,0-1.04-.29-1.2-.98l-1.04-3.96h-.04l-1.03,3.97c-.16.67-.53.97-1.19.97s-.98-.3-1.17-.97Z"/><path class="cls-13" d="m530.66,26.74v-5.18c0-.58.34-.93.89-.93s.93.36.93.94v.38h.04c.36-.84,1.05-1.31,2.09-1.31,1.51,0,2.36.95,2.36,2.55v3.55c0,.63-.39.96-.93.96s-.93-.33-.93-.96v-3.17c0-.89-.42-1.4-1.25-1.4s-1.36.61-1.36,1.49v3.07c0,.63-.38.96-.93.96s-.93-.33-.93-.96Z"/><path class="cls-1" d="m801.07,559.76v-6.06c0-.53.3-.84.81-.84h2.56c1.46,0,2.37.75,2.37,1.93,0,.85-.63,1.56-1.46,1.68v.04c1.05.08,1.83.85,1.83,1.87,0,1.37-1.03,2.22-2.68,2.22h-2.62c-.51,0-.81-.31-.81-.85Zm2.79-3.68c.87,0,1.36-.38,1.36-1.04s-.44-.98-1.19-.98h-1.33v2.01h1.17Zm.23,3.32c.94,0,1.44-.4,1.44-1.14s-.52-1.11-1.48-1.11h-1.36v2.25h1.4Z"/><path class="cls-1" d="m807.76,557.76c0-1.85,1.08-3.03,2.78-3.03s2.73,1.12,2.73,2.68c0,.44-.25.68-.68.68h-3.29v.07c0,.85.52,1.41,1.31,1.41.58,0,.95-.19,1.38-.69.17-.17.31-.23.51-.23.34,0,.61.21.61.58,0,.12-.04.25-.11.38-.38.71-1.27,1.13-2.38,1.13-1.8,0-2.86-1.11-2.86-2.97Zm4-.63c-.03-.75-.52-1.24-1.2-1.24s-1.19.5-1.24,1.24h2.44Z"/><path class="cls-1" d="m814.11,559.91v-6.34c0-.54.33-.82.78-.82s.78.29.78.82v6.34c0,.54-.32.82-.78.82s-.78-.28-.78-.82Z"/><path class="cls-1" d="m817.16,556.03h-.3c-.37,0-.61-.23-.61-.59s.24-.59.61-.59h.3v-.64c0-.51.29-.82.78-.82s.79.31.79.82v.64h.55c.37,0,.6.23.6.59s-.23.59-.6.59h-.55v2.76c0,.41.14.58.48.61h.1c.39.05.6.21.6.58,0,.46-.45.7-1.11.7h-.05c-1.05,0-1.58-.52-1.58-1.54v-3.1Z"/><path class="cls-1" d="m794.68,490.45c-.09-.22-.13-.42-.13-.65,0-.47.3-.76.75-.76.41,0,.64.19.77.63.15.52.51.81,1.02.81.68,0,1.04-.42,1.04-1.2v-4.54c0-.54.3-.85.81-.85s.81.31.81.85v4.55c0,1.65-.99,2.58-2.65,2.58-1.17,0-2.06-.53-2.43-1.42Z"/><path class="cls-1" d="m800.74,490.09c0-1.05.8-1.65,2.24-1.74l1.45-.09v-.38c0-.54-.38-.85-.97-.85-.48,0-.77.16-1.12.61-.17.19-.37.29-.62.29-.38,0-.66-.25-.66-.6,0-.12.03-.24.08-.35.27-.69,1.19-1.11,2.38-1.11,1.48,0,2.44.76,2.44,1.92v3.28c0,.52-.32.79-.76.79s-.72-.24-.75-.7v-.29h-.03c-.32.61-1.04.97-1.76.97-1.1,0-1.93-.71-1.93-1.75Zm3.7-.46v-.42l-1.21.07c-.58.04-.92.31-.92.71,0,.43.35.7.88.7.69,0,1.25-.45,1.25-1.07Z"/><path class="cls-1" d="m806.96,484.47c0-.46.37-.81.84-.81s.84.35.84.81-.37.81-.84.81-.84-.36-.84-.81Zm.05,6.58v-4.35c0-.51.29-.82.78-.82s.79.31.79.82v4.35c0,.51-.3.82-.79.82s-.78-.31-.78-.82Z"/><path class="cls-1" d="m809.66,491.05v-6.34c0-.54.33-.82.78-.82s.78.29.78.82v6.34c0,.54-.32.82-.78.82s-.78-.28-.78-.82Z"/><path class="cls-1" d="m724.51,490.66v-6.34c0-.52.3-.81.82-.81.33,0,.56.13.81.47l3.35,4.68h.04v-4.34c0-.52.29-.82.78-.82s.77.29.77.82v6.35c0,.5-.28.79-.79.79-.35,0-.56-.12-.81-.47l-3.36-4.71h-.05v4.37c0,.52-.29.81-.77.81s-.78-.29-.78-.81Z"/><path class="cls-1" d="m732.03,488.52c0-1.85,1.08-3.03,2.78-3.03s2.73,1.12,2.73,2.68c0,.44-.25.68-.68.68h-3.29v.07c0,.85.52,1.41,1.31,1.41.58,0,.95-.19,1.38-.69.17-.17.31-.23.51-.23.34,0,.61.21.61.58,0,.12-.04.25-.11.38-.38.71-1.27,1.13-2.38,1.13-1.8,0-2.86-1.11-2.86-2.97Zm4-.63c-.03-.75-.52-1.24-1.2-1.24s-1.19.5-1.24,1.24h2.44Z"/><path class="cls-1" d="m738.21,490.34c-.04-.1-.06-.21-.06-.29,0-.36.27-.6.63-.6.25,0,.47.11.68.36.31.4.66.58,1.26.58s.94-.24.94-.62c0-.31-.2-.48-.76-.6l-.97-.2c-1.13-.24-1.7-.82-1.7-1.67,0-1.1.95-1.81,2.44-1.81,1.19,0,2.07.54,2.26,1.19.02.08.04.16.04.23,0,.32-.2.54-.6.54-.2,0-.43-.08-.57-.24-.27-.35-.59-.62-1.15-.62-.53,0-.9.25-.9.62,0,.3.23.5.8.62l.95.2c1.22.26,1.73.71,1.73,1.57,0,1.14-1.03,1.88-2.55,1.88-1.32,0-2.2-.47-2.48-1.15Z"/><path class="cls-1" d="m744.43,486.79h-.3c-.37,0-.61-.23-.61-.59s.24-.59.61-.59h.3v-.64c0-.51.29-.82.78-.82s.78.31.78.82v.64h.55c.37,0,.6.23.6.59s-.23.59-.6.59h-.55v2.76c0,.41.14.58.48.61h.1c.39.05.6.21.6.58,0,.46-.45.7-1.11.7h-.05c-1.05,0-1.58-.52-1.58-1.54v-3.1Z"/><path class="cls-1" d="m694.62,425.98v-6.17c0-.53.3-.84.81-.84h2.34c1.59,0,2.69,1.06,2.69,2.65s-1.13,2.65-2.77,2.65h-1.45v1.7c0,.53-.3.84-.81.84s-.81-.31-.81-.84Zm2.72-2.97c.93,0,1.47-.49,1.47-1.38s-.54-1.38-1.47-1.38h-1.1v2.76h1.1Z"/><path class="cls-1" d="m701.26,419.44c0-.46.37-.81.84-.81s.84.35.84.81-.37.81-.84.81-.84-.36-.84-.81Zm.05,6.58v-4.35c0-.51.3-.82.79-.82s.78.31.78.82v4.35c0,.51-.3.82-.78.82s-.79-.31-.79-.82Z"/><path class="cls-1" d="m703.92,427.96v-6.31c0-.53.32-.81.77-.81s.77.28.77.81v.31h.03c.31-.68.95-1.1,1.78-1.1,1.46,0,2.36,1.11,2.36,2.97s-.89,2.97-2.33,2.97c-.84,0-1.48-.41-1.79-1.06h-.03v2.2c0,.54-.32.82-.79.82s-.78-.28-.78-.82Zm4.11-4.11c0-1.04-.49-1.71-1.28-1.71s-1.27.68-1.27,1.71.5,1.71,1.27,1.71,1.28-.66,1.28-1.71Z"/><path class="cls-1" d="m710.24,423.87c0-1.85,1.08-3.03,2.78-3.03s2.73,1.12,2.73,2.68c0,.44-.25.68-.68.68h-3.29v.07c0,.85.52,1.41,1.31,1.41.57,0,.95-.19,1.38-.69.17-.17.31-.23.51-.23.34,0,.61.21.61.58,0,.12-.04.25-.11.38-.38.71-1.27,1.13-2.38,1.13-1.8,0-2.86-1.11-2.86-2.97Zm4-.63c-.03-.75-.52-1.24-1.2-1.24s-1.19.5-1.24,1.24h2.44Z"/><path class="cls-1" d="m716.42,425.7c-.04-.1-.06-.21-.06-.29,0-.36.27-.6.63-.6.25,0,.47.11.68.36.31.4.66.58,1.26.58s.94-.24.94-.62c0-.31-.2-.48-.76-.6l-.97-.2c-1.13-.24-1.7-.82-1.7-1.67,0-1.1.95-1.81,2.44-1.81,1.19,0,2.07.54,2.26,1.19.02.08.04.16.04.23,0,.32-.2.54-.6.54-.2,0-.43-.08-.57-.24-.27-.35-.58-.62-1.15-.62-.53,0-.9.25-.9.62,0,.3.23.5.8.62l.95.2c1.22.26,1.73.71,1.73,1.57,0,1.14-1.03,1.88-2.55,1.88-1.32,0-2.2-.47-2.48-1.15Z"/><path class="cls-1" d="m736.2,358.15v-.75h-2.89c-.59,0-.98-.37-.98-.91,0-.33.1-.63.34-1.06.53-.96,1.3-2.14,2.15-3.39.54-.82.93-1.09,1.58-1.09.82,0,1.34.45,1.34,1.17v3.98h.44c.43,0,.67.27.67.65s-.24.64-.67.64h-.44v.75c0,.52-.33.79-.77.79s-.77-.27-.77-.79Zm.03-5.9h-.03c-1.11,1.6-1.82,2.69-2.45,3.86v.04h2.48v-3.9Z"/><path class="cls-1" d="m739.65,355.68c0-.44.32-.68.74-.68h2.24c.42,0,.74.25.74.68s-.32.69-.74.69h-2.24c-.42,0-.74-.25-.74-.69Z"/><path class="cls-1" d="m746.18,358.13v-5.55h-.03l-1.13.79c-.15.11-.26.15-.43.15-.33,0-.57-.24-.57-.58,0-.25.1-.43.35-.61l1.54-1.06c.38-.26.63-.31.97-.31.57,0,.92.35.92.91v6.26c0,.49-.32.81-.8.81s-.81-.32-.81-.81Z"/><path class="cls-1" d="m749.42,354.94c0-2.5,1.21-4.04,3.16-4.04s3.16,1.53,3.16,4.03-1.19,4.07-3.16,4.07-3.16-1.55-3.16-4.06Zm4.67,0c0-1.77-.56-2.74-1.51-2.74s-1.52.98-1.52,2.74.56,2.76,1.52,2.76,1.51-.98,1.51-2.76Z"/><path class="cls-1" d="m598.45,320.96c-.05-.14-.09-.29-.09-.44,0-.43.29-.71.71-.71.33,0,.55.13.75.47.25.59.86.86,1.6.86.87,0,1.46-.42,1.46-.99,0-.51-.37-.8-1.34-1l-.82-.16c-1.55-.31-2.3-1.05-2.3-2.2,0-1.42,1.24-2.36,2.96-2.36,1.42,0,2.49.6,2.83,1.61.04.11.06.22.06.36,0,.39-.28.65-.69.65-.37,0-.59-.15-.77-.48-.26-.59-.76-.83-1.42-.83-.8,0-1.33.38-1.33.95,0,.48.37.77,1.29.96l.82.17c1.64.33,2.35.99,2.35,2.16,0,1.51-1.19,2.47-3.12,2.47-1.6,0-2.63-.64-2.94-1.49Z"/><path class="cls-1" d="m605.16,319.44c0-1.84,1.1-3,2.83-3,1.16,0,2.12.56,2.43,1.38.05.13.09.27.09.39,0,.39-.3.61-.67.61-.31,0-.5-.12-.66-.41-.28-.5-.63-.74-1.13-.74-.79,0-1.28.66-1.28,1.77s.49,1.78,1.27,1.78c.55,0,.89-.27,1.13-.68.21-.33.38-.46.71-.46.37,0,.66.24.66.63,0,.12-.03.25-.1.41-.34.78-1.33,1.33-2.43,1.33-1.73,0-2.84-1.14-2.84-3Z"/><path class="cls-1" d="m611.36,321.61v-4.38c0-.5.31-.79.76-.79s.74.29.74.79v.38h.03c.15-.71.62-1.14,1.2-1.14.21,0,.38.05.49.15.15.12.23.31.23.58,0,.25-.08.44-.23.56s-.38.2-.68.2c-.71.01-.97.41-.97,1.1v2.56c0,.52-.31.82-.78.82s-.79-.3-.79-.82Z"/><path class="cls-1" d="m614.96,319.46c0-1.85,1.08-3.03,2.78-3.03s2.73,1.12,2.73,2.68c0,.44-.25.68-.68.68h-3.29v.07c0,.85.52,1.41,1.31,1.41.57,0,.95-.19,1.38-.69.17-.17.31-.23.51-.23.34,0,.61.21.61.57,0,.12-.04.25-.11.38-.38.71-1.27,1.13-2.38,1.13-1.8,0-2.86-1.11-2.86-2.98Zm4-.63c-.03-.75-.52-1.24-1.2-1.24s-1.19.5-1.24,1.24h2.44Z"/><path class="cls-1" d="m621.07,319.46c0-1.85,1.08-3.03,2.78-3.03s2.73,1.12,2.73,2.68c0,.44-.25.68-.68.68h-3.29v.07c0,.85.52,1.41,1.31,1.41.58,0,.95-.19,1.38-.69.17-.17.31-.23.51-.23.34,0,.61.21.61.57,0,.12-.04.25-.11.38-.38.71-1.27,1.13-2.38,1.13-1.8,0-2.86-1.11-2.86-2.98Zm4-.63c-.03-.75-.52-1.24-1.2-1.24s-1.19.5-1.24,1.24h2.44Z"/><path class="cls-1" d="m627.39,321.61v-4.38c0-.49.29-.79.76-.79s.78.3.78.79v.32h.03c.31-.71.89-1.11,1.77-1.11,1.28,0,2,.81,2,2.15v3.01c0,.54-.33.82-.78.82s-.78-.28-.78-.82v-2.68c0-.75-.35-1.18-1.06-1.18s-1.15.52-1.15,1.26v2.6c0,.54-.32.82-.78.82s-.79-.28-.79-.82Z"/><path class="cls-1" d="m701.75,241.63v-6.18c0-.53.3-.84.81-.84h2.36c1.78,0,2.8.94,2.8,2.47,0,.97-.48,1.79-1.33,2.16l1.12,1.93c.13.23.17.37.17.56,0,.43-.34.74-.82.74-.39,0-.56-.14-.83-.61l-1.29-2.34h-1.38v2.11c0,.53-.3.84-.81.84s-.81-.31-.81-.84Zm3.02-3.28c.82,0,1.29-.47,1.29-1.24s-.5-1.24-1.31-1.24h-1.38v2.47h1.4Z"/><path class="cls-1" d="m708.41,240.71c0-1.05.81-1.65,2.25-1.74l1.45-.09v-.38c0-.54-.38-.85-.97-.85-.48,0-.77.16-1.12.61-.17.19-.37.29-.62.29-.38,0-.66-.25-.66-.6,0-.12.03-.24.08-.35.27-.69,1.19-1.11,2.38-1.11,1.48,0,2.44.76,2.44,1.92v3.28c0,.52-.32.79-.76.79s-.72-.24-.75-.7v-.3h-.03c-.32.61-1.04.97-1.76.97-1.1,0-1.93-.71-1.93-1.75Zm3.7-.46v-.42l-1.21.08c-.59.04-.92.31-.92.71,0,.43.35.7.88.7.69,0,1.25-.45,1.25-1.07Z"/><path class="cls-1" d="m715.07,241.66v-3.87h-.3c-.33,0-.57-.21-.57-.58s.25-.57.57-.57h.3v-.44c0-1.14.56-1.64,1.64-1.65.83,0,1.18.26,1.18.63,0,.22-.11.35-.32.41-.09.02-.18.04-.3.04-.48.02-.68.21-.68.63v.37h.66c.33,0,.58.21.58.57s-.25.58-.58.58h-.62v3.87c0,.54-.32.82-.78.82s-.79-.27-.79-.82Z"/><path class="cls-1" d="m718.99,237.78h-.3c-.37,0-.61-.23-.61-.59s.24-.59.61-.59h.3v-.64c0-.5.29-.82.78-.82s.78.31.78.82v.64h.55c.37,0,.6.23.6.59s-.23.59-.6.59h-.55v2.76c0,.41.14.58.48.61h.1c.39.05.6.21.6.58,0,.46-.45.7-1.11.7h-.05c-1.05,0-1.58-.52-1.58-1.54v-3.1Z"/><path class="cls-1" d="m722.19,239.51c0-1.85,1.08-3.03,2.78-3.03s2.73,1.12,2.73,2.68c0,.44-.25.68-.68.68h-3.29v.07c0,.85.52,1.41,1.31,1.41.58,0,.95-.19,1.38-.69.17-.17.31-.23.51-.23.34,0,.61.21.61.57,0,.12-.04.25-.11.38-.38.71-1.27,1.13-2.38,1.13-1.8,0-2.86-1.11-2.86-2.98Zm4-.63c-.03-.75-.52-1.24-1.2-1.24s-1.19.5-1.24,1.24h2.44Z"/><path class="cls-1" d="m728.51,241.66v-4.38c0-.5.31-.79.76-.79s.74.29.74.79v.38h.03c.15-.71.62-1.14,1.2-1.14.21,0,.38.05.49.15.15.12.23.31.23.58,0,.25-.08.44-.23.56s-.38.2-.68.2c-.71.01-.97.41-.97,1.1v2.56c0,.52-.31.82-.78.82s-.78-.3-.78-.82Z"/><path class="cls-1" d="m732.38,241.33c-.04-.1-.06-.2-.06-.29,0-.36.27-.6.63-.6.25,0,.47.11.68.35.31.4.66.59,1.26.59s.94-.24.94-.62c0-.31-.2-.48-.76-.6l-.97-.2c-1.13-.24-1.7-.82-1.7-1.67,0-1.1.95-1.81,2.44-1.81,1.19,0,2.07.54,2.26,1.19.02.08.04.16.04.23,0,.32-.2.54-.6.54-.2,0-.43-.08-.57-.24-.27-.35-.58-.62-1.15-.62-.53,0-.9.25-.9.62,0,.3.23.5.8.62l.95.2c1.22.26,1.73.71,1.73,1.57,0,1.14-1.03,1.89-2.55,1.89-1.32,0-2.2-.47-2.48-1.15Z"/><path class="cls-1" d="m463.73,327.83v-6.06c0-.53.3-.84.81-.84h2.56c1.46,0,2.37.75,2.37,1.93,0,.85-.63,1.56-1.46,1.68v.04c1.05.08,1.83.85,1.83,1.87,0,1.36-1.03,2.22-2.68,2.22h-2.62c-.51,0-.81-.31-.81-.85Zm2.79-3.68c.87,0,1.36-.38,1.36-1.04s-.44-.98-1.19-.98h-1.33v2.01h1.17Zm.23,3.32c.94,0,1.44-.4,1.44-1.14s-.52-1.11-1.48-1.11h-1.36v2.25h1.4Z"/><path class="cls-1" d="m470.42,325.79c0-1.86,1.13-3,2.85-3s2.85,1.13,2.85,3-1.11,3.01-2.85,3.01-2.85-1.12-2.85-3.01Zm4.11,0c0-1.14-.49-1.8-1.26-1.8s-1.26.66-1.26,1.8.49,1.8,1.26,1.8,1.26-.65,1.26-1.8Z"/><path class="cls-1" d="m476.91,321.39c0-.46.37-.81.84-.81s.84.35.84.81-.37.81-.84.81-.84-.36-.84-.81Zm.05,6.58v-4.35c0-.51.29-.82.78-.82s.78.31.78.82v4.35c0,.51-.3.82-.78.82s-.78-.31-.78-.82Z"/><path class="cls-1" d="m479.61,327.97v-6.34c0-.54.33-.82.78-.82s.79.28.79.82v6.34c0,.54-.32.82-.79.82s-.78-.28-.78-.82Z"/><path class="cls-1" d="m482.02,325.82c0-1.85,1.08-3.03,2.78-3.03s2.73,1.12,2.73,2.68c0,.44-.25.68-.68.68h-3.29v.07c0,.85.52,1.41,1.31,1.41.58,0,.95-.19,1.38-.69.17-.17.31-.23.51-.23.34,0,.61.21.61.57,0,.12-.04.25-.11.38-.38.71-1.27,1.13-2.38,1.13-1.8,0-2.86-1.11-2.86-2.98Zm4-.63c-.03-.75-.52-1.24-1.2-1.24s-1.19.5-1.24,1.24h2.44Z"/><path class="cls-1" d="m488.34,327.97v-4.38c0-.5.31-.79.76-.79s.74.29.74.79v.38h.03c.15-.71.62-1.14,1.2-1.14.21,0,.38.05.49.15.15.12.23.31.23.58,0,.25-.08.44-.23.56s-.38.2-.68.2c-.71.01-.97.41-.97,1.1v2.56c0,.52-.31.82-.78.82s-.79-.3-.79-.82Z"/><path class="cls-1" d="m555.13,423.24v-6.17c0-.53.3-.84.81-.84h2.34c1.59,0,2.69,1.06,2.69,2.65s-1.13,2.65-2.77,2.65h-1.45v1.7c0,.53-.3.84-.81.84s-.81-.31-.81-.84Zm2.72-2.97c.93,0,1.47-.49,1.47-1.38s-.54-1.38-1.47-1.38h-1.1v2.76h1.1Z"/><path class="cls-1" d="m561.18,422.32c0-1.05.81-1.65,2.25-1.74l1.45-.09v-.38c0-.54-.38-.85-.97-.85-.48,0-.77.16-1.12.61-.17.19-.37.29-.62.29-.38,0-.66-.25-.66-.6,0-.12.03-.24.08-.35.27-.69,1.19-1.11,2.38-1.11,1.48,0,2.44.76,2.44,1.92v3.28c0,.52-.32.79-.76.79s-.72-.24-.75-.7v-.29h-.03c-.32.61-1.04.97-1.76.97-1.1,0-1.93-.71-1.93-1.75Zm3.7-.46v-.42l-1.21.07c-.59.04-.92.31-.92.71,0,.43.35.7.88.7.69,0,1.25-.45,1.25-1.07Z"/><path class="cls-1" d="m567.47,423.27v-6.34c0-.54.33-.82.78-.82s.78.29.78.82v6.34c0,.54-.32.82-.78.82s-.78-.28-.78-.82Z"/><path class="cls-1" d="m570.13,423.27v-6.34c0-.54.33-.82.78-.82s.78.29.78.82v6.34c0,.54-.32.82-.78.82s-.78-.28-.78-.82Z"/><path class="cls-1" d="m572.55,421.13c0-1.85,1.08-3.03,2.78-3.03s2.73,1.12,2.73,2.68c0,.44-.25.68-.68.68h-3.29v.07c0,.85.52,1.41,1.31,1.41.57,0,.95-.19,1.38-.69.17-.17.31-.23.51-.23.34,0,.61.21.61.58,0,.12-.04.25-.11.38-.38.71-1.27,1.13-2.38,1.13-1.8,0-2.86-1.11-2.86-2.97Zm4-.63c-.03-.75-.52-1.24-1.2-1.24s-1.19.5-1.24,1.24h2.44Z"/><path class="cls-1" d="m579.28,419.4h-.3c-.37,0-.61-.23-.61-.59s.24-.59.61-.59h.3v-.64c0-.51.29-.82.78-.82s.78.31.78.82v.64h.55c.37,0,.6.23.6.59s-.23.59-.6.59h-.55v2.76c0,.41.14.58.48.61h.1c.39.05.6.21.6.58,0,.46-.45.7-1.11.7h-.05c-1.05,0-1.58-.52-1.58-1.54v-3.1Z"/><path class="cls-1" d="m398.46,500.39v-5.67h-1.6c-.44,0-.74-.25-.74-.67s.29-.67.74-.67h4.83c.44,0,.73.25.73.67s-.3.67-.73.67h-1.61v5.67c0,.53-.3.84-.81.84s-.81-.31-.81-.84Z"/><path class="cls-1" d="m402.36,499.09v-3.01c0-.54.33-.82.78-.82s.78.28.78.82v2.68c0,.77.38,1.18,1.07,1.18s1.13-.5,1.13-1.26v-2.59c0-.54.33-.82.78-.82s.78.28.78.82v4.37c0,.52-.31.79-.76.79s-.76-.27-.76-.79v-.36h-.03c-.28.73-.85,1.14-1.72,1.14-1.25,0-2.07-.81-2.07-2.15Z"/><path class="cls-1" d="m408.76,500.45v-6.37c0-.54.33-.82.78-.82s.78.29.78.82v2.29h.03c.32-.68.96-1.09,1.78-1.09,1.46,0,2.34,1.11,2.34,2.97s-.88,2.97-2.34,2.97c-.84,0-1.48-.41-1.8-1.08h-.03v.31c0,.52-.32.79-.78.79s-.77-.27-.77-.79Zm4.11-2.2c0-1.05-.49-1.71-1.27-1.71s-1.28.68-1.28,1.71.52,1.71,1.28,1.71,1.27-.66,1.27-1.71Z"/><path class="cls-1" d="m415.08,498.28c0-1.85,1.08-3.03,2.78-3.03s2.73,1.12,2.73,2.68c0,.44-.25.68-.68.68h-3.29v.07c0,.85.52,1.41,1.31,1.41.58,0,.95-.19,1.38-.69.17-.17.31-.23.51-.23.34,0,.61.21.61.58,0,.12-.04.25-.11.38-.38.71-1.27,1.13-2.38,1.13-1.8,0-2.86-1.11-2.86-2.97Zm4-.63c-.03-.75-.52-1.24-1.2-1.24s-1.19.5-1.24,1.24h2.44Z"/><path class="cls-1" d="m367.05,305.26v-6.27c0-.54.3-.85.81-.85s.81.31.81.85v2.69h.05l2.92-3.19c.23-.25.43-.35.7-.35.43,0,.76.33.76.75,0,.23-.08.4-.28.62l-2.14,2.24,2.33,2.83c.24.3.35.53.35.75,0,.44-.34.78-.78.78-.33,0-.56-.12-.81-.45l-2.31-2.84-.77.81v1.63c0,.53-.3.84-.81.84s-.81-.31-.81-.84Z"/><path class="cls-1" d="m374.16,298.72c0-.46.37-.81.84-.81s.84.35.84.81-.37.81-.84.81-.84-.36-.84-.81Zm.05,6.58v-4.35c0-.51.3-.82.78-.82s.78.31.78.82v4.35c0,.51-.3.82-.78.82s-.78-.31-.78-.82Z"/><path class="cls-1" d="m377.24,301.42h-.3c-.37,0-.61-.23-.61-.59s.24-.59.61-.59h.3v-.64c0-.5.3-.82.78-.82s.78.31.78.82v.64h.55c.37,0,.6.23.6.59s-.23.59-.6.59h-.55v2.76c0,.41.14.58.48.61h.1c.39.05.6.21.6.58,0,.46-.45.7-1.11.7h-.05c-1.05,0-1.58-.52-1.58-1.54v-3.1Z"/><path class="cls-1" d="m380.44,303.12c0-1.84,1.1-3,2.83-3,1.15,0,2.12.56,2.43,1.38.05.13.09.27.09.39,0,.39-.3.61-.67.61-.31,0-.5-.12-.66-.41-.28-.5-.63-.74-1.13-.74-.79,0-1.28.66-1.28,1.77s.49,1.78,1.27,1.78c.55,0,.89-.27,1.13-.68.21-.33.38-.46.71-.46.37,0,.66.24.66.63,0,.12-.03.25-.1.41-.34.78-1.33,1.33-2.43,1.33-1.73,0-2.84-1.14-2.84-3Z"/><path class="cls-1" d="m386.68,305.3v-6.36c0-.5.29-.81.77-.81s.77.3.77.81v2.33h.03c.31-.73.93-1.13,1.81-1.13,1.28,0,2.01.83,2.01,2.16v3c0,.54-.32.82-.78.82s-.78-.28-.78-.82v-2.67c0-.74-.37-1.19-1.08-1.19s-1.18.52-1.18,1.28v2.58c0,.54-.32.82-.78.82s-.78-.28-.78-.82Z"/><path class="cls-1" d="m392.86,303.15c0-1.85,1.08-3.03,2.78-3.03s2.73,1.12,2.73,2.68c0,.44-.25.68-.68.68h-3.29v.07c0,.85.52,1.41,1.31,1.41.57,0,.95-.19,1.38-.69.17-.17.31-.23.51-.23.34,0,.61.21.61.57,0,.12-.04.25-.11.38-.38.71-1.27,1.13-2.38,1.13-1.8,0-2.86-1.11-2.86-2.98Zm4-.63c-.03-.75-.52-1.24-1.2-1.24s-1.19.5-1.24,1.24h2.44Z"/><path class="cls-1" d="m399.18,305.3v-4.38c0-.49.28-.79.76-.79s.78.3.78.79v.32h.03c.31-.71.89-1.11,1.77-1.11,1.28,0,2,.81,2,2.15v3.01c0,.54-.33.82-.78.82s-.78-.28-.78-.82v-2.68c0-.75-.35-1.18-1.06-1.18s-1.15.52-1.15,1.26v2.6c0,.54-.32.82-.78.82s-.78-.28-.78-.82Z"/><path class="cls-1" d="m213.01,327.93v-6.27c0-.54.3-.85.81-.85s.81.31.81.85v2.41h3.49v-2.41c0-.54.3-.85.81-.85s.81.31.81.85v6.27c0,.53-.3.84-.81.84s-.81-.31-.81-.84v-2.52h-3.49v2.52c0,.53-.3.84-.81.84s-.81-.31-.81-.84Z"/><path class="cls-1" d="m220.55,327.02c0-1.05.81-1.65,2.25-1.74l1.45-.09v-.38c0-.54-.38-.85-.97-.85-.48,0-.77.16-1.12.61-.17.19-.37.29-.62.29-.38,0-.66-.25-.66-.6,0-.12.03-.24.08-.35.27-.69,1.19-1.11,2.38-1.11,1.48,0,2.44.76,2.44,1.92v3.28c0,.52-.32.79-.76.79s-.72-.24-.75-.7v-.3h-.03c-.32.61-1.04.97-1.76.97-1.1,0-1.93-.71-1.93-1.75Zm3.7-.46v-.42l-1.21.08c-.59.04-.92.31-.92.71,0,.43.35.7.88.7.69,0,1.25-.45,1.25-1.07Z"/><path class="cls-1" d="m226.84,327.97v-6.34c0-.54.33-.82.78-.82s.78.28.78.82v6.34c0,.54-.32.82-.78.82s-.78-.28-.78-.82Z"/><path class="cls-1" d="m229.5,327.97v-6.34c0-.54.33-.82.78-.82s.78.28.78.82v6.34c0,.54-.32.82-.78.82s-.78-.28-.78-.82Z"/><path class="cls-1" d="m40.12,244.6c-.05-.14-.09-.29-.09-.44,0-.43.3-.71.71-.71.33,0,.55.13.75.47.25.59.86.86,1.6.86.87,0,1.46-.42,1.46-.99,0-.51-.37-.8-1.34-1l-.82-.16c-1.55-.31-2.3-1.05-2.3-2.2,0-1.42,1.24-2.36,2.96-2.36,1.42,0,2.49.6,2.83,1.61.04.11.06.22.06.36,0,.39-.28.65-.69.65-.37,0-.59-.15-.77-.48-.26-.59-.76-.83-1.42-.83-.8,0-1.33.38-1.33.95,0,.48.37.77,1.29.96l.82.17c1.64.33,2.35.99,2.35,2.16,0,1.51-1.19,2.47-3.12,2.47-1.6,0-2.63-.64-2.94-1.49Z"/><path class="cls-1" d="m47.03,245.25v-4.38c0-.49.28-.79.76-.79s.78.3.78.79v.32h.03c.31-.71.89-1.11,1.77-1.11,1.28,0,2,.81,2,2.15v3.01c0,.54-.33.82-.78.82s-.78-.28-.78-.82v-2.68c0-.75-.35-1.18-1.06-1.18s-1.15.52-1.15,1.26v2.6c0,.54-.32.82-.78.82s-.78-.28-.78-.82Z"/><path class="cls-1" d="m53.16,243.07c0-1.86,1.13-3,2.85-3s2.85,1.13,2.85,3-1.11,3.01-2.85,3.01-2.85-1.12-2.85-3.01Zm4.11,0c0-1.14-.49-1.8-1.26-1.8s-1.26.66-1.26,1.8.49,1.8,1.26,1.8,1.26-.65,1.26-1.8Z"/><path class="cls-1" d="m60.55,245.25l-1.16-4.01c-.06-.2-.09-.33-.09-.48,0-.39.32-.67.76-.67.39,0,.64.24.74.67l.85,3.72h.03l.89-3.67c.1-.47.41-.72.89-.72s.77.25.88.72l.9,3.67h.03l.86-3.73c.09-.42.34-.66.73-.66.44,0,.74.27.74.67,0,.15-.03.27-.09.48l-1.16,4.02c-.16.57-.46.83-1,.83-.57,0-.88-.25-1.02-.83l-.88-3.35h-.03l-.87,3.36c-.13.57-.45.82-1,.82s-.83-.25-.99-.82Z"/><path class="cls-1" d="m68.3,245.25v-4.37c0-.53.31-.8.76-.8s.76.27.76.8v.36h.03c.24-.69.86-1.15,1.64-1.15.83,0,1.41.43,1.61,1.18h.03c.26-.73.95-1.18,1.79-1.18,1.13,0,1.89.77,1.89,1.93v3.23c0,.53-.32.82-.79.82s-.78-.28-.78-.82v-2.84c0-.67-.33-1.03-.94-1.03s-.99.44-.99,1.07v2.79c0,.53-.29.82-.76.82s-.75-.28-.75-.82v-2.88c0-.62-.35-.98-.93-.98s-1,.45-1,1.1v2.77c0,.53-.32.82-.78.82s-.78-.28-.78-.82Z"/><path class="cls-1" d="m77.57,244.3c0-1.05.81-1.65,2.25-1.74l1.45-.09v-.38c0-.54-.38-.85-.97-.85-.48,0-.77.16-1.12.61-.17.19-.37.29-.62.29-.38,0-.66-.25-.66-.6,0-.12.03-.24.08-.35.27-.69,1.19-1.11,2.38-1.11,1.48,0,2.44.76,2.44,1.92v3.28c0,.52-.32.79-.76.79s-.72-.24-.75-.7v-.3h-.03c-.32.61-1.04.97-1.76.97-1.1,0-1.93-.71-1.93-1.75Zm3.7-.46v-.42l-1.21.08c-.59.04-.92.31-.92.71,0,.43.35.7.88.7.69,0,1.25-.45,1.25-1.07Z"/><path class="cls-1" d="m83.82,245.25v-4.38c0-.49.28-.79.76-.79s.78.3.78.79v.32h.03c.31-.71.89-1.11,1.77-1.11,1.28,0,2,.81,2,2.15v3.01c0,.54-.33.82-.78.82s-.78-.28-.78-.82v-2.68c0-.75-.35-1.18-1.06-1.18s-1.15.52-1.15,1.26v2.6c0,.54-.32.82-.78.82s-.78-.28-.78-.82Z"/><path class="cls-1" d="m13.66,530.95v-2.15l-2.36-3.65c-.12-.18-.17-.37-.17-.55,0-.44.34-.76.81-.76.35,0,.54.13.75.5l1.77,2.92h.04l1.78-2.92c.2-.35.41-.5.74-.5.46,0,.8.32.8.75,0,.19-.05.37-.17.55l-2.36,3.66v2.15c0,.53-.3.84-.81.84s-.81-.31-.81-.84Z"/><path class="cls-1" d="m17.25,528.84c0-1.85,1.08-3.03,2.78-3.03s2.73,1.12,2.73,2.68c0,.44-.25.68-.68.68h-3.29v.07c0,.85.52,1.41,1.31,1.41.57,0,.95-.19,1.38-.69.17-.17.31-.23.51-.23.34,0,.61.21.61.58,0,.12-.04.25-.11.38-.38.71-1.27,1.13-2.38,1.13-1.8,0-2.86-1.11-2.86-2.97Zm4-.63c-.03-.75-.52-1.24-1.2-1.24s-1.19.5-1.24,1.24h2.44Z"/><path class="cls-1" d="m23.6,530.99v-6.34c0-.54.33-.82.78-.82s.78.29.78.82v6.34c0,.54-.32.82-.78.82s-.78-.28-.78-.82Z"/><path class="cls-1" d="m26.27,530.99v-6.34c0-.54.33-.82.78-.82s.78.29.78.82v6.34c0,.54-.32.82-.78.82s-.78-.28-.78-.82Z"/><path class="cls-1" d="m28.68,528.81c0-1.86,1.13-3,2.85-3s2.85,1.13,2.85,3-1.11,3.01-2.85,3.01-2.85-1.12-2.85-3.01Zm4.11,0c0-1.14-.49-1.8-1.26-1.8s-1.26.66-1.26,1.8.49,1.8,1.26,1.8,1.26-.65,1.26-1.8Z"/><path class="cls-1" d="m36.08,530.98l-1.16-4.01c-.06-.21-.09-.33-.09-.48,0-.39.32-.67.76-.67.39,0,.64.24.74.67l.85,3.72h.03l.89-3.67c.1-.47.41-.72.89-.72s.77.25.88.72l.9,3.67h.03l.86-3.73c.09-.42.34-.66.73-.66.44,0,.74.27.74.67,0,.15-.03.27-.09.48l-1.16,4.02c-.16.57-.46.83-1,.83-.57,0-.88-.25-1.02-.83l-.88-3.35h-.03l-.87,3.36c-.13.57-.45.82-1,.82s-.83-.25-.99-.82Z"/><path class="cls-1" d="m602.32,628.9c0-.13.04-.32.11-.52l2.12-5.76c.22-.63.61-.92,1.22-.92s1.01.28,1.24.91l2.13,5.77c.08.21.1.35.1.52,0,.45-.34.76-.81.76s-.7-.21-.84-.71l-.41-1.22h-2.8l-.41,1.21c-.15.52-.39.73-.82.73-.5,0-.82-.29-.82-.76Zm4.47-2.43l-1.03-3.17h-.04l-1,3.17h2.07Z"/><path class="cls-1" d="m612.39,628.91v-6.16c0-.66.39-1.05,1.05-1.05.56,0,.88.24,1.11.84l1.92,4.76h.04l1.92-4.76c.24-.6.55-.84,1.12-.84.66,0,1.04.39,1.04,1.05v6.16c0,.48-.27.76-.73.76s-.72-.28-.72-.76v-4.58h-.04l-1.92,4.69c-.14.34-.35.49-.69.49s-.57-.16-.7-.49l-1.92-4.69h-.04v4.58c0,.48-.26.76-.72.76s-.73-.28-.73-.76Z"/><path class="cls-1" d="m621.41,627.91c0-1.05.8-1.65,2.24-1.74l1.45-.09v-.38c0-.54-.38-.85-.97-.85-.48,0-.77.16-1.12.61-.17.19-.37.29-.62.29-.38,0-.66-.25-.66-.6,0-.12.03-.24.08-.35.27-.69,1.19-1.11,2.38-1.11,1.48,0,2.44.76,2.44,1.92v3.28c0,.52-.32.79-.76.79s-.72-.24-.75-.7v-.29h-.03c-.32.61-1.04.97-1.76.97-1.1,0-1.93-.71-1.93-1.75Zm3.7-.46v-.42l-1.21.07c-.58.04-.92.31-.92.71,0,.43.35.7.88.7.69,0,1.25-.45,1.25-1.07Z"/><path class="cls-1" d="m627.63,622.28c0-.46.37-.81.84-.81s.84.35.84.81-.37.81-.84.81-.84-.36-.84-.81Zm.05,6.58v-4.35c0-.51.29-.82.78-.82s.79.31.79.82v4.35c0,.51-.3.82-.79.82s-.78-.31-.78-.82Z"/><path class="cls-1" d="m630.29,628.86v-4.38c0-.49.29-.79.76-.79s.78.3.78.79v.32h.03c.31-.71.89-1.11,1.77-1.11,1.28,0,2,.81,2,2.15v3.01c0,.54-.33.82-.78.82s-.78-.28-.78-.82v-2.68c0-.75-.35-1.18-1.06-1.18s-1.15.52-1.15,1.26v2.6c0,.54-.32.82-.78.82s-.79-.28-.79-.82Z"/><path class="cls-1" d="m437.55,488.99v-6.16c0-.66.39-1.05,1.05-1.05.56,0,.88.24,1.11.84l1.92,4.76h.04l1.92-4.76c.24-.6.55-.84,1.12-.84.66,0,1.04.39,1.04,1.05v6.16c0,.48-.27.76-.72.76s-.72-.28-.72-.76v-4.58h-.04l-1.92,4.69c-.14.34-.35.49-.69.49s-.57-.16-.7-.49l-1.92-4.69h-.04v4.58c0,.48-.26.76-.72.76s-.72-.28-.72-.76Z"/><path class="cls-1" d="m446.88,482.36c0-.46.37-.81.84-.81s.84.36.84.81-.37.81-.84.81-.84-.36-.84-.81Zm.05,6.58v-4.35c0-.51.29-.82.78-.82s.78.31.78.82v4.35c0,.51-.3.82-.78.82s-.78-.31-.78-.82Z"/><path class="cls-1" d="m449.34,486.75c0-1.83.91-2.96,2.36-2.96.83,0,1.48.44,1.76,1.08h.03v-2.28c0-.54.33-.82.79-.82s.78.28.78.82v6.36c0,.52-.32.79-.78.79s-.79-.27-.79-.79v-.33h-.03c-.25.64-.89,1.11-1.77,1.11-1.44,0-2.35-1.14-2.35-2.98Zm4.16.01c0-1.05-.5-1.71-1.28-1.71s-1.27.66-1.27,1.71.48,1.71,1.27,1.71,1.28-.66,1.28-1.71Z"/><path class="cls-1" d="m317.8,680.23c0-2.48,1.42-3.99,3.7-3.99,1.49,0,2.65.7,3.09,1.65.09.19.12.34.12.5,0,.41-.28.7-.71.7-.34,0-.59-.15-.78-.47-.38-.69-.95-1.03-1.71-1.03-1.28,0-2.05.97-2.05,2.62s.82,2.71,2.11,2.71c1.06,0,1.79-.65,1.83-1.61v-.12s-1.12,0-1.12,0c-.39,0-.65-.22-.65-.59s.26-.59.65-.59h1.9c.51,0,.81.31.81.84v.12c0,1.97-1.25,3.3-3.44,3.3-2.31,0-3.73-1.51-3.73-4.03Z"/><path class="cls-1" d="m325.62,682.47c0-1.05.81-1.65,2.25-1.74l1.45-.09v-.38c0-.54-.38-.85-.97-.85-.48,0-.77.16-1.12.61-.17.19-.37.29-.62.29-.38,0-.66-.25-.66-.6,0-.12.03-.24.08-.35.27-.69,1.19-1.11,2.38-1.11,1.48,0,2.44.76,2.44,1.92v3.28c0,.52-.32.79-.76.79s-.72-.24-.75-.7v-.29h-.03c-.32.61-1.04.97-1.76.97-1.1,0-1.93-.71-1.93-1.75Zm3.7-.46v-.42l-1.21.07c-.59.04-.92.31-.92.71,0,.43.35.7.88.7.69,0,1.25-.45,1.25-1.07Z"/><path class="cls-1" d="m331.87,683.42v-4.38c0-.5.31-.79.76-.79s.74.29.74.79v.38h.03c.15-.71.62-1.14,1.2-1.14.21,0,.38.05.49.15.15.12.23.31.23.58,0,.25-.08.43-.23.56s-.38.2-.68.21c-.71,0-.97.41-.97,1.1v2.56c0,.52-.31.82-.78.82s-.78-.3-.78-.82Z"/><path class="cls-1" d="m335.51,682.47c0-1.05.81-1.65,2.25-1.74l1.45-.09v-.38c0-.54-.38-.85-.97-.85-.48,0-.77.16-1.12.61-.17.19-.37.29-.62.29-.38,0-.66-.25-.66-.6,0-.12.03-.24.08-.35.27-.69,1.19-1.11,2.38-1.11,1.48,0,2.44.76,2.44,1.92v3.28c0,.52-.32.79-.76.79s-.72-.24-.75-.7v-.29h-.03c-.32.61-1.04.97-1.76.97-1.1,0-1.93-.71-1.93-1.75Zm3.7-.46v-.42l-1.21.07c-.59.04-.92.31-.92.71,0,.43.35.7.88.7.69,0,1.25-.45,1.25-1.07Z"/><path class="cls-1" d="m341.91,685.23c-.09-.15-.12-.29-.12-.43,0-.33.25-.58.64-.58.2,0,.37.06.54.23.42.4.83.62,1.35.63.86,0,1.36-.47,1.36-1.19v-.92h-.03c-.27.62-.94,1.03-1.77,1.03-1.43,0-2.34-1.1-2.34-2.85s.88-2.87,2.36-2.87c.83,0,1.46.44,1.76,1.09h.03v-.32c0-.53.34-.79.79-.79s.78.26.78.79v4.86c0,1.5-1.08,2.4-2.94,2.39-1.18,0-2.05-.45-2.42-1.06Zm3.8-4.06c0-1.04-.5-1.7-1.29-1.7s-1.26.65-1.26,1.7.48,1.67,1.26,1.67,1.29-.62,1.29-1.67Z"/><path class="cls-1" d="m348.07,681.28c0-1.85,1.08-3.03,2.78-3.03s2.73,1.12,2.73,2.68c0,.44-.25.68-.68.68h-3.29v.07c0,.85.52,1.41,1.31,1.41.57,0,.95-.19,1.38-.69.17-.17.31-.23.51-.23.34,0,.61.21.61.58,0,.12-.04.25-.11.38-.38.71-1.27,1.13-2.38,1.13-1.8,0-2.86-1.11-2.86-2.97Zm4-.63c-.03-.75-.52-1.24-1.2-1.24s-1.19.5-1.24,1.24h2.44Z"/><path class="cls-1" d="m235.33,570.12v-6.06c0-.53.3-.84.81-.84h2.56c1.46,0,2.37.75,2.37,1.93,0,.85-.63,1.56-1.46,1.68v.04c1.05.08,1.83.85,1.83,1.88,0,1.36-1.03,2.22-2.68,2.22h-2.62c-.51,0-.81-.31-.81-.85Zm2.79-3.68c.86,0,1.36-.38,1.36-1.04s-.44-.98-1.19-.98h-1.33v2.01h1.17Zm.23,3.32c.93,0,1.44-.4,1.44-1.14s-.52-1.11-1.48-1.11h-1.36v2.25h1.4Z"/><path class="cls-1" d="m244.55,570.31v-6.16c0-.66.39-1.05,1.05-1.05.56,0,.88.24,1.11.84l1.92,4.76h.04l1.92-4.76c.24-.6.55-.84,1.12-.84.66,0,1.04.39,1.04,1.05v6.16c0,.48-.27.76-.73.76s-.72-.28-.72-.76v-4.58h-.04l-1.92,4.69c-.14.34-.35.49-.69.49s-.57-.16-.7-.49l-1.92-4.69h-.04v4.58c0,.48-.26.76-.72.76s-.73-.28-.73-.76Z"/><path class="cls-1" d="m253.56,569.31c0-1.05.81-1.65,2.25-1.74l1.45-.09v-.38c0-.54-.38-.85-.97-.85-.48,0-.77.16-1.12.61-.17.19-.37.29-.62.29-.38,0-.66-.25-.66-.6,0-.12.03-.24.08-.35.27-.69,1.19-1.11,2.38-1.11,1.48,0,2.44.76,2.44,1.92v3.28c0,.52-.32.79-.76.79s-.72-.24-.75-.7v-.3h-.03c-.32.61-1.04.97-1.76.97-1.1,0-1.93-.71-1.93-1.75Zm3.7-.46v-.42l-1.21.08c-.59.04-.92.31-.92.71,0,.43.35.7.88.7.69,0,1.25-.45,1.25-1.07Z"/><path class="cls-1" d="m259.78,563.68c0-.46.37-.81.84-.81s.84.36.84.81-.37.81-.84.81-.84-.36-.84-.81Zm.05,6.58v-4.35c0-.51.3-.82.78-.82s.78.31.78.82v4.35c0,.51-.3.82-.78.82s-.78-.31-.78-.82Z"/><path class="cls-1" d="m262.45,570.26v-4.38c0-.49.28-.79.76-.79s.78.3.78.79v.32h.03c.31-.71.89-1.11,1.77-1.11,1.28,0,2,.81,2,2.15v3.01c0,.54-.33.82-.78.82s-.78-.28-.78-.82v-2.68c0-.75-.35-1.18-1.06-1.18s-1.15.52-1.15,1.26v2.6c0,.54-.32.82-.78.82s-.78-.28-.78-.82Z"/><path class="cls-1" d="m560.06,584.78v-6.06c0-.53.3-.84.81-.84h2.56c1.46,0,2.37.75,2.37,1.93,0,.85-.63,1.56-1.46,1.68v.04c1.05.08,1.83.85,1.83,1.88,0,1.36-1.03,2.22-2.68,2.22h-2.62c-.51,0-.81-.31-.81-.85Zm2.79-3.68c.87,0,1.36-.38,1.36-1.04s-.44-.98-1.19-.98h-1.33v2.01h1.17Zm.23,3.32c.94,0,1.44-.4,1.44-1.14s-.52-1.11-1.48-1.11h-1.36v2.25h1.4Z"/><path class="cls-1" d="m567,584.93v-6.34c0-.54.33-.82.78-.82s.79.28.79.82v6.34c0,.54-.32.82-.79.82s-.78-.28-.78-.82Z"/><path class="cls-1" d="m569.6,583.58v-3.01c0-.54.33-.82.78-.82s.79.29.79.82v2.68c0,.77.38,1.18,1.07,1.18s1.13-.5,1.13-1.26v-2.59c0-.54.33-.82.78-.82s.78.29.78.82v4.37c0,.52-.31.79-.76.79s-.76-.27-.76-.79v-.35h-.03c-.29.72-.85,1.14-1.72,1.14-1.25,0-2.07-.81-2.07-2.15Z"/><path class="cls-1" d="m575.75,582.78c0-1.85,1.08-3.03,2.78-3.03s2.73,1.12,2.73,2.68c0,.43-.25.68-.68.68h-3.29v.07c0,.85.52,1.41,1.31,1.41.58,0,.95-.19,1.38-.69.17-.17.31-.23.51-.23.34,0,.61.21.61.57,0,.12-.04.25-.11.38-.38.71-1.27,1.13-2.38,1.13-1.8,0-2.86-1.11-2.86-2.98Zm4-.63c-.03-.75-.52-1.24-1.2-1.24s-1.19.51-1.24,1.24h2.44Z"/><path class="cls-1" d="m336.06,225.78v-6.27c0-.54.3-.85.81-.85s.81.31.81.85v2.41h3.49v-2.41c0-.54.3-.85.81-.85s.81.31.81.85v6.27c0,.53-.3.84-.81.84s-.81-.31-.81-.84v-2.52h-3.49v2.52c0,.53-.3.84-.81.84s-.81-.31-.81-.84Z"/><path class="cls-1" d="m343.93,224.47v-3.01c0-.54.33-.82.78-.82s.78.28.78.82v2.68c0,.77.38,1.18,1.07,1.18s1.13-.5,1.13-1.26v-2.59c0-.54.33-.82.78-.82s.78.28.78.82v4.37c0,.52-.31.79-.76.79s-.76-.27-.76-.79v-.35h-.03c-.28.73-.85,1.14-1.72,1.14-1.25,0-2.07-.81-2.07-2.15Z"/><path class="cls-1" d="m350.71,221.94h-.3c-.37,0-.61-.23-.61-.59s.24-.59.61-.59h.3v-.64c0-.5.3-.82.78-.82s.78.31.78.82v.64h.55c.37,0,.6.23.6.59s-.23.59-.6.59h-.55v2.76c0,.41.14.58.48.61h.1c.39.05.6.21.6.58,0,.46-.45.7-1.11.7h-.05c-1.05,0-1.58-.52-1.58-1.54v-3.1Z"/><path class="cls-1" d="m826.22,309.45c0-2.48,1.42-3.99,3.7-3.99,1.49,0,2.65.7,3.09,1.65.09.19.12.34.12.5,0,.41-.29.7-.71.7-.34,0-.59-.15-.78-.47-.38-.69-.95-1.03-1.71-1.03-1.28,0-2.05.97-2.05,2.62s.82,2.71,2.11,2.71c1.06,0,1.79-.65,1.83-1.61v-.12s-1.12,0-1.12,0c-.39,0-.65-.22-.65-.59s.26-.59.65-.59h1.9c.51,0,.81.31.81.84v.12c0,1.97-1.25,3.3-3.44,3.3-2.32,0-3.73-1.51-3.73-4.03Z"/><path class="cls-1" d="m834.11,310.5c0-1.85,1.08-3.03,2.78-3.03s2.73,1.12,2.73,2.68c0,.44-.25.68-.68.68h-3.29v.07c0,.85.52,1.41,1.31,1.41.57,0,.95-.19,1.38-.69.17-.17.31-.23.51-.23.34,0,.61.21.61.57,0,.12-.04.25-.11.38-.38.71-1.27,1.13-2.38,1.13-1.8,0-2.86-1.11-2.86-2.98Zm4-.63c-.03-.75-.52-1.24-1.2-1.24s-1.19.5-1.24,1.24h2.44Z"/><path class="cls-1" d="m840.43,312.64v-4.38c0-.49.28-.79.76-.79s.78.3.78.79v.32h.03c.31-.71.89-1.11,1.77-1.11,1.28,0,2,.81,2,2.15v3.01c0,.54-.33.82-.78.82s-.78-.28-.78-.82v-2.68c0-.75-.35-1.18-1.06-1.18s-1.15.52-1.15,1.26v2.6c0,.54-.32.82-.79.82s-.78-.28-.78-.82Z"/><path class="cls-1" d="m350.21,375.32c0-2.47,1.44-4.01,3.74-4.01s3.74,1.54,3.74,4.01-1.44,4-3.74,4-3.74-1.54-3.74-4Zm5.82,0c0-1.63-.81-2.66-2.08-2.66s-2.08,1.03-2.08,2.66.81,2.65,2.08,2.65,2.08-1.03,2.08-2.65Z"/><path class="cls-1" d="m358.59,378.49v-4.38c0-.5.31-.79.76-.79s.74.29.74.79v.38h.03c.15-.71.62-1.14,1.2-1.14.21,0,.38.05.49.14.15.12.23.31.23.58,0,.25-.08.44-.23.56s-.38.2-.68.2c-.71.01-.97.41-.97,1.1v2.56c0,.52-.31.82-.78.82s-.78-.3-.78-.82Z"/><path class="cls-1" d="m362.23,377.54c0-1.05.81-1.65,2.25-1.74l1.45-.09v-.38c0-.54-.38-.85-.97-.85-.48,0-.77.16-1.12.61-.17.19-.37.29-.62.29-.38,0-.66-.25-.66-.6,0-.12.03-.24.08-.35.27-.69,1.19-1.11,2.38-1.11,1.48,0,2.44.76,2.44,1.92v3.28c0,.52-.32.79-.76.79s-.72-.24-.75-.7v-.3h-.03c-.32.61-1.04.97-1.76.97-1.1,0-1.93-.71-1.93-1.75Zm3.7-.46v-.42l-1.21.08c-.59.04-.92.31-.92.71,0,.43.35.7.88.7.69,0,1.25-.45,1.25-1.07Z"/><path class="cls-1" d="m368.48,378.49v-4.38c0-.49.28-.79.76-.79s.78.3.78.79v.32h.03c.31-.71.89-1.11,1.77-1.11,1.28,0,2,.8,2,2.15v3.01c0,.54-.33.82-.78.82s-.78-.28-.78-.82v-2.68c0-.75-.35-1.18-1.06-1.18s-1.15.52-1.15,1.26v2.6c0,.54-.32.82-.78.82s-.78-.28-.78-.82Z"/><path class="cls-1" d="m374.97,380.3c-.09-.15-.12-.29-.12-.44,0-.33.25-.57.64-.57.2,0,.37.06.54.23.42.4.83.62,1.35.63.86,0,1.36-.47,1.36-1.19v-.92h-.03c-.27.62-.94,1.03-1.77,1.03-1.43,0-2.34-1.1-2.34-2.85s.88-2.87,2.36-2.87c.83,0,1.46.44,1.76,1.08h.03v-.32c0-.53.34-.79.79-.79s.78.26.78.79v4.86c0,1.5-1.08,2.4-2.94,2.39-1.18,0-2.05-.45-2.42-1.06Zm3.8-4.06c0-1.04-.5-1.7-1.29-1.7s-1.26.66-1.26,1.7.48,1.67,1.26,1.67,1.29-.62,1.29-1.67Z"/><path class="cls-1" d="m381.13,376.34c0-1.85,1.08-3.03,2.78-3.03s2.73,1.12,2.73,2.68c0,.43-.25.68-.68.68h-3.29v.07c0,.85.52,1.41,1.31,1.41.57,0,.95-.19,1.38-.69.17-.17.31-.23.51-.23.34,0,.61.21.61.57,0,.12-.04.25-.11.38-.38.71-1.27,1.13-2.38,1.13-1.8,0-2.86-1.11-2.86-2.98Zm4-.63c-.03-.75-.52-1.24-1.2-1.24s-1.19.5-1.24,1.24h2.44Z"/><path class="cls-1" d="m249.9,429.26v-5.67h-1.6c-.44,0-.74-.25-.74-.67s.29-.67.74-.67h4.83c.44,0,.73.25.73.67s-.3.67-.73.67h-1.61v5.67c0,.53-.3.84-.81.84s-.81-.31-.81-.84Z"/><path class="cls-1" d="m252.99,428.35c0-1.05.81-1.65,2.25-1.74l1.45-.09v-.38c0-.54-.38-.85-.97-.85-.48,0-.77.16-1.12.61-.17.19-.37.29-.62.29-.38,0-.66-.25-.66-.6,0-.12.03-.24.08-.35.27-.69,1.19-1.11,2.38-1.11,1.48,0,2.44.76,2.44,1.92v3.28c0,.52-.32.79-.76.79s-.72-.24-.75-.7v-.29h-.03c-.32.61-1.04.97-1.76.97-1.1,0-1.93-.71-1.93-1.75Zm3.7-.46v-.42l-1.21.07c-.59.04-.92.31-.92.71,0,.43.35.7.88.7.69,0,1.25-.45,1.25-1.07Z"/><path class="cls-1" d="m259.28,429.3v-6.34c0-.54.33-.82.78-.82s.78.29.78.82v6.34c0,.54-.32.82-.78.82s-.78-.28-.78-.82Z"/><path class="cls-1" d="m261.94,429.3v-6.34c0-.54.33-.82.78-.82s.78.29.78.82v6.34c0,.54-.32.82-.78.82s-.78-.28-.78-.82Z"/><path class="cls-1" d="m266.88,429.15v-6.06c0-.53.3-.84.81-.84h2.56c1.46,0,2.37.75,2.37,1.93,0,.85-.63,1.56-1.46,1.68v.04c1.05.08,1.83.85,1.83,1.87,0,1.37-1.03,2.22-2.68,2.22h-2.62c-.51,0-.81-.31-.81-.85Zm2.79-3.68c.86,0,1.36-.38,1.36-1.04s-.44-.98-1.19-.98h-1.33v2.01h1.17Zm.23,3.32c.93,0,1.44-.4,1.44-1.14s-.52-1.11-1.48-1.11h-1.36v2.25h1.4Z"/><path class="cls-1" d="m273.57,427.12c0-1.86,1.13-3,2.85-3s2.85,1.13,2.85,3-1.11,3.01-2.85,3.01-2.85-1.12-2.85-3.01Zm4.11,0c0-1.14-.49-1.8-1.26-1.8s-1.26.66-1.26,1.8.49,1.8,1.26,1.8,1.26-.65,1.26-1.8Z"/><path class="cls-1" d="m279.8,429.47c0-.19.06-.34.21-.54l1.35-1.8-1.34-1.83c-.11-.15-.17-.31-.17-.49,0-.39.32-.69.75-.69.32,0,.48.11.69.45l1.07,1.62h.03l1.05-1.61c.21-.33.38-.46.67-.46.44,0,.74.27.74.67,0,.19-.06.35-.21.54l-1.32,1.76,1.34,1.85c.12.16.17.31.17.48,0,.42-.32.69-.75.69-.31,0-.46-.13-.63-.4l-1.14-1.71h-.03l-1.12,1.69c-.21.33-.37.42-.65.42-.41,0-.71-.26-.71-.64Z"/><path class="cls-1" d="m786.42,312.29c0-.35.1-.84.28-1.36l5.58-15.19c.59-1.66,1.6-2.42,3.21-2.42s2.66.74,3.27,2.41l5.61,15.21c.2.55.27.93.27,1.36,0,1.18-.89,2.01-2.14,2.01s-1.84-.55-2.22-1.88l-1.08-3.23h-7.38l-1.08,3.19c-.4,1.36-1.03,1.93-2.17,1.93-1.33,0-2.17-.78-2.17-2.01Zm11.79-6.41l-2.7-8.37h-.1l-2.65,8.37h5.45Z"/><path class="cls-1" d="m116.44,365.35v-15.97c0-1.4.79-2.22,2.14-2.22h6.75c3.84,0,6.24,1.97,6.24,5.1,0,2.24-1.67,4.11-3.84,4.43v.11c2.78.21,4.81,2.24,4.81,4.94,0,3.6-2.7,5.85-7.07,5.85h-6.91c-1.35,0-2.14-.82-2.14-2.24Zm7.35-9.7c2.28,0,3.58-1,3.58-2.73s-1.15-2.58-3.14-2.58h-3.51v5.31h3.07Zm.61,8.75c2.46,0,3.79-1.05,3.79-3s-1.37-2.93-3.89-2.93h-3.58v5.93h3.68Z"/></g></svg>