<svg xmlns="http://www.w3.org/2000/svg" viewBox="0 0 856.09 953.1"><defs><style>.cls-1{fill:#33353b;}.cls-2{fill:#575548;}.cls-3{fill:#b0adb0;}.cls-4{fill:none;stroke:#b0adb0;stroke-miterlimit:10;}.cls-5{fill:#656569;}.cls-6{fill:#d32027;}.cls-7{fill:#fff;}.cls-8{fill:#79c143;}</style></defs><title>Haven Offence</title><g id="Body_Merge" data-name="Body Merge"><polygon class="cls-1" points="809.01 262 823.05 262 823.05 260.05 809.01 260.05 809.01 230.05 786.06 230.05 786.06 262 803.11 262 809.01 262"/><path class="cls-1" d="M894,698V627.89h29.94V491H887v-6h21V455H854V375H709V298H655V226l-44-33h-2l-70,64v42H481v-3H447v79H332v61H224V475H70V582H89v93h41v75h6v63H105v22h-4v85.89h32.36V921H209v-.07h15V890h8v47H209v38H363v131l52,38H518l60-38v-77H524V967H662V918.28h0V852H632v-5h31V799h7v37h70V813h26l88-53h70V698ZM825,414v71h10v6H808V429H763v15H709V414Zm-378,2.93h84.93V344H616v69h47V529H593v16H578V505l-24-23H532V436H470v46H449l-24,23v11H409V498H363V416.94ZM424,644v46h31v62H409V722H386v-9h23V602H386V598h23V564H332v-5h60V548h17v-4h16v91h52v9Zm23,181v34h92v31h7v4H524v27H463V890H432V836H416V821h53.95v4ZM309,512h-6v40h6v12h0v34h38V602H324v20H247V582h23V475h39ZM224,859v-7H209V836H170V798h39V744H170V675h77V650h77v63h23v9H324V883h73v7H363v31H301V836H232v23Zm169,170V959H497v70ZM609,852h-9l-22,21v21H564v-4h6V825H517v-4h54V752H532V644H508v-9h70V574h15v15H709V475h54v31H725V613h38v16H701V613H671v23h-9V613H586v53h8v8h7v77h6v5H580v91h29ZM766,751H709V729H670v37h-7V756H627.94v-5H629l10-11V674h23V652h9v11h30v-4h76v31.94h62V627.89H855V698h-1Z" transform="translate(-68.94 -191.95)"/></g><g id="Bombsite"><rect class="cls-2" x="1.03" y="283.04" width="153.98" height="108.01"/><rect class="cls-2" x="379.05" y="319.04" width="106" height="97"/><rect class="cls-2" x="743.04" y="299.02" width="112.02" height="96.02"/><polygon class="cls-1" points="469.57 344.35 394.61 344.35 394.61 382.51 417.46 382.51 417.46 397.48 446.58 397.48 446.58 382.51 469.57 382.51 469.57 344.35"/><polygon class="cls-1" points="93.53 359.49 93.53 374.55 140.65 374.55 140.65 389.52 154.5 389.52 154.5 374.55 154.5 372.43 154.5 359.49 93.53 359.49"/><rect class="cls-1" x="1.51" y="344.62" width="45.91" height="44.9"/><rect class="cls-1" x="1.61" y="330.36" width="7.04" height="14.16"/><rect class="cls-1" x="71.53" y="283.27" width="14.07" height="14.24"/><polygon class="cls-1" points="792.76 343.48 733.24 358.71 737.48 375.7 797.01 360.53 792.76 343.48"/><rect class="cls-1" x="840.45" y="299.47" width="14.18" height="13.04"/></g><g id="Lines"><path class="cls-3" d="M846.53,747.92l7.11,11.82-11.48,6.9-7.11-11.82,11.48-6.9m.34-1.37-13.19,7.93L841.82,768,855,760.08l-8.14-13.53Z" transform="translate(-68.94 -191.95)"/><path class="cls-3" d="M739,815V835h-6V815h6m1-1h-8V836h8V814Z" transform="translate(-68.94 -191.95)"/><path class="cls-3" d="M732,822V835h-3V822h3m1-1h-5V836h5V821Z" transform="translate(-68.94 -191.95)"/><path class="cls-3" d="M662.05,834v12H649V834h13m1-1H648v14h15V833Z" transform="translate(-68.94 -191.95)"/><path class="cls-3" d="M600,799v13H580.91V799H600m1-1H579.91v15H601V798Z" transform="translate(-68.94 -191.95)"/><path class="cls-3" d="M662,852V967H586V952h62V852h14m1-1H647V951H585v17h78V851Z" transform="translate(-68.94 -191.95)"/><path class="cls-3" d="M662,852V967H579V944.08h61.06V852H662m1-1H639.05v92.09H578V968h85V943.08h0V851Z" transform="translate(-68.94 -191.95)"/><path class="cls-3" d="M538,953v13H525V953h13m1-1H524v15h15V952Z" transform="translate(-68.94 -191.95)"/><path class="cls-3" d="M378,890.93V905H363.9V890.93H378m1-1H362.9V906H379V889.93Z" transform="translate(-68.94 -191.95)"/><path class="cls-3" d="M382.49,891a2.52,2.52,0,1,1-2.51,2.51,2.52,2.52,0,0,1,2.51-2.51m0-1a3.52,3.52,0,1,0,3.52,3.51,3.51,3.51,0,0,0-3.52-3.51Z" transform="translate(-68.94 -191.95)"/><path class="cls-3" d="M415,822v13H402V822h13m1-1H401v15h15V821Z" transform="translate(-68.94 -191.95)"/><path class="cls-3" d="M432,836v7H402v-7h30m1-1H401v9h32v-9Z" transform="translate(-68.94 -191.95)"/><path class="cls-3" d="M339,783v14H324.93V783H339m1-1H323.93v16H340V782Z" transform="translate(-68.94 -191.95)"/><path class="cls-3" d="M346,791v6h-6v-6h6m1-1h-8v8h8v-8Z" transform="translate(-68.94 -191.95)"/><path class="cls-3" d="M404,704.09a4,4,0,1,1-3.95,3.95,4,4,0,0,1,3.95-3.95m0-1a5,5,0,1,0,5,4.95,4.95,4.95,0,0,0-5-4.95Z" transform="translate(-68.94 -191.95)"/><path class="cls-3" d="M408,665v12H394V665h14m1-1H393v14h16V664Z" transform="translate(-68.94 -191.95)"/><path class="cls-3" d="M385,602v14H348V602h37m1-1H347v16h39V601Z" transform="translate(-68.94 -191.95)"/><path class="cls-3" d="M385,599v17H348V599h37m1-1H347v19h39V598Z" transform="translate(-68.94 -191.95)"/><path class="cls-3" d="M378,602v9H355v-9h23m1-1H354v11h25V601Z" transform="translate(-68.94 -191.95)"/><path class="cls-3" d="M200,661v13H187V661h13m1-1H186v15h15V660Z" transform="translate(-68.94 -191.95)"/><path class="cls-3" d="M246,837v14H233V837h13m1-1H232v16h15V836Z" transform="translate(-68.94 -191.95)"/><path class="cls-3" d="M254,837v6h-7v-6h7m1-1h-9v8h9v-8Z" transform="translate(-68.94 -191.95)"/><polyline class="cls-4" points="101.53 551.4 101.53 590.55 115.99 590.55"/><path class="cls-3" d="M223,552v14H163V552h60m1-1H162v16h62V551Z" transform="translate(-68.94 -191.95)"/><path class="cls-3" d="M223,567v14H210V567h13m1-1H209v16h15V566Z" transform="translate(-68.94 -191.95)"/><path class="cls-3" d="M154,475.94V489H141V475.94h13m1-1H140V490h15V474.94Z" transform="translate(-68.94 -191.95)"/><path class="cls-3" d="M116,537v44H71V537h45m1-1H70v46h47V536Z" transform="translate(-68.94 -191.95)"/><path class="cls-3" d="M76.93,523v13H71V523h6m1-1H70v15h8V522Z" transform="translate(-68.94 -191.95)"/><path class="cls-3" d="M315,922v13H302V922h13m1-1H301v15h15V921Z" transform="translate(-68.94 -191.95)"/><path class="cls-3" d="M531,739v12H517V739h14m1-1H516v14h16V738Z" transform="translate(-68.94 -191.95)"/><path class="cls-3" d="M438,568v67H425V568h13m1-1H424v69h15V567Z" transform="translate(-68.94 -191.95)"/><path class="cls-3" d="M515,480v1H487v-1h28m1-1H486v3h30v-3Z" transform="translate(-68.94 -191.95)"/><path class="cls-3" d="M538,537v37H515v15H487V574H464V537h74m1-1H463v39h23v15h30V575h23V536Z" transform="translate(-68.94 -191.95)"/><path class="cls-3" d="M577,622v12.08H563V622h14m1-1H562v14.08h16V621Z" transform="translate(-68.94 -191.95)"/><path class="cls-3" d="M577.19,614v7H571v-7h6.16m1-1H570v9h8.16v-9Z" transform="translate(-68.94 -191.95)"/><path class="cls-3" d="M600,613v15H586V613h14m1-1H585v17h16V612Z" transform="translate(-68.94 -191.95)"/><path class="cls-3" d="M522.94,799v22H463V799h59.94m1-1H462v24h61.94V798Z" transform="translate(-68.94 -191.95)"/><path class="cls-3" d="M517,806v18H469.91V806H517m1-1H468.91v20H518V805Z" transform="translate(-68.94 -191.95)"/><path class="cls-3" d="M269,552v29H256V552h13m1-1H255v31h15V551Z" transform="translate(-68.94 -191.95)"/><path class="cls-3" d="M269,537v14H256V537h13m1-1H255v16h15V536Z" transform="translate(-68.94 -191.95)"/><path class="cls-3" d="M239,436.91V451H224.91V436.91H239m1-1H223.91V452H240V435.91Z" transform="translate(-68.94 -191.95)"/><path class="cls-3" d="M655,241v22h-5V241h5m1-1h-7v24h7V240Z" transform="translate(-68.94 -191.95)"/><path class="cls-3" d="M551.94,244.72V264.9h-13v-7.61l13-12.57m1-2.35-15,14.5v9h15V242.37Z" transform="translate(-68.94 -191.95)"/><path class="cls-3" d="M532,436v7H470v-7h62m1-1H469v9h64v-9Z" transform="translate(-68.94 -191.95)"/><path class="cls-3" d="M676.8,495v13H663.85V495H676.8m1-1H662.85v15H677.8V494Z" transform="translate(-68.94 -191.95)"/><path class="cls-3" d="M668.78,488v6h-4.93v-6h4.93m1-1h-6.93v8h6.93v-8Z" transform="translate(-68.94 -191.95)"/><path class="cls-3" d="M808,429v13H796V429h12m1-1H795v15h14V428Z" transform="translate(-68.94 -191.95)"/><path class="cls-3" d="M923,492v12H910V492h13m1-1H909v14h15V491Z" transform="translate(-68.94 -191.95)"/><path class="cls-3" d="M923,502v2H910v-2h13m1-1H909v4h15v-4Z" transform="translate(-68.94 -191.95)"/><path class="cls-3" d="M854,614v13.92H839V641H825V614h29m1-1H824v29h16v-13.1h15V613Z" transform="translate(-68.94 -191.95)"/><path class="cls-3" d="M775,614v11H763.87V614H775m1-1H762.87v13H776V613Z" transform="translate(-68.94 -191.95)"/><path class="cls-3" d="M865,486v4H836v-4h29m1-1H835v6h31v-6Z" transform="translate(-68.94 -191.95)"/><path class="cls-3" d="M887,487v2H866v-2h21m1-1H865v4h23v-4Z" transform="translate(-68.94 -191.95)"/><path class="cls-3" d="M861.32,536.1l4.07,16L806.86,567l-4.07-16,58.53-14.92m.72-1.21-60.47,15.4,4.57,17.93,60.47-15.4L862,534.89Z" transform="translate(-68.94 -191.95)"/><line class="cls-4" x1="277.61" y1="525.28" x2="294.92" y2="515.17"/><line class="cls-4" x1="317.56" y1="524.12" x2="301.39" y2="533.72"/><line class="cls-4" x1="124.04" y1="643.62" x2="140.41" y2="659.7"/></g><g id="Outlines"><path class="cls-5" d="M878,422v30h14v2H855V422h23m1-1.05H854V455h39.1V451H879V421Z" transform="translate(-68.94 -191.95)"/><path class="cls-5" d="M611,193l44,33v72h54v77H854v80h54v30H887v6h36.93V627.89H894V698h30v62H854l-88,53H740v23H670V799h-7v48H632v5h30v66.28h0V967H524v62h54v77l-60,38H415l-52-38V975H209V937h23V890h-8v30.91H209V921H133.35v-.07H101V835h4V813h31V750h-6V675H89V582H70V475H224V436H332V375H447V296h34v3h58V257l70-64h2M363,498h46v18h16V505l24-23h21V436h62v46h22l24,23v40h15V529h70V413H616V344H531.93v72.94H363V498m346-54h54V429h45v62h27v-6H825V414H709v30M593,589V574H578v61H508v9h24V752h39v69H517v4h53v65h-6v4h14V873l22-21h9v-5H580V756h27v-5h-6V674h-7v-8h-8V613h76v23h9V613h30v16h62V613H725V506h38V475H709V589H593M247,622h77V602h23V598H309V564h0V552h-6V512h6V475H270V582H247v40m85-58h77v34H386V602h23V713H386v9h23v30h46V690H424V644h53v-9H425V544H409v4H392v11H332v5m445,127V659H701v4H671V652h-9v22H639v66l-10,11h-1.07v5H663v10h7V729h39v22h57l88-53h1V627.89H838.94v63.05H777M170,744h39v54H170v38h39v16h15v7h8V836h69v85h62V890h34v-7H324V722h23v-9H324V650H247v25H170v69m246,92h16v54h31v31h61V894h22v-4h-7V859H447V825h22.94v-4H416v15m-23,193H497V959H393v70M611.34,192h-2.75l-.3.28-70,64-.34.31v41.4H482v-3H446v79H331v61h-108v39h-154V583H88v93h41v75h6v60.91h-31v22h-4v88H132.3V922h77.75V922h15V891.05h5.92v44.88H208V976H362v130.44l.43.32,52,38,.28.2H518.29l.26-.16,60-38.05.49-.31v-78.59H525V968H663V851H633.07v-2.89h31V800h4.89v37h72.11V814h25.22l.25-.15,87.77-52.82H925V697H895v-68H925V490H888.05V486h21V454H855V374H710V297H656V225.47l-.42-.31-44-33-.28-.21ZM533,345.05h82v69h47V528H592v16H579.06V504.56l-.33-.31-24-23-.3-.29H533v-46H469v46H448.58l-.31.29-24,23-.33.31v10.38H410V497h-46V418H533V345.05Zm177,70H824v71h10V490H809.05V428H761.94v15H710V415.06Zm0,61h51.91V505h-38v109.1h37.95V628H702V612H670v23H663V612H585V667h8v8h7v77h6V755H579v93.11h29V851h-8.36l-.3.29-22,21-.32.31v20.38H565V891h6V824H518V822h54V751h-39v-108H509v-6.89h70v-61H592v15H710V476Zm-439,0H308V511h-6v42.1h6v9.88l0,1.05v35h38v2H323v20H248V583h23v-107Zm139,69H424v91h52v6.89H423v48.11h31V751H410V721H387v-6.9h23V601H387v-2h23V562.93H333v-2.88h60V549h17v-4Zm430,83.9h14v68h-.24l-.25.15-87.77,52.84H710v-22H668.94v37h-4.89V755H629V752h.48l.31-.34,10-11,.27-.3V675h23V653H670v11H702v-4h73.9V692H840v-63ZM248,651H323v63h23V721h-23V884h73V889h-34v31H302V835H230.93v23H225v-7h-15V835H171V799h39V742.93H171V676h77V651ZM417,822h51.85V824H446V860h92v31h7v1.91H523v27H464V889H433V835H417V822Zm-23,138H495.91v67.89H394V960.05Z" transform="translate(-68.94 -191.95)"/></g><g id="Callouts_copy" data-name="Callouts copy"><path class="cls-6" d="M419.73,1090.7a2,2,0,0,1,.12-.61l2.5-6.81a1.52,1.52,0,0,1,2.91,0l2.51,6.82a1.72,1.72,0,0,1,.13.61.89.89,0,0,1-1,.9c-.54,0-.83-.25-1-.84l-.48-1.45h-3.31l-.48,1.43c-.18.61-.47.86-1,.86A.87.87,0,0,1,419.73,1090.7Zm5.28-2.88-1.21-3.75h0l-1.19,3.75Z" transform="translate(-68.94 -191.95)"/><path class="cls-6" d="M429,1086.07h-.36a.7.7,0,1,1,0-1.4H429v-.75a.93.93,0,1,1,1.85,0v.75h.66a.7.7,0,1,1,0,1.4h-.66v3.26c0,.48.17.68.57.71l.12,0c.45,0,.7.24.7.67s-.53.83-1.31.83h-.07a1.64,1.64,0,0,1-1.86-1.82Z" transform="translate(-68.94 -191.95)"/><path class="cls-6" d="M433.57,1086.07h-.36a.7.7,0,1,1,0-1.4h.36v-.75a.93.93,0,1,1,1.85,0v.75h.66a.7.7,0,1,1,0,1.4h-.66v3.26c0,.48.17.68.57.71l.12,0c.46,0,.7.24.7.67s-.53.83-1.31.83h-.06a1.64,1.64,0,0,1-1.87-1.82Z" transform="translate(-68.94 -191.95)"/><path class="cls-6" d="M437.37,1089.52c0-1.23.95-2,2.65-2l1.71-.1v-.45c0-.64-.44-1-1.14-1a1.5,1.5,0,0,0-1.32.72.93.93,0,0,1-.74.34.71.71,0,0,1-.77-.71,1.06,1.06,0,0,1,.09-.42c.32-.81,1.41-1.31,2.82-1.31,1.75,0,2.88.9,2.88,2.27v3.88a.84.84,0,0,1-.9.93.82.82,0,0,1-.89-.82v-.35h0a2.36,2.36,0,0,1-2.09,1.15A2.1,2.1,0,0,1,437.37,1089.52Zm4.36-.53v-.5l-1.43.09c-.69.05-1.09.36-1.09.84s.42.83,1,.83A1.36,1.36,0,0,0,441.73,1089Z" transform="translate(-68.94 -191.95)"/><path class="cls-6" d="M444.5,1088.08a3.22,3.22,0,0,1,3.34-3.55,3,3,0,0,1,2.87,1.62,1.42,1.42,0,0,1,.1.46.72.72,0,0,1-.79.72.8.8,0,0,1-.78-.48,1.46,1.46,0,0,0-1.34-.87c-.94,0-1.52.78-1.52,2.09s.58,2.1,1.5,2.1a1.47,1.47,0,0,0,1.34-.8.9.9,0,0,1,.84-.54.73.73,0,0,1,.78.74,1.21,1.21,0,0,1-.12.48,3.1,3.1,0,0,1-2.87,1.58A3.21,3.21,0,0,1,444.5,1088.08Z" transform="translate(-68.94 -191.95)"/><path class="cls-6" d="M451.88,1090.65v-7.5a.93.93,0,1,1,1.85,0v4.22h0l2.46-2.47a1,1,0,0,1,.73-.36.79.79,0,0,1,.83.8.84.84,0,0,1-.35.7l-1.73,1.64,1.9,2.42a1,1,0,0,1,.26.68.83.83,0,0,1-.89.83c-.39,0-.61-.14-.9-.57l-1.75-2.32-.59.55v1.38a.93.93,0,1,1-1.85,0Z" transform="translate(-68.94 -191.95)"/><path class="cls-6" d="M458.26,1088.11c0-2.19,1.28-3.58,3.29-3.58a3,3,0,0,1,3.22,3.17.73.73,0,0,1-.8.8h-3.89v.08a1.51,1.51,0,0,0,1.55,1.67,1.93,1.93,0,0,0,1.63-.81.73.73,0,0,1,.6-.28.67.67,0,0,1,.72.68,1,1,0,0,1-.12.45,3.07,3.07,0,0,1-2.82,1.34A3.17,3.17,0,0,1,458.26,1088.11Zm4.73-.74a1.41,1.41,0,0,0-1.42-1.47,1.48,1.48,0,0,0-1.47,1.47Z" transform="translate(-68.94 -191.95)"/><path class="cls-6" d="M465.73,1090.65v-5.18a.89.89,0,1,1,1.77,0v.44h0a1.49,1.49,0,0,1,1.41-1.34.84.84,0,0,1,.58.17,1,1,0,0,1,0,1.35,1.24,1.24,0,0,1-.81.24c-.84,0-1.14.49-1.14,1.3v3a.93.93,0,1,1-1.85,0Z" transform="translate(-68.94 -191.95)"/><path class="cls-6" d="M473.06,1089.87a1.49,1.49,0,0,1-.1-.51.8.8,0,0,1,.85-.84.92.92,0,0,1,.88.55,1.9,1.9,0,0,0,1.89,1c1,0,1.73-.5,1.73-1.17s-.43-.94-1.58-1.18l-1-.19c-1.83-.36-2.73-1.24-2.73-2.6,0-1.68,1.46-2.79,3.5-2.79,1.68,0,2.94.71,3.35,1.9a1.37,1.37,0,0,1,.07.42.75.75,0,0,1-.82.77,1,1,0,0,1-.92-.56,1.65,1.65,0,0,0-1.68-1c-.95,0-1.57.44-1.57,1.12s.43.91,1.52,1.13l1,.19c1.95.39,2.79,1.17,2.79,2.56,0,1.79-1.41,2.92-3.69,2.92C474.65,1091.63,473.43,1090.88,473.06,1089.87Z" transform="translate(-68.94 -191.95)"/><path class="cls-6" d="M481.23,1092.94v-7.45a.92.92,0,1,1,1.83,0v.37h0a2.21,2.21,0,0,1,2.11-1.29c1.72,0,2.78,1.31,2.78,3.51s-1.05,3.51-2.75,3.51a2.22,2.22,0,0,1-2.11-1.25h0v2.6a.93.93,0,1,1-1.86,0Zm4.87-4.86c0-1.23-.59-2-1.51-2s-1.51.81-1.51,2,.6,2,1.51,2S486.1,1089.32,486.1,1088.08Z" transform="translate(-68.94 -191.95)"/><path class="cls-6" d="M488.68,1089.52c0-1.23.95-2,2.65-2l1.72-.1v-.45c0-.64-.45-1-1.15-1a1.51,1.51,0,0,0-1.32.72.91.91,0,0,1-.73.34.72.72,0,0,1-.78-.71,1.07,1.07,0,0,1,.1-.42c.32-.81,1.41-1.31,2.82-1.31,1.74,0,2.88.9,2.88,2.27v3.88a.84.84,0,0,1-.9.93.82.82,0,0,1-.89-.82v-.35h0a2.36,2.36,0,0,1-2.08,1.15A2.1,2.1,0,0,1,488.68,1089.52Zm4.37-.53v-.5l-1.44.09c-.69.05-1.08.36-1.08.84s.42.83,1,.83A1.37,1.37,0,0,0,493.05,1089Z" transform="translate(-68.94 -191.95)"/><path class="cls-6" d="M497.14,1090.64l-1.37-4.74a1.9,1.9,0,0,1-.1-.57.81.81,0,0,1,.89-.79.84.84,0,0,1,.87.78l1,4.4h0l1-4.33a1.07,1.07,0,0,1,2.09,0l1.06,4.33h0l1-4.41a.84.84,0,0,1,.86-.77.79.79,0,0,1,.87.78,2,2,0,0,1-.1.57l-1.37,4.75a1.12,1.12,0,0,1-1.19,1,1.09,1.09,0,0,1-1.2-1l-1-4h0l-1,4a1.09,1.09,0,0,1-1.18,1C497.67,1091.61,497.34,1091.31,497.14,1090.64Z" transform="translate(-68.94 -191.95)"/><path class="cls-6" d="M506.3,1090.65v-5.18a.84.84,0,0,1,.9-.93.86.86,0,0,1,.92.93v.39h0a2.08,2.08,0,0,1,2.1-1.31,2.24,2.24,0,0,1,2.36,2.54v3.56a.93.93,0,1,1-1.86,0v-3.17c0-.89-.42-1.4-1.25-1.4a1.35,1.35,0,0,0-1.36,1.5v3.07a.93.93,0,1,1-1.85,0Z" transform="translate(-68.94 -191.95)"/><path class="cls-7" d="M855.59,474.31v-5.69a.74.74,0,1,1,1.47,0v2.18h3.17v-2.18a.74.74,0,1,1,1.48,0v5.69a.74.74,0,1,1-1.48,0V472h-3.17v2.29a.74.74,0,1,1-1.47,0Z" transform="translate(-68.94 -191.95)"/><path class="cls-7" d="M862.57,472.4a2.47,2.47,0,0,1,2.53-2.76,2.35,2.35,0,0,1,2.48,2.44.57.57,0,0,1-.62.62h-3v.06a1.17,1.17,0,0,0,1.19,1.29,1.49,1.49,0,0,0,1.25-.63.57.57,0,0,1,.47-.21.51.51,0,0,1,.55.52.69.69,0,0,1-.1.35,2.34,2.34,0,0,1-2.16,1A2.43,2.43,0,0,1,862.57,472.4Zm3.64-.58a1.08,1.08,0,0,0-1.1-1.12,1.13,1.13,0,0,0-1.13,1.12Z" transform="translate(-68.94 -191.95)"/><path class="cls-7" d="M868.11,473.48c0-1,.73-1.5,2-1.58l1.31-.08v-.34c0-.49-.34-.77-.87-.77a1.15,1.15,0,0,0-1,.55.75.75,0,0,1-.57.26.54.54,0,0,1-.59-.54.75.75,0,0,1,.07-.33,2.22,2.22,0,0,1,2.17-1c1.34,0,2.22.7,2.22,1.75v3a.65.65,0,0,1-.7.72.63.63,0,0,1-.68-.63v-.27h0a1.82,1.82,0,0,1-1.6.88A1.61,1.61,0,0,1,868.11,473.48Zm3.35-.41v-.38l-1.1.07c-.53,0-.83.28-.83.65s.32.63.8.63A1,1,0,0,0,871.46,473.07Z" transform="translate(-68.94 -191.95)"/><path class="cls-7" d="M874.93,474.36l-1.37-3.65a1.48,1.48,0,0,1-.07-.42.65.65,0,0,1,.71-.64.66.66,0,0,1,.68.57l1.06,3.51h0L877,470.2a.66.66,0,0,1,.67-.55.64.64,0,0,1,.69.63,1.34,1.34,0,0,1-.07.4L877,474.36a1,1,0,0,1-1,.73A1,1,0,0,1,874.93,474.36Z" transform="translate(-68.94 -191.95)"/><path class="cls-7" d="M878.7,472.4a2.47,2.47,0,0,1,2.53-2.76,2.35,2.35,0,0,1,2.48,2.44.56.56,0,0,1-.62.62h-3v.06a1.17,1.17,0,0,0,1.19,1.29,1.48,1.48,0,0,0,1.25-.63.59.59,0,0,1,.47-.21.51.51,0,0,1,.55.52.79.79,0,0,1-.09.35,2.37,2.37,0,0,1-2.17,1A2.43,2.43,0,0,1,878.7,472.4Zm3.64-.58a1.07,1.07,0,0,0-1.09-1.12,1.13,1.13,0,0,0-1.13,1.12Z" transform="translate(-68.94 -191.95)"/><path class="cls-7" d="M884.44,474.35v-4a.65.65,0,0,1,.69-.71.66.66,0,0,1,.71.72v.29h0a1.61,1.61,0,0,1,1.62-1,1.72,1.72,0,0,1,1.81,1.95v2.74a.71.71,0,1,1-1.42,0v-2.44c0-.68-.33-1.07-1-1.07a1,1,0,0,0-1,1.15v2.36a.67.67,0,0,1-.71.74A.67.67,0,0,1,884.44,474.35Z" transform="translate(-68.94 -191.95)"/><path class="cls-7" d="M652.3,562.26a1.32,1.32,0,0,1,.1-.46l1.92-5.24a1.17,1.17,0,0,1,2.24,0l1.93,5.25a1.24,1.24,0,0,1,.09.46.69.69,0,0,1-.73.7c-.42,0-.64-.19-.77-.65l-.37-1.11h-2.54l-.38,1.09c-.13.47-.35.67-.74.67A.68.68,0,0,1,652.3,562.26Zm4.07-2.21-.94-2.88h0l-.91,2.88Z" transform="translate(-68.94 -191.95)"/><path class="cls-7" d="M661.46,562.09v-5.6a.74.74,0,1,1,1.47,0v5.15h2.5a.62.62,0,1,1,0,1.23h-3.24A.69.69,0,0,1,661.46,562.09Z" transform="translate(-68.94 -191.95)"/><path class="cls-7" d="M666.74,556.24a.76.76,0,0,1,1.52,0,.76.76,0,0,1-1.52,0Zm0,6v-4a.71.71,0,1,1,1.42,0v4a.71.71,0,1,1-1.42,0Z" transform="translate(-68.94 -191.95)"/><path class="cls-7" d="M669.16,562.23v-4a.65.65,0,0,1,.69-.72.67.67,0,0,1,.71.73v.29h0a1.61,1.61,0,0,1,1.61-1,1.73,1.73,0,0,1,1.82,2v2.74a.72.72,0,1,1-1.43,0v-2.44c0-.68-.32-1.08-1-1.08a1,1,0,0,0-1,1.15v2.37a.72.72,0,1,1-1.43,0Z" transform="translate(-68.94 -191.95)"/><path class="cls-7" d="M675,562.23v-5.77a.71.71,0,1,1,1.42,0v3.25h0l1.9-1.9a.74.74,0,0,1,.56-.29.62.62,0,0,1,.64.62.66.66,0,0,1-.27.54l-1.33,1.26,1.46,1.86a.82.82,0,0,1,.2.52.64.64,0,0,1-.68.65c-.31,0-.48-.11-.7-.45l-1.34-1.77-.46.42v1.06a.71.71,0,1,1-1.42,0Z" transform="translate(-68.94 -191.95)"/><path class="cls-7" d="M478.89,843.34,477.42,838a2,2,0,0,1-.08-.49.65.65,0,0,1,.73-.67.7.7,0,0,1,.71.64l1.05,4.56h0l1.19-4.54c.11-.46.34-.66.75-.66a.73.73,0,0,1,.75.65l1.19,4.55h0l1-4.56a.7.7,0,0,1,.72-.64.65.65,0,0,1,.73.67,2.14,2.14,0,0,1-.08.49l-1.48,5.34c-.14.52-.4.74-.85.74s-.73-.22-.88-.75l-1.17-4.16h0l-1.17,4.16c-.14.52-.4.75-.87.75S479,843.87,478.89,843.34Z" transform="translate(-68.94 -191.95)"/><path class="cls-7" d="M487.08,837.38a.76.76,0,1,1,.76.73A.74.74,0,0,1,487.08,837.38Zm.05,6v-4a.71.71,0,1,1,1.42,0v4a.71.71,0,1,1-1.42,0Z" transform="translate(-68.94 -191.95)"/><path class="cls-7" d="M489.5,843.36v-4a.65.65,0,0,1,.69-.71.66.66,0,0,1,.71.72v.29h0a1.59,1.59,0,0,1,1.61-1,1.73,1.73,0,0,1,1.82,2v2.74a.67.67,0,0,1-.72.74.67.67,0,0,1-.71-.74v-2.44c0-.68-.32-1.07-1-1.07a1,1,0,0,0-1.05,1.14v2.37a.71.71,0,1,1-1.42,0Z" transform="translate(-68.94 -191.95)"/><path class="cls-7" d="M495.07,841.37c0-1.66.83-2.69,2.14-2.69a1.68,1.68,0,0,1,1.6,1h0v-2.07a.71.71,0,1,1,1.42,0v5.79a.66.66,0,0,1-.7.72.67.67,0,0,1-.72-.72v-.31h0a1.64,1.64,0,0,1-1.61,1C495.89,844.08,495.07,843,495.07,841.37Zm3.78,0c0-1-.46-1.56-1.16-1.56s-1.16.6-1.16,1.56.44,1.55,1.16,1.55S498.85,842.34,498.85,841.38Z" transform="translate(-68.94 -191.95)"/><path class="cls-7" d="M501,841.38a2.59,2.59,0,1,1,2.59,2.73A2.48,2.48,0,0,1,501,841.38Zm3.73,0c0-1-.45-1.64-1.14-1.64s-1.15.6-1.15,1.64.45,1.64,1.15,1.64S504.76,842.43,504.76,841.38Z" transform="translate(-68.94 -191.95)"/><path class="cls-7" d="M507.75,843.35l-1.05-3.64a1.37,1.37,0,0,1-.08-.44.63.63,0,0,1,.69-.61.65.65,0,0,1,.66.6l.78,3.38h0l.81-3.33a.82.82,0,0,1,1.6,0l.82,3.33h0l.78-3.39a.65.65,0,0,1,.66-.59.61.61,0,0,1,.67.6,1.37,1.37,0,0,1-.08.44L513,843.35a.87.87,0,0,1-.91.75.84.84,0,0,1-.93-.76l-.79-3h0l-.79,3.05a.85.85,0,0,1-.92.75C508.16,844.1,507.9,843.87,507.75,843.35Z" transform="translate(-68.94 -191.95)"/><path class="cls-7" d="M347.35,848.43c0-2.25,1.29-3.62,3.36-3.62a3,3,0,0,1,2.81,1.5,1,1,0,0,1,.11.45.61.61,0,0,1-.65.64.77.77,0,0,1-.71-.43,1.66,1.66,0,0,0-1.55-.94c-1.16,0-1.86.88-1.86,2.38s.74,2.46,1.91,2.46a1.52,1.52,0,0,0,1.66-1.46v-.11h-1a.54.54,0,1,1,0-1.08h1.73a.69.69,0,0,1,.73.77v.11a2.83,2.83,0,0,1-3.12,3C348.64,852.09,347.35,850.72,347.35,848.43Z" transform="translate(-68.94 -191.95)"/><path class="cls-7" d="M354.72,851.34v-4a.69.69,0,1,1,1.37,0v.35h0a1.16,1.16,0,0,1,1.09-1,.67.67,0,0,1,.45.13.78.78,0,0,1,0,1,1,1,0,0,1-.62.19c-.65,0-.88.37-.88,1v2.33a.67.67,0,0,1-.71.74A.68.68,0,0,1,354.72,851.34Z" transform="translate(-68.94 -191.95)"/><path class="cls-7" d="M358,850.47c0-1,.74-1.5,2-1.58l1.32-.08v-.34c0-.49-.34-.77-.88-.77a1.14,1.14,0,0,0-1,.55.75.75,0,0,1-.57.26.55.55,0,0,1-.59-.55.74.74,0,0,1,.07-.32c.24-.62,1.08-1,2.17-1,1.34,0,2.21.69,2.21,1.75v3a.64.64,0,0,1-.69.72.63.63,0,0,1-.68-.63v-.27h0a1.82,1.82,0,0,1-1.6.88A1.62,1.62,0,0,1,358,850.47Zm3.36-.41v-.38l-1.1.07c-.53,0-.84.27-.84.65s.33.63.81.63A1,1,0,0,0,361.39,850.06Z" transform="translate(-68.94 -191.95)"/><path class="cls-7" d="M363.6,851a.65.65,0,0,1-.06-.26.54.54,0,0,1,.58-.55.82.82,0,0,1,.62.33,1.29,1.29,0,0,0,1.14.53c.52,0,.85-.22.85-.56s-.18-.44-.69-.55l-.88-.19c-1-.21-1.54-.74-1.54-1.51,0-1,.86-1.65,2.22-1.65a2,2,0,0,1,2.05,1.08,1,1,0,0,1,0,.21c0,.29-.18.49-.55.49a.69.69,0,0,1-.52-.22,1.25,1.25,0,0,0-1-.56c-.49,0-.82.23-.82.57s.2.45.72.56l.87.19c1.11.23,1.57.64,1.57,1.43,0,1-.93,1.71-2.31,1.71C364.65,852.09,363.84,851.66,363.6,851Z" transform="translate(-68.94 -191.95)"/><path class="cls-7" d="M368.75,851a.65.65,0,0,1-.06-.26.54.54,0,0,1,.58-.55.82.82,0,0,1,.62.33,1.29,1.29,0,0,0,1.14.53c.52,0,.86-.22.86-.56s-.18-.44-.7-.55l-.88-.19c-1-.21-1.54-.74-1.54-1.51,0-1,.87-1.65,2.22-1.65a2,2,0,0,1,2.05,1.08,1,1,0,0,1,0,.21c0,.29-.18.49-.55.49a.7.7,0,0,1-.52-.22,1.25,1.25,0,0,0-1-.56c-.49,0-.82.23-.82.57s.2.45.73.56l.86.19c1.11.23,1.57.64,1.57,1.43,0,1-.93,1.71-2.31,1.71C369.8,852.09,369,851.66,368.75,851Z" transform="translate(-68.94 -191.95)"/><path class="cls-7" d="M485.39,725.08v-5.6a.87.87,0,0,1,.95-1,1,1,0,0,1,1,.76l1.75,4.33h0l1.74-4.33a1,1,0,0,1,1-.76.87.87,0,0,1,1,1v5.6a.66.66,0,1,1-1.31,0v-4.16h0l-1.75,4.26a.61.61,0,0,1-.62.45.63.63,0,0,1-.64-.44l-1.75-4.27h0v4.16a.66.66,0,1,1-1.31,0Z" transform="translate(-68.94 -191.95)"/><path class="cls-7" d="M493.88,719.05a.76.76,0,0,1,1.52,0,.76.76,0,0,1-1.52,0Zm0,6v-3.95a.72.72,0,1,1,1.43,0V725a.72.72,0,1,1-1.43,0Z" transform="translate(-68.94 -191.95)"/><path class="cls-7" d="M496.11,723.05c0-1.66.83-2.69,2.14-2.69a1.69,1.69,0,0,1,1.6,1h0v-2.07a.71.71,0,1,1,1.42,0v5.78a.71.71,0,1,1-1.42,0v-.3h0a1.64,1.64,0,0,1-1.61,1C496.93,725.76,496.11,724.72,496.11,723.05Zm3.78,0c0-1-.46-1.56-1.17-1.56s-1.15.6-1.15,1.56.44,1.55,1.15,1.55S499.89,724,499.89,723.06Z" transform="translate(-68.94 -191.95)"/><path class="cls-7" d="M610.62,647.4a1.37,1.37,0,0,1,.1-.47l1.92-5.24a1.17,1.17,0,0,1,2.24,0l1.93,5.24a1.25,1.25,0,0,1,.09.47.68.68,0,0,1-.73.69c-.42,0-.64-.19-.77-.65l-.37-1.11h-2.54l-.38,1.1c-.13.47-.35.66-.74.66A.67.67,0,0,1,610.62,647.4Zm4.07-2.21-.94-2.89h0l-.91,2.89Z" transform="translate(-68.94 -191.95)"/><path class="cls-7" d="M619.68,646.77a1.14,1.14,0,0,1-.08-.4.62.62,0,0,1,.65-.65.7.7,0,0,1,.68.43,1.45,1.45,0,0,0,1.46.78c.79,0,1.33-.38,1.33-.9s-.34-.72-1.22-.91l-.75-.14c-1.4-.28-2.09-1-2.09-2,0-1.29,1.12-2.15,2.69-2.15a2.49,2.49,0,0,1,2.57,1.46.84.84,0,0,1,.06.33.58.58,0,0,1-.63.59.73.73,0,0,1-.71-.43,1.27,1.27,0,0,0-1.29-.76c-.73,0-1.21.35-1.21.86s.33.71,1.17.87l.74.15c1.5.3,2.14.9,2.14,2,0,1.38-1.08,2.25-2.84,2.25C620.9,648.12,620,647.54,619.68,646.77Z" transform="translate(-68.94 -191.95)"/><path class="cls-7" d="M626,647.36v-5.78a.7.7,0,1,1,1.4,0v2.12h0a1.67,1.67,0,0,1,1.65-1,1.74,1.74,0,0,1,1.82,2v2.73a.71.71,0,1,1-1.42,0v-2.43c0-.67-.33-1.08-1-1.08a1,1,0,0,0-1.07,1.16v2.35a.72.72,0,1,1-1.43,0Z" transform="translate(-68.94 -191.95)"/><path class="cls-7" d="M631.62,645.38a2.6,2.6,0,1,1,2.59,2.73A2.48,2.48,0,0,1,631.62,645.38Zm3.74,0c0-1-.45-1.64-1.15-1.64s-1.14.6-1.14,1.64.44,1.64,1.14,1.64S635.36,646.43,635.36,645.38Z" transform="translate(-68.94 -191.95)"/><path class="cls-7" d="M637.54,647.36v-4a.65.65,0,0,1,.69-.72.64.64,0,0,1,.67.72v.34h0a1.16,1.16,0,0,1,1.09-1,.7.7,0,0,1,.44.13.64.64,0,0,1,.21.53.61.61,0,0,1-.21.51.9.9,0,0,1-.62.19c-.65,0-.88.38-.88,1v2.32a.71.71,0,1,1-1.42,0Z" transform="translate(-68.94 -191.95)"/><path class="cls-7" d="M641.56,643.84h-.28a.54.54,0,1,1,0-1.07h.28v-.58a.71.71,0,1,1,1.42,0v.58h.51a.54.54,0,1,1,0,1.07H643v2.51c0,.37.13.52.44.55h.09c.35,0,.54.18.54.51s-.41.64-1,.64h0a1.25,1.25,0,0,1-1.43-1.4Z" transform="translate(-68.94 -191.95)"/><path class="cls-7" d="M601.29,793.43a1.59,1.59,0,0,1,.09-.47l1.93-5.24a1.16,1.16,0,0,1,2.23,0l1.94,5.24a1.54,1.54,0,0,1,.09.47.69.69,0,0,1-.74.7c-.41,0-.63-.19-.76-.65l-.38-1.12h-2.54l-.37,1.1c-.14.47-.36.67-.75.67A.67.67,0,0,1,601.29,793.43Zm4.06-2.21-.93-2.88h0l-.92,2.88Z" transform="translate(-68.94 -191.95)"/><path class="cls-7" d="M610.44,793.44v-5.6a.87.87,0,0,1,.95-1,1,1,0,0,1,1,.76l1.75,4.33h0l1.74-4.33a1,1,0,0,1,1-.76.87.87,0,0,1,.95,1v5.6a.66.66,0,1,1-1.31,0v-4.16h0l-1.74,4.26a.63.63,0,0,1-.63.45.62.62,0,0,1-.64-.45l-1.75-4.26h0v4.16a.66.66,0,1,1-1.31,0Z" transform="translate(-68.94 -191.95)"/><path class="cls-7" d="M618.64,792.53c0-.95.73-1.5,2-1.58l1.32-.08v-.35c0-.48-.34-.77-.88-.77a1.15,1.15,0,0,0-1,.55.69.69,0,0,1-.56.27.56.56,0,0,1-.6-.55.88.88,0,0,1,.07-.32,2.2,2.2,0,0,1,2.17-1c1.35,0,2.22.69,2.22,1.75v3a.65.65,0,0,1-.69.72.64.64,0,0,1-.69-.64v-.27h0a1.79,1.79,0,0,1-1.6.89A1.62,1.62,0,0,1,618.64,792.53Zm3.36-.41v-.39l-1.11.07c-.53,0-.83.28-.83.65s.32.64.8.64A1,1,0,0,0,622,792.12Z" transform="translate(-68.94 -191.95)"/><path class="cls-7" d="M624.29,787.41a.77.77,0,0,1,1.53,0,.77.77,0,0,1-1.53,0Zm.05,6v-3.95a.67.67,0,0,1,.71-.75.68.68,0,0,1,.72.75v3.95a.68.68,0,0,1-.72.75A.67.67,0,0,1,624.34,793.39Z" transform="translate(-68.94 -191.95)"/><path class="cls-7" d="M626.71,793.39v-4a.65.65,0,0,1,.69-.72.67.67,0,0,1,.72.72v.3h0a1.59,1.59,0,0,1,1.61-1,1.72,1.72,0,0,1,1.81,2v2.73a.71.71,0,1,1-1.42,0V791c0-.69-.32-1.08-1-1.08a1,1,0,0,0-1.05,1.15v2.36a.67.67,0,0,1-.71.75A.68.68,0,0,1,626.71,793.39Z" transform="translate(-68.94 -191.95)"/><path class="cls-8" d="M548.24,279.78v-7.16a.9.9,0,0,1,1-1h2.54c2.75,0,4.37,1.64,4.37,4.55s-1.62,4.61-4.37,4.61H549.2A.9.9,0,0,1,548.24,279.78Zm3.27-.59c1.72,0,2.64-1,2.64-3s-.95-3-2.64-3h-1.35v6Z" transform="translate(-68.94 -191.95)"/><path class="cls-8" d="M556.93,277.41c0-2.19,1.28-3.58,3.29-3.58a3.06,3.06,0,0,1,3.23,3.17.73.73,0,0,1-.81.8h-3.88v.09a1.51,1.51,0,0,0,1.54,1.67,1.94,1.94,0,0,0,1.63-.82.74.74,0,0,1,.6-.28.68.68,0,0,1,.73.68,1,1,0,0,1-.13.45,3.06,3.06,0,0,1-2.82,1.34A3.17,3.17,0,0,1,556.93,277.41Zm4.73-.74a1.4,1.4,0,0,0-1.42-1.47,1.46,1.46,0,0,0-1.46,1.47Z" transform="translate(-68.94 -191.95)"/><path class="cls-8" d="M564.89,280v-4.58h-.35a.68.68,0,0,1,0-1.36h.35v-.52a1.72,1.72,0,0,1,2-1.95c1,0,1.39.31,1.39.75a.47.47,0,0,1-.37.49l-.36.05c-.57,0-.8.25-.8.75V274h.78a.68.68,0,1,1,0,1.36h-.73V280a.93.93,0,1,1-1.86,0Z" transform="translate(-68.94 -191.95)"/><path class="cls-8" d="M568.59,277.41c0-2.19,1.27-3.58,3.29-3.58A3,3,0,0,1,575.1,277a.73.73,0,0,1-.81.8h-3.88v.09a1.51,1.51,0,0,0,1.55,1.67,1.92,1.92,0,0,0,1.62-.82.76.76,0,0,1,.61-.28.67.67,0,0,1,.72.68.86.86,0,0,1-.13.45,3,3,0,0,1-2.81,1.34A3.17,3.17,0,0,1,568.59,277.41Zm4.73-.74a1.41,1.41,0,0,0-1.42-1.47,1.47,1.47,0,0,0-1.47,1.47Z" transform="translate(-68.94 -191.95)"/><path class="cls-8" d="M576.05,280v-5.18a.84.84,0,0,1,.9-.93.87.87,0,0,1,.93.94v.38h0a2.09,2.09,0,0,1,2.1-1.31,2.24,2.24,0,0,1,2.36,2.54V280a.93.93,0,1,1-1.85,0v-3.17c0-.89-.42-1.39-1.25-1.39a1.34,1.34,0,0,0-1.36,1.49V280a.93.93,0,1,1-1.86,0Z" transform="translate(-68.94 -191.95)"/><path class="cls-8" d="M583.3,277.37c0-2.16,1.08-3.5,2.78-3.5a2.19,2.19,0,0,1,2.08,1.27h0v-2.69a.93.93,0,1,1,1.85,0V280a.93.93,0,1,1-1.85,0v-.39h0a2.15,2.15,0,0,1-2.1,1.31C584.37,280.89,583.3,279.54,583.3,277.37Zm4.91,0c0-1.24-.59-2-1.51-2s-1.51.78-1.51,2,.58,2,1.51,2S588.21,278.62,588.21,277.38Z" transform="translate(-68.94 -191.95)"/><path class="cls-8" d="M591,277.41c0-2.19,1.28-3.58,3.29-3.58a3,3,0,0,1,3.22,3.17.73.73,0,0,1-.8.8h-3.89v.09a1.51,1.51,0,0,0,1.55,1.67,2,2,0,0,0,1.63-.82.73.73,0,0,1,.6-.28.67.67,0,0,1,.72.68,1,1,0,0,1-.12.45,3.07,3.07,0,0,1-2.82,1.34A3.17,3.17,0,0,1,591,277.41Zm4.73-.74a1.41,1.41,0,0,0-1.42-1.47,1.47,1.47,0,0,0-1.47,1.47Z" transform="translate(-68.94 -191.95)"/><path class="cls-8" d="M598.5,280v-5.18a.85.85,0,0,1,.9-.93.84.84,0,0,1,.88.93v.44h0a1.5,1.5,0,0,1,1.42-1.34.91.91,0,0,1,.58.17.82.82,0,0,1,.26.69.8.8,0,0,1-.26.66,1.24,1.24,0,0,1-.81.24c-.84,0-1.14.49-1.14,1.3v3a.93.93,0,1,1-1.86,0Z" transform="translate(-68.94 -191.95)"/><path class="cls-8" d="M605.84,279.17a1.49,1.49,0,0,1-.1-.51.8.8,0,0,1,.85-.84.92.92,0,0,1,.88.56,1.89,1.89,0,0,0,1.89,1c1,0,1.73-.49,1.73-1.17s-.44-.94-1.58-1.18l-1-.19c-1.82-.36-2.72-1.24-2.72-2.6,0-1.68,1.46-2.79,3.5-2.79,1.67,0,2.94.71,3.34,1.9a1.14,1.14,0,0,1,.07.43.75.75,0,0,1-.81.76A1,1,0,0,1,611,274a1.65,1.65,0,0,0-1.68-1c-.95,0-1.58.45-1.58,1.12s.44.91,1.53,1.13l1,.2c1.95.38,2.78,1.16,2.78,2.55,0,1.79-1.4,2.92-3.68,2.92C607.42,280.93,606.21,280.18,605.84,279.17Z" transform="translate(-68.94 -191.95)"/><path class="cls-8" d="M614,282.24v-7.45a.92.92,0,1,1,1.83,0v.37h0a2.21,2.21,0,0,1,2.11-1.29c1.72,0,2.78,1.31,2.78,3.51s-1,3.51-2.75,3.51a2.24,2.24,0,0,1-2.12-1.25h0v2.6a.93.93,0,1,1-1.86,0Zm4.87-4.86c0-1.23-.59-2-1.52-2s-1.5.81-1.5,2,.6,2,1.5,2S618.88,278.62,618.88,277.38Z" transform="translate(-68.94 -191.95)"/><path class="cls-8" d="M621.46,278.83c0-1.24.95-2,2.65-2.06l1.72-.1v-.45c0-.64-.45-1-1.15-1a1.51,1.51,0,0,0-1.32.72.92.92,0,0,1-.73.34.72.72,0,0,1-.78-.71.92.92,0,0,1,.1-.42c.31-.81,1.41-1.31,2.82-1.31,1.74,0,2.88.9,2.88,2.27V280a.84.84,0,0,1-.9.93.82.82,0,0,1-.89-.82v-.35h0a2.36,2.36,0,0,1-2.08,1.15A2.1,2.1,0,0,1,621.46,278.83Zm4.37-.54v-.5l-1.44.09c-.69.05-1.08.36-1.08.84s.41.83,1,.83A1.37,1.37,0,0,0,625.83,278.29Z" transform="translate(-68.94 -191.95)"/><path class="cls-8" d="M629.92,279.94l-1.37-4.74a1.9,1.9,0,0,1-.1-.57.81.81,0,0,1,.89-.79.86.86,0,0,1,.87.78l1,4.4h0l1-4.33a1.06,1.06,0,0,1,2.08,0l1.07,4.33h0l1-4.41a.85.85,0,0,1,.86-.77.79.79,0,0,1,.87.78,2,2,0,0,1-.1.57l-1.37,4.75a1.13,1.13,0,0,1-1.19,1,1.09,1.09,0,0,1-1.2-1l-1-4h0l-1,4a1.09,1.09,0,0,1-1.19,1C630.45,280.91,630.12,280.62,629.92,279.94Z" transform="translate(-68.94 -191.95)"/><path class="cls-8" d="M639.08,280v-5.18a.84.84,0,0,1,.89-.93.87.87,0,0,1,.93.94v.38h0a2.08,2.08,0,0,1,2.09-1.31,2.25,2.25,0,0,1,2.37,2.54V280a.93.93,0,1,1-1.86,0v-3.17c0-.89-.42-1.39-1.25-1.39a1.35,1.35,0,0,0-1.36,1.49V280a.93.93,0,1,1-1.85,0Z" transform="translate(-68.94 -191.95)"/><path class="cls-7" d="M81.47,529.48v-5.61a.68.68,0,0,1,.74-.76h2.12a2.3,2.3,0,0,1,2.45,2.41,2.35,2.35,0,0,1-2.52,2.41H82.94v1.55a.74.74,0,1,1-1.47,0Zm2.47-2.7a1.26,1.26,0,1,0,0-2.51h-1v2.51Z" transform="translate(-68.94 -191.95)"/><path class="cls-7" d="M87.56,529.51v-5.76a.71.71,0,1,1,1.42,0v5.76a.71.71,0,1,1-1.42,0Z" transform="translate(-68.94 -191.95)"/><path class="cls-7" d="M89.74,528.65c0-.95.73-1.51,2-1.58L93.1,527v-.35c0-.49-.34-.77-.88-.77a1.16,1.16,0,0,0-1,.55.68.68,0,0,1-.56.26.55.55,0,0,1-.6-.54.72.72,0,0,1,.08-.32,2.18,2.18,0,0,1,2.16-1c1.35,0,2.22.7,2.22,1.75v3a.65.65,0,0,1-.69.71.63.63,0,0,1-.69-.63v-.27h0a1.79,1.79,0,0,1-1.6.88A1.62,1.62,0,0,1,89.74,528.65Zm3.36-.42v-.38l-1.1.07c-.54,0-.84.28-.84.65s.32.63.8.63A1,1,0,0,0,93.1,528.23Z" transform="translate(-68.94 -191.95)"/><path class="cls-7" d="M95.8,526h-.27a.54.54,0,1,1,0-1.07h.27v-.58a.72.72,0,1,1,1.43,0v.58h.5a.54.54,0,1,1,0,1.07h-.5v2.51c0,.37.12.52.43.55h.09c.35,0,.54.18.54.52s-.41.63-1,.63h0a1.25,1.25,0,0,1-1.43-1.4Z" transform="translate(-68.94 -191.95)"/><path class="cls-7" d="M134,740.89c0-2.27,1.29-3.64,3.32-3.64a3,3,0,0,1,2.82,1.6,1.21,1.21,0,0,1,.15.56.6.6,0,0,1-.65.63.72.72,0,0,1-.71-.49,1.68,1.68,0,0,0-1.6-1.08c-1.11,0-1.83.94-1.83,2.42s.71,2.43,1.84,2.43a1.64,1.64,0,0,0,1.61-1,.65.65,0,0,1,.65-.47.64.64,0,0,1,.69.66,1.28,1.28,0,0,1-.11.49,2.93,2.93,0,0,1-2.82,1.58C135.3,744.54,134,743.17,134,740.89Z" transform="translate(-68.94 -191.95)"/><path class="cls-7" d="M143.35,743.65v-5.6a.74.74,0,1,1,1.47,0v5.15h2.5a.61.61,0,1,1,0,1.22h-3.24A.68.68,0,0,1,143.35,743.65Z" transform="translate(-68.94 -191.95)"/><path class="cls-7" d="M148.39,741.8a2.6,2.6,0,1,1,2.59,2.73A2.48,2.48,0,0,1,148.39,741.8Zm3.74,0c0-1-.45-1.64-1.15-1.64s-1.14.6-1.14,1.64.44,1.64,1.14,1.64S152.13,742.85,152.13,741.8Z" transform="translate(-68.94 -191.95)"/><path class="cls-7" d="M154.31,743.78v-4a.65.65,0,0,1,.69-.72.66.66,0,0,1,.71.72v.29h0a1.6,1.6,0,0,1,1.61-1,1.73,1.73,0,0,1,1.82,2v2.73a.72.72,0,1,1-1.43,0v-2.44c0-.68-.32-1.07-1-1.07a1,1,0,0,0-1,1.15v2.36a.72.72,0,1,1-1.43,0Z" transform="translate(-68.94 -191.95)"/><path class="cls-7" d="M160.21,745.43a.78.78,0,0,1-.11-.4.53.53,0,0,1,.58-.52.69.69,0,0,1,.49.2,1.73,1.73,0,0,0,1.24.57c.78,0,1.24-.42,1.24-1.07v-.84h0a1.71,1.71,0,0,1-1.62.94c-1.3,0-2.12-1-2.12-2.6s.8-2.61,2.15-2.61a1.71,1.71,0,0,1,1.6,1h0v-.29a.71.71,0,1,1,1.42,0v4.41c0,1.37-1,2.19-2.67,2.18A2.53,2.53,0,0,1,160.21,745.43Zm3.45-3.7c0-.94-.46-1.54-1.17-1.54s-1.15.59-1.15,1.54.44,1.52,1.15,1.52S163.66,742.68,163.66,741.73Z" transform="translate(-68.94 -191.95)"/><path class="cls-7" d="M232.54,529.38v-5.6a.74.74,0,1,1,1.47,0v5.15h2.5a.61.61,0,1,1,0,1.22h-3.23A.69.69,0,0,1,232.54,529.38Z" transform="translate(-68.94 -191.95)"/><path class="cls-7" d="M237.58,527.53a2.6,2.6,0,1,1,2.59,2.73A2.48,2.48,0,0,1,237.58,527.53Zm3.74,0c0-1-.45-1.64-1.15-1.64s-1.14.6-1.14,1.64.44,1.64,1.14,1.64S241.32,528.58,241.32,527.53Z" transform="translate(-68.94 -191.95)"/><path class="cls-7" d="M243.64,531.16a.76.76,0,0,1-.11-.4.52.52,0,0,1,.58-.52.69.69,0,0,1,.49.2,1.78,1.78,0,0,0,1.23.58c.79,0,1.24-.43,1.24-1.08v-.84h0a1.69,1.69,0,0,1-1.61.94c-1.3,0-2.12-1-2.12-2.59s.8-2.62,2.15-2.62a1.69,1.69,0,0,1,1.59,1h0v-.29a.67.67,0,0,1,.72-.72.66.66,0,0,1,.71.72V530c0,1.36-1,2.18-2.67,2.17A2.53,2.53,0,0,1,243.64,531.16Zm3.45-3.69c0-1-.46-1.55-1.17-1.55s-1.15.59-1.15,1.54.44,1.52,1.15,1.52S247.09,528.41,247.09,527.47Z" transform="translate(-68.94 -191.95)"/><path class="cls-7" d="M249.32,529.22a.69.69,0,0,1-.06-.26.54.54,0,0,1,.58-.55.81.81,0,0,1,.62.32,1.26,1.26,0,0,0,1.14.53c.52,0,.86-.21.86-.56s-.19-.43-.7-.55l-.88-.18c-1-.22-1.54-.74-1.54-1.52,0-1,.86-1.65,2.22-1.65a2,2,0,0,1,2.05,1.09.78.78,0,0,1,0,.21c0,.29-.18.49-.55.49a.69.69,0,0,1-.52-.22,1.22,1.22,0,0,0-1-.56c-.49,0-.82.23-.82.56s.2.46.72.57l.87.18c1.11.24,1.57.65,1.57,1.43,0,1-.93,1.71-2.31,1.71C250.37,530.26,249.56,529.83,249.32,529.22Z" transform="translate(-68.94 -191.95)"/><path class="cls-7" d="M780.86,767.51a1.65,1.65,0,0,1,.1-.47l1.93-5.24a1.16,1.16,0,0,1,2.23,0l1.94,5.24a1.54,1.54,0,0,1,.09.47.69.69,0,0,1-.74.7c-.41,0-.63-.2-.77-.65l-.37-1.12h-2.54l-.37,1.1c-.14.47-.36.67-.75.67A.68.68,0,0,1,780.86,767.51Zm4.07-2.21-.93-2.89h0l-.91,2.89Z" transform="translate(-68.94 -191.95)"/><path class="cls-7" d="M790,767.34v-5.6a.74.74,0,1,1,1.47,0v5.15H794a.61.61,0,1,1,0,1.22h-3.23A.69.69,0,0,1,790,767.34Z" transform="translate(-68.94 -191.95)"/><path class="cls-7" d="M795.06,765.49a2.6,2.6,0,1,1,2.6,2.73A2.48,2.48,0,0,1,795.06,765.49Zm3.74,0c0-1-.45-1.65-1.14-1.65s-1.15.61-1.15,1.65.44,1.64,1.15,1.64S798.8,766.54,798.8,765.5Z" transform="translate(-68.94 -191.95)"/><path class="cls-7" d="M801,767.47v-4a.65.65,0,0,1,.69-.72.66.66,0,0,1,.71.72v.3h0a1.61,1.61,0,0,1,1.61-1,1.72,1.72,0,0,1,1.82,2v2.73a.72.72,0,1,1-1.43,0V765c0-.69-.32-1.08-1-1.08a1,1,0,0,0-1,1.15v2.36a.72.72,0,1,1-1.43,0Z" transform="translate(-68.94 -191.95)"/><path class="cls-7" d="M806.88,769.12a.76.76,0,0,1-.11-.4.53.53,0,0,1,.58-.52.68.68,0,0,1,.5.21,1.77,1.77,0,0,0,1.23.57c.78,0,1.24-.43,1.24-1.08v-.84h0a1.71,1.71,0,0,1-1.61.94c-1.31,0-2.13-1-2.13-2.59s.8-2.62,2.15-2.62a1.71,1.71,0,0,1,1.6,1h0v-.29a.71.71,0,1,1,1.42,0v4.42c0,1.36-1,2.18-2.67,2.17A2.52,2.52,0,0,1,806.88,769.12Zm3.45-3.69c0-.95-.46-1.55-1.17-1.55s-1.15.59-1.15,1.54.44,1.52,1.15,1.52S810.33,766.37,810.33,765.43Z" transform="translate(-68.94 -191.95)"/><path class="cls-7" d="M593.3,920.38a1.54,1.54,0,0,1,.09-.47l1.93-5.24a1.16,1.16,0,0,1,2.23,0l1.94,5.25a1.25,1.25,0,0,1,.09.47.69.69,0,0,1-.74.69c-.41,0-.63-.19-.76-.65l-.37-1.11h-2.55l-.37,1.1c-.14.47-.36.66-.75.66A.67.67,0,0,1,593.3,920.38Zm4.06-2.21-.93-2.89h0l-.92,2.89Z" transform="translate(-68.94 -191.95)"/><path class="cls-7" d="M602.45,920.21v-5.6a.74.74,0,1,1,1.48,0v5.15h2.5a.61.61,0,1,1,0,1.22h-3.24A.69.69,0,0,1,602.45,920.21Z" transform="translate(-68.94 -191.95)"/><path class="cls-7" d="M607.5,918.36a2.59,2.59,0,1,1,2.59,2.73A2.48,2.48,0,0,1,607.5,918.36Zm3.73,0c0-1-.45-1.64-1.14-1.64s-1.15.6-1.15,1.64.44,1.64,1.15,1.64S611.23,919.41,611.23,918.36Z" transform="translate(-68.94 -191.95)"/><path class="cls-7" d="M613.45,920.36v-5.79a.71.71,0,1,1,1.42,0v2.08h0a1.72,1.72,0,0,1,1.62-1c1.32,0,2.13,1,2.13,2.7s-.8,2.7-2.13,2.7a1.74,1.74,0,0,1-1.64-1h0v.28a.7.7,0,1,1-1.4,0Zm3.74-2c0-1-.45-1.56-1.15-1.56s-1.17.62-1.17,1.56.47,1.55,1.17,1.55S617.19,919.32,617.19,918.36Z" transform="translate(-68.94 -191.95)"/><path class="cls-7" d="M619.42,920.36v-5.79a.71.71,0,1,1,1.42,0v2.08h0a1.72,1.72,0,0,1,1.62-1c1.32,0,2.13,1,2.13,2.7s-.8,2.7-2.12,2.7a1.75,1.75,0,0,1-1.65-1h0v.28a.66.66,0,0,1-.71.72A.65.65,0,0,1,619.42,920.36Zm3.74-2c0-1-.45-1.56-1.15-1.56s-1.17.62-1.17,1.56.47,1.55,1.17,1.55S623.16,919.32,623.16,918.36Z" transform="translate(-68.94 -191.95)"/><path class="cls-7" d="M625.16,922.25a.46.46,0,0,1,.52-.47h.25a.72.72,0,0,0,.69-.47l.07-.19-1.67-4.4a1.4,1.4,0,0,1-.08-.42.68.68,0,0,1,.74-.66c.37,0,.57.16.69.57l1.13,3.62h0l1.14-3.63a.65.65,0,0,1,.69-.56.63.63,0,0,1,.69.64,1.35,1.35,0,0,1-.08.42l-1.61,4.37c-.48,1.35-1.09,1.85-2.24,1.85C625.5,922.92,625.16,922.68,625.16,922.25Z" transform="translate(-68.94 -191.95)"/><path class="cls-7" d="M347.35,660.44c0-2.25,1.29-3.62,3.36-3.62a3,3,0,0,1,2.81,1.5,1,1,0,0,1,.11.45.61.61,0,0,1-.65.64.77.77,0,0,1-.71-.43,1.66,1.66,0,0,0-1.55-.94c-1.16,0-1.86.89-1.86,2.38s.74,2.47,1.91,2.47a1.53,1.53,0,0,0,1.66-1.47v-.11h-1a.54.54,0,1,1,0-1.08h1.73a.69.69,0,0,1,.73.77v.11a2.84,2.84,0,0,1-3.12,3C348.64,664.11,347.35,662.73,347.35,660.44Z" transform="translate(-68.94 -191.95)"/><path class="cls-7" d="M354.47,662.48c0-1,.73-1.5,2-1.58l1.32-.08v-.34c0-.49-.34-.77-.88-.77a1.16,1.16,0,0,0-1,.55.71.71,0,0,1-.56.26.55.55,0,0,1-.6-.54.76.76,0,0,1,.08-.33,2.2,2.2,0,0,1,2.16-1c1.35,0,2.22.7,2.22,1.75v3a.65.65,0,0,1-.69.72.63.63,0,0,1-.69-.63v-.27h0a1.81,1.81,0,0,1-1.6.88A1.62,1.62,0,0,1,354.47,662.48Zm3.36-.41v-.38l-1.1.07c-.54,0-.84.28-.84.65s.32.63.8.63A1,1,0,0,0,357.83,662.07Z" transform="translate(-68.94 -191.95)"/><path class="cls-7" d="M360.15,663.35v-4a.65.65,0,0,1,.69-.71.64.64,0,0,1,.67.71v.35h0a1.16,1.16,0,0,1,1.09-1,.7.7,0,0,1,.44.13.64.64,0,0,1,.21.53.61.61,0,0,1-.21.51,1,1,0,0,1-.62.19c-.65,0-.88.37-.88,1v2.33a.71.71,0,1,1-1.42,0Z" transform="translate(-68.94 -191.95)"/><path class="cls-7" d="M363.46,662.48c0-1,.73-1.5,2-1.58l1.32-.08v-.34c0-.49-.34-.77-.88-.77a1.15,1.15,0,0,0-1,.55.71.71,0,0,1-.56.26.55.55,0,0,1-.6-.54.93.93,0,0,1,.07-.33,2.22,2.22,0,0,1,2.17-1c1.35,0,2.22.7,2.22,1.75v3a.65.65,0,0,1-.69.72.63.63,0,0,1-.69-.63v-.27h0a1.81,1.81,0,0,1-1.6.88A1.62,1.62,0,0,1,363.46,662.48Zm3.36-.41v-.38l-1.11.07c-.53,0-.83.28-.83.65s.32.63.8.63A1,1,0,0,0,366.82,662.07Z" transform="translate(-68.94 -191.95)"/><path class="cls-7" d="M369.27,665a.81.81,0,0,1-.1-.39.52.52,0,0,1,.58-.52.7.7,0,0,1,.49.2,1.72,1.72,0,0,0,1.23.57,1.07,1.07,0,0,0,1.24-1.08v-.83h0a1.69,1.69,0,0,1-1.61.94c-1.3,0-2.12-1-2.12-2.6s.8-2.61,2.15-2.61a1.69,1.69,0,0,1,1.59,1h0v-.29a.67.67,0,0,1,.72-.72.66.66,0,0,1,.71.72v4.41c0,1.37-1,2.19-2.67,2.18A2.54,2.54,0,0,1,369.27,665Zm3.46-3.69c0-.94-.46-1.54-1.18-1.54s-1.14.59-1.14,1.54.44,1.52,1.14,1.52S372.73,662.25,372.73,661.3Z" transform="translate(-68.94 -191.95)"/><path class="cls-7" d="M374.88,661.4a2.47,2.47,0,0,1,2.53-2.76,2.35,2.35,0,0,1,2.48,2.44.57.57,0,0,1-.62.62h-3v.06a1.17,1.17,0,0,0,1.19,1.29,1.49,1.49,0,0,0,1.25-.63.57.57,0,0,1,.47-.21.51.51,0,0,1,.55.52.79.79,0,0,1-.09.35,2.37,2.37,0,0,1-2.17,1A2.43,2.43,0,0,1,374.88,661.4Zm3.64-.58a1.08,1.08,0,0,0-1.1-1.12,1.12,1.12,0,0,0-1.12,1.12Z" transform="translate(-68.94 -191.95)"/><path class="cls-7" d="M348.46,586.32,347,581a1.91,1.91,0,0,1-.08-.49.64.64,0,0,1,.72-.66.68.68,0,0,1,.71.63L349.4,585h0l1.18-4.54c.12-.46.35-.66.76-.66a.73.73,0,0,1,.75.65l1.19,4.55h0l1.05-4.57a.69.69,0,0,1,.72-.63.64.64,0,0,1,.72.66,2,2,0,0,1-.08.49l-1.47,5.34c-.15.52-.4.75-.85.75s-.74-.22-.88-.75l-1.17-4.16h0l-1.17,4.16c-.14.52-.41.75-.87.75S348.6,586.85,348.46,586.32Z" transform="translate(-68.94 -191.95)"/><path class="cls-7" d="M356.64,580.36a.77.77,0,1,1,.77.74A.75.75,0,0,1,356.64,580.36Zm.05,6v-4a.72.72,0,1,1,1.43,0v4a.72.72,0,1,1-1.43,0Z" transform="translate(-68.94 -191.95)"/><path class="cls-7" d="M359.07,586.34v-4a.65.65,0,0,1,.68-.72.68.68,0,0,1,.72.72v.3h0a1.59,1.59,0,0,1,1.61-1,1.72,1.72,0,0,1,1.81,2v2.73a.71.71,0,1,1-1.42,0v-2.43c0-.69-.32-1.08-1-1.08a1,1,0,0,0-1.05,1.15v2.36a.71.71,0,1,1-1.42,0Z" transform="translate(-68.94 -191.95)"/><path class="cls-7" d="M364.64,584.36c0-1.66.83-2.69,2.14-2.69a1.69,1.69,0,0,1,1.6,1h0v-2.07a.71.71,0,1,1,1.42,0v5.78a.71.71,0,1,1-1.42,0v-.3h0a1.64,1.64,0,0,1-1.61,1C365.46,587.07,364.64,586,364.64,584.36Zm3.78,0c0-1-.46-1.56-1.17-1.56s-1.15.6-1.15,1.56.44,1.55,1.15,1.55S368.42,585.32,368.42,584.37Z" transform="translate(-68.94 -191.95)"/><path class="cls-7" d="M370.59,584.36a2.6,2.6,0,1,1,2.6,2.74A2.48,2.48,0,0,1,370.59,584.36Zm3.74,0c0-1-.45-1.64-1.14-1.64s-1.15.6-1.15,1.64.44,1.64,1.15,1.64S374.33,585.42,374.33,584.37Z" transform="translate(-68.94 -191.95)"/><path class="cls-7" d="M377.32,586.34l-1.06-3.65a1.58,1.58,0,0,1-.08-.44.63.63,0,0,1,.69-.61.66.66,0,0,1,.67.61l.78,3.38h0l.81-3.33a.81.81,0,0,1,1.6,0l.82,3.33h0l.79-3.39a.64.64,0,0,1,.65-.6.62.62,0,0,1,.68.61,1.59,1.59,0,0,1-.08.43l-1.05,3.65a.88.88,0,0,1-.92.76.84.84,0,0,1-.92-.76l-.8-3.05h0l-.79,3.06a.84.84,0,0,1-.91.75C377.73,587.09,377.47,586.86,377.32,586.34Z" transform="translate(-68.94 -191.95)"/><path class="cls-7" d="M343.31,526.63c0-2.27,1.29-3.65,3.32-3.65a3,3,0,0,1,2.82,1.6,1.21,1.21,0,0,1,.15.56.6.6,0,0,1-.65.63.7.7,0,0,1-.7-.49,1.71,1.71,0,0,0-1.6-1.08c-1.12,0-1.84.94-1.84,2.42s.71,2.43,1.84,2.43a1.65,1.65,0,0,0,1.62-1,.65.65,0,0,1,.65-.47.64.64,0,0,1,.68.66,1.28,1.28,0,0,1-.11.49,2.93,2.93,0,0,1-2.82,1.58C344.58,530.27,343.31,528.9,343.31,526.63Z" transform="translate(-68.94 -191.95)"/><path class="cls-7" d="M352.63,529.38v-5.6a.74.74,0,1,1,1.48,0v5.15h2.5a.61.61,0,1,1,0,1.22h-3.24A.69.69,0,0,1,352.63,529.38Z" transform="translate(-68.94 -191.95)"/><path class="cls-7" d="M357.91,523.53a.75.75,0,0,1,.77-.74.74.74,0,1,1,0,1.48A.75.75,0,0,1,357.91,523.53Zm0,6v-4a.72.72,0,1,1,1.43,0v4a.72.72,0,1,1-1.43,0Z" transform="translate(-68.94 -191.95)"/><path class="cls-7" d="M360.34,529.51v-4a.65.65,0,0,1,.68-.72.67.67,0,0,1,.72.72v.3h0a1.6,1.6,0,0,1,1.61-1,1.72,1.72,0,0,1,1.81,2v2.73a.71.71,0,1,1-1.42,0v-2.43c0-.69-.32-1.08-1-1.08a1,1,0,0,0-1.05,1.15v2.36a.71.71,0,1,1-1.42,0Z" transform="translate(-68.94 -191.95)"/><path class="cls-7" d="M366.13,529.51v-5.76a.68.68,0,0,1,.72-.75.67.67,0,0,1,.71.75V527h0l1.89-1.9a.73.73,0,0,1,.57-.28.61.61,0,0,1,.63.62.65.65,0,0,1-.27.54l-1.33,1.26,1.46,1.86a.75.75,0,0,1,.2.52.63.63,0,0,1-.68.64c-.3,0-.47-.1-.7-.44L368,528l-.45.42v1.06a.67.67,0,0,1-.71.74A.67.67,0,0,1,366.13,529.51Z" transform="translate(-68.94 -191.95)"/><path class="cls-7" d="M494.19,563.74v-16a2,2,0,0,1,2.14-2.22h6.75c3.84,0,6.25,2,6.25,5.09a4.52,4.52,0,0,1-3.84,4.44v.11a5,5,0,0,1,4.81,4.94c0,3.6-2.7,5.85-7.06,5.85h-6.91A2,2,0,0,1,494.19,563.74Zm7.35-9.7c2.28,0,3.58-1,3.58-2.73s-1.15-2.58-3.14-2.58h-3.52V554Zm.61,8.75c2.46,0,3.79-1,3.79-3s-1.37-2.93-3.89-2.93h-3.59v5.93Z" transform="translate(-68.94 -191.95)"/><path class="cls-7" d="M148.16,515.57c3.87,0,6.91,1.74,8.19,4.57a3.6,3.6,0,0,1,.32,1.43,1.84,1.84,0,0,1-2,1.9,1.88,1.88,0,0,1-1.88-1.35,4.79,4.79,0,0,0-4.69-3c-3.27,0-5.32,2.69-5.32,7s2.08,7,5.31,7a4.87,4.87,0,0,0,4.64-3.13,2.08,2.08,0,0,1,2-1.41,1.75,1.75,0,0,1,1.89,1.84,3.4,3.4,0,0,1-.43,1.6c-1.4,2.94-4.36,4.64-8.18,4.64-5.88,0-9.63-4-9.63-10.56S142.1,515.57,148.16,515.57Z" transform="translate(-68.94 -191.95)"/><path class="cls-7" d="M857.72,440.61v-5.7a.74.74,0,1,1,1.47,0v2.19h3.17v-2.19a.74.74,0,1,1,1.48,0v5.7a.74.74,0,1,1-1.48,0v-2.3h-3.17v2.3a.74.74,0,1,1-1.47,0Z" transform="translate(-68.94 -191.95)"/><path class="cls-7" d="M864.7,438.69a2.47,2.47,0,0,1,2.53-2.76,2.35,2.35,0,0,1,2.48,2.44.56.56,0,0,1-.62.62h-3v.06a1.17,1.17,0,0,0,1.19,1.29,1.49,1.49,0,0,0,1.25-.63.57.57,0,0,1,.46-.21.51.51,0,0,1,.56.52.69.69,0,0,1-.1.35,2.34,2.34,0,0,1-2.16,1A2.43,2.43,0,0,1,864.7,438.69Zm3.64-.57a1.08,1.08,0,0,0-1.1-1.13,1.13,1.13,0,0,0-1.13,1.13Z" transform="translate(-68.94 -191.95)"/><path class="cls-7" d="M870.47,440.64v-5.77a.68.68,0,0,1,.72-.74.67.67,0,0,1,.71.74v5.77a.67.67,0,0,1-.71.74A.67.67,0,0,1,870.47,440.64Z" transform="translate(-68.94 -191.95)"/><path class="cls-7" d="M872.9,440.64v-5.77a.71.71,0,1,1,1.42,0v5.77a.71.71,0,1,1-1.42,0Z" transform="translate(-68.94 -191.95)"/><path class="cls-7" d="M902.09,545.24c-1.13,0-1.77-.57-2.17-1.93l-1.07-3.19h-7.38l-1.08,3.23c-.38,1.33-1,1.89-2.22,1.89a2,2,0,0,1-2.14-2,3.7,3.7,0,0,1,.27-1.35l5.61-15.21a3.38,3.38,0,0,1,6.48,0l5.58,15.2a4.21,4.21,0,0,1,.29,1.35A2,2,0,0,1,902.09,545.24Zm-4.18-8.43-2.65-8.37h-.09l-2.71,8.37Z" transform="translate(-68.94 -191.95)"/><path class="cls-7" d="M729.7,521.16c0-2.26,1.29-3.62,3.36-3.62a3,3,0,0,1,2.81,1.49,1.06,1.06,0,0,1,.1.46.61.61,0,0,1-.64.63.77.77,0,0,1-.71-.43,1.66,1.66,0,0,0-1.56-.93c-1.16,0-1.86.88-1.86,2.38s.74,2.46,1.92,2.46a1.52,1.52,0,0,0,1.66-1.46V522h-1a.54.54,0,1,1,0-1.07h1.72a.69.69,0,0,1,.74.77v.1a2.85,2.85,0,0,1-3.13,3C731,524.82,729.7,523.45,729.7,521.16Z" transform="translate(-68.94 -191.95)"/><path class="cls-7" d="M737.07,524.06v-4a.68.68,0,1,1,1.36,0v.34h0a1.14,1.14,0,0,1,1.09-1,.64.64,0,0,1,.44.13.62.62,0,0,1,.21.53.64.64,0,0,1-.21.51.92.92,0,0,1-.62.18c-.65,0-.88.38-.88,1v2.32a.71.71,0,1,1-1.42,0Z" transform="translate(-68.94 -191.95)"/><path class="cls-7" d="M740.38,523.2c0-1,.73-1.5,2-1.58l1.32-.08v-.35c0-.49-.35-.77-.88-.77a1.15,1.15,0,0,0-1,.55.71.71,0,0,1-.56.27.56.56,0,0,1-.6-.55.74.74,0,0,1,.07-.32,2.2,2.2,0,0,1,2.17-1c1.34,0,2.22.69,2.22,1.74v3a.66.66,0,0,1-.7.72.63.63,0,0,1-.68-.64v-.27h0a1.81,1.81,0,0,1-1.6.89A1.62,1.62,0,0,1,740.38,523.2Zm3.36-.42v-.38l-1.11.07c-.53,0-.83.28-.83.65s.32.64.8.64A1.06,1.06,0,0,0,743.74,522.78Z" transform="translate(-68.94 -191.95)"/><path class="cls-7" d="M746.44,524.06v-3.52h-.28a.53.53,0,0,1,0-1h.28v-.39a1.32,1.32,0,0,1,1.49-1.51c.76,0,1.07.24,1.07.58a.36.36,0,0,1-.28.38l-.28,0c-.44,0-.61.19-.61.57v.33h.6a.53.53,0,0,1,0,1h-.57v3.52a.71.71,0,1,1-1.42,0Z" transform="translate(-68.94 -191.95)"/><path class="cls-7" d="M750,524.06v-3.52h-.28a.53.53,0,0,1,0-1H750v-.39a1.32,1.32,0,0,1,1.49-1.51c.76,0,1.07.24,1.07.58a.36.36,0,0,1-.28.38l-.28,0c-.44,0-.61.19-.61.57v.33h.6a.53.53,0,0,1,0,1h-.57v3.52a.71.71,0,1,1-1.42,0Z" transform="translate(-68.94 -191.95)"/><path class="cls-7" d="M753.15,518.08a.76.76,0,0,1,1.52,0,.76.76,0,0,1-1.52,0Zm.05,6v-3.95a.68.68,0,0,1,.71-.75.69.69,0,0,1,.72.75v3.95a.68.68,0,0,1-.72.75A.67.67,0,0,1,753.2,524.06Z" transform="translate(-68.94 -191.95)"/><path class="cls-7" d="M756,520.54h-.27a.54.54,0,1,1,0-1.07H756v-.58a.72.72,0,1,1,1.43,0v.58h.5a.54.54,0,1,1,0,1.07h-.5v2.51c0,.37.13.53.43.55h.1c.35,0,.54.19.54.52s-.41.63-1,.63h-.05a1.26,1.26,0,0,1-1.44-1.39Z" transform="translate(-68.94 -191.95)"/><path class="cls-7" d="M759.1,518.08a.73.73,0,0,1,.76-.73.74.74,0,0,1,.77.73.75.75,0,0,1-.77.74A.74.74,0,0,1,759.1,518.08Zm0,6v-3.95a.68.68,0,0,1,.71-.75.69.69,0,0,1,.72.75v3.95a.68.68,0,0,1-.72.75A.67.67,0,0,1,759.15,524.06Z" transform="translate(-68.94 -191.95)"/></g></svg>