<?xml version="1.0" encoding="UTF-8"?><svg xmlns="http://www.w3.org/2000/svg" viewBox="0 0 896.33 794.7"><defs><style>.cls-1{fill:#fff;}.cls-2{fill:#b0adb0;}.cls-3{fill:#575548;}.cls-4{fill:#d32027;}.cls-5{fill:#33353b;}.cls-6{fill:#656569;}.cls-7{fill:none;stroke:#b0adb0;stroke-miterlimit:10;}.cls-8{fill:#79c143;}</style></defs><g id="Body_Merge"><path class="cls-5" d="m881.49,94.28h-204.19V1.28h-203.96l-27.08,9-13.96,26.09-11.93,43.89-9.04,13.02v21h-233.98v78H42.34v55h18.99v89.01H1.33v114.96s3.83,27.09,29.81,33.03h104.18v-29h37.01v104.01l37.02,36.96v28.87h-37.02v34.16l179,85h58.01v49h136.97v-115.98h129.02v-111.01h-48.02v-7h189.01v-160h33.99l44.01-44.01V94.28h-12.84Zm-39.16,129v-14.01h7v46.03h-59.03v-46.03h8.03v14.01h44Zm-85-32.99v75.99h-21.99v-19.99h-23v-4.01h23v-35h-8v-57.99h-113.01v-15h121.01v56h21.99Zm-15.99,315h-20.01v-20h20.01v20Zm-214-185v49.99h-15.01v-85.99h-22.01v-7h95.01v-94.02h98v23l-6.98,9.03v15s17.94,12.98-4.01,31.99v72h-60v-14h-85Zm-158.74-143h92.73v-85.01h53.01v132.99h14.99v14.99h-22v-14.98h-54v52h14.98v22h-22v-55h-89v-66.99h11.28Zm-154.26,69.99v-69.99h110v56h-80.01v92h-80v-63h-69.98v-15h119.99Zm-102,81.99h-14v-30.01h14v30.01Zm-50.99,52v18.01h-23.02v-18.01h23.02Zm74,0v-15h28.99s65.01,0,65.01,0v15.01h57.99v-89h85v-22h29.01v29h-58.99v96.99h29.99v29.02h-77.99v14.99h-33.01v-30.01h0v-21.99h-75l-14,13.99v8h-37v-29Zm236.97,310.01v-81h-103.97v-15h10.99v-111h165.92v34h-58.91v82.02h0v9.98h53.97v7.01h-30.97v73.99h-37.04Zm46.03-142v3.99h-4v-3.99h4Zm-4,30h4v3.99h-4v-3.99Zm121.18,53.99h-45.18v-211.96h-52.03v22.94h-28.99v-47.98h94.58s23.44,0,23.44,0h85v-45h8.01v73.99h69.99v9.01h-22.01v21.17l-11.02,11.71-14.01,21.13-6.84,3.09-1.16,8.61-7.97,7.31-29.98,8.97v50l-4.04,5.01h-4.96v4.95l-9,4.04v52.99h-43.82Zm304.62-312.98h0s-67.8-.01-67.8-.01v17.99h10.01c2.34,1.34,3.96,4.19,3.96,7.5s-1.62,6.15-3.96,7.5v.03h-9.99v45.99h0v10.98h-8.02v-56.98h-31v-45.01h124v12.03h-17.19Zm27.07-171.02h-80.88v-15h86.01v15h-5.13Z"/></g><g id="Bombsite"><polygon class="cls-3" points="446.4 329.02 446.4 270.28 401.23 270.28 401.23 298.29 372.34 298.29 372.34 348.28 401.23 348.28 403.18 348.28 429.88 348.28 446.87 348.28 505.85 348.28 505.85 329.02 446.4 329.02"/><rect class="cls-5" x="437.36" y="283.31" width="9.96" height="20.96"/><rect class="cls-5" x="857.28" y="148.31" width="15.07" height="15.93"/><path class="cls-3" d="m790.75,149.28h-4.42l-28.99,41.01v75.99h136.99v-116.99h-103.58Zm-.42,106.01v-46.03h8.01v14.02h43.98v-14.02h7.02v46.03h-59.01Z"/><rect class="cls-5" x="812.28" y="254.24" width="15.02" height="15.98"/><rect class="cls-5" x="857.47" y="148.55" width="14.49" height="15.3"/><rect class="cls-3" x="61.28" y="299.28" width="37.1" height="99.29"/><rect class="cls-3" x="96.67" y="328.77" width="15.22" height="69.76"/><rect class="cls-3" x=".61" y="335.39" width="67.85" height="45.89"/></g><g id="Lines"><path class="cls-2" d="m685.26,321.26v12.02h-12.93v-12.02h12.93m1-1h-14.93v14.02h14.93v-14.02h0Z"/><path class="cls-2" d="m826.29,255.25v13.96h-13.02v-13.96h13.02m1-1h-15.02v15.96h15.02v-15.96h0Z"/><path class="cls-2" d="m871.33,149.25v13.99h-13.06v-13.99h13.06m1-1h-15.06v15.99h15.06v-15.99h0Z"/><path class="cls-2" d="m734.34,121.27v13h-13v-13h13m1-1h-15v15h15v-15h0Z"/><path class="cls-2" d="m677.32,1.27v36.93h-15.95V1.27h15.95m1-1h-17.95v38.93h17.95V.27h0Z"/><path class="cls-2" d="m677.32,25.3v12.9h-15.95v-12.9h15.95m1-1h-17.95v14.9h17.95v-14.9h0Z"/><path class="cls-2" d="m446.32,284.31v18.96h-7.96v-18.96h7.96m1-1h-9.96v20.96h9.96v-20.96h0Z"/><path class="cls-2" d="m371.34,299.25v14.01h-29.05v-14.01h29.05m1-1h-31.05v16.01h31.05v-16.01h0Z"/><path class="cls-2" d="m348.33,314.27v6.02h-6.02v-6.02h6.02m1-1h-8.02v8.02h8.02v-8.02h0Z"/><path class="cls-2" d="m512.38,329.28v25h-6.04v-25h6.04m1-1h-8.04v27h8.04v-27h0Z"/><path class="cls-2" d="m385.33,471.28v13h-12v-13h12m1-1h-14v15h14v-15h0Z"/><path class="cls-2" d="m490.35,611.28v20.99h-14.01v-20.99h14.01m1-1h-16.01v22.99h16.01v-22.99h0Z"/><path class="cls-2" d="m268.35,597.28v12h-14.02v-12h14.02m1-1h-16.02v14h16.02v-14h0Z"/><path class="cls-2" d="m345.33,663.26v28.02h-13v-28.02h13m1-1h-15v30.02h15v-30.02h0Z"/><path class="cls-2" d="m337.33,648.29v13.02h-5v-13.02h5m1-1h-7v15.02h7v-15.02h0Z"/><path class="cls-2" d="m261.35,426.28v13h-14.02v-13h14.02m1-1h-16.02v15h16.02v-15h0Z"/><path class="cls-2" d="m52.35,399.27v29.02h-13.02v-29.02h13.02m1-1h-15.02v31.02h15.02v-31.02h0Z"/><path class="cls-2" d="m164.34,262.26v14.02h-13.01v-14.02h13.01m1-1h-15.01v16.02h15.01v-16.02h0Z"/><path class="cls-2" d="m228.33,163.28v14.01h-13v-14.01h13m1-1h-15v16.01h15v-16.01h0Z"/><rect class="cls-2" x="41.76" y="206.28" width="127.55" height="1"/><polygon class="cls-2" points="112.33 398.28 112.33 329.07 111.34 329.07 111.34 398.28 61.15 398.28 61.15 399.28 111.34 399.28 112.33 399.28 112.33 399.28 112.33 398.28 112.33 398.28"/><polygon class="cls-7" points="236.83 550.26 260.34 540.22 267.32 511.7 256.3 490.26 222.42 482.28 204.32 488.29 186.32 507.1 199.31 537.24 236.83 550.26"/><rect class="cls-2" x="331.34" y="609.64" width="1" height="39.08"/><polyline class="cls-7" points="641.83 1.31 641.83 15.06 661.03 30.43"/><rect class="cls-2" x="841.34" y="93.73" width="1" height="41.38"/><polygon class="cls-2" points="447.32 328.28 447.32 303.89 446.34 303.89 446.34 328.28 446.34 329.28 447.32 329.28 506.12 329.28 506.12 328.28 447.32 328.28"/><path class="cls-7" d="m447.82,328.78h-.99v-24.86h-8.89c-13.43,7.1-23.17,21.44-23.17,37.59,0,23.32,19.05,42.22,42.54,42.22s42.54-18.9,42.54-42.22c0-4.25-.64-8.86-1.82-12.73h-50.22Z"/><polyline class="cls-7" points="665.76 457.25 676.85 490.85 676.85 500.33 666.71 507.84 661.35 507.84 655.82 502.82 655.82 500.32"/><line class="cls-7" x1="676.85" y1="495.67" x2="626.89" y2="506.88"/><polyline class="cls-7" points="741.28 504.78 792.88 504.78 793.82 485.76 757.89 485.76 750.84 483.78 743.76 483.78 740.63 486.47"/><path class="cls-2" d="m689.33,411.28v14.01h-20v-14.01h20m1-1h-22v16.01h22v-16.01h0Z"/><line class="cls-7" x1="786.87" y1="148.5" x2="756.64" y2="191.25"/><path class="cls-2" d="m135.36,471.28v13.03h-14.02v-13.03h14.02m1-1h-16.02v15.03h16.02v-15.03h0Z"/><path class="cls-2" d="m120.34,478.28v6.03h-6.99v-6.03h6.99m1-1h-8.99v8.03h8.99v-8.03h0Z"/><path class="cls-2" d="m150.33,262.26v7.02h-6.99v-7.02h6.99m1-1h-8.99v9.02h8.99v-9.02h0Z"/><rect class="cls-2" x="675.34" y="410.69" width="1" height="14.94"/></g><g id="Outlines"><path class="cls-6" d="m677.3,1.28v93h217.04v260.99l-44.01,44.01h-33.99v160h-189.01v7h48.02v111.01h-129.02v115.98h-136.97v-48.99h-58.01l-179-85v-34.16h37.02v-28.87l-37.02-36.96v-104.01h-37.01v29H31.15c-25.99-5.94-29.81-33.03-29.81-33.03v-114.96h60v-89.01h-18.99v-55h135.01v-78h233.98v-21l9.04-13.02,11.93-43.89,13.96-26.09,27.08-9h203.96m-319.98,243h89v55h22v-22h-14.98v-52h54v14.98h22v-14.99h-14.99V92.28h-53.01v85.01h-104.01v66.99m429-95.01h86.01v-15h-86.01v15m-172,0h113.01v57.99h8v35h-23v4.01h23v19.99h21.99v-75.99h-21.99v-56h-121.01v15M94.35,262.28h69.98v63h80v-92h80.01v-56h-110v69.99h-119.99v15m395.97,22h22.01v85.99h15.01v-49.99h85v14h60v-72c21.95-19.01,4.01-31.99,4.01-31.99v-15l6.98-9.03v-23h-98v94.02h-95.01v7m308.01-61.01v-14.01h-8.03v46.03h59.03v-46.03h-7v14.01h-44M229.34,381.28v-15.01h-65.01s-28.99,0-28.99,0v44h37v-8l14-13.99h75v21.99h0v30.01h33.01v-14.99h77.99v-29.02h-29.99v-96.99h58.99v-29h-29.01v22h-85v89h-57.99m-131.01-52h14v-30.01h-14v30.01m634.99,24h31v56.98h8.02v-10.98h0v-45.99h9.99v-.03c2.34-1.34,3.96-4.19,3.96-7.5s-1.62-6.15-3.96-7.5h-10.01v-17.99h67.8s17.19.01,17.19.01v-12.03h-124v45.01m-229.42,43h0s-94.58,0-94.58,0v47.98h28.99v-22.94h52.03v211.96h89v-52.99l9-4.04v-4.95h4.96l4.04-5.01v-50l29.98-8.97,7.97-7.31,1.16-8.61,6.84-3.09,14.01-21.13,11.02-11.71v-21.17h22.01v-9.01h-69.99v-73.99h-8.01v45h-108.44m-465.57,3.01h23.02v-18.01h-23.02v18.01m230.01,211h103.97v81h37.04v-73.99h30.97v-7.01h-53.97v-9.98h0v-82.02h58.91v-34h-165.92v111h-10.99v15m452.99-105h20.01v-20h-20.01v20m-306.99,47.99h4v-3.99h-4v3.99m0,30.01h4v-3.99h-4v3.99M678.35.23h-205.18l-.16.05-27.08,9-.4.13-.2.37-13.96,26.09-.06.1-.03.11-11.89,43.71-8.94,12.87-.19.27v20.28h-233.98v78H41.29v57.1h18.99v86.91H.28v116.16c.05.28,1.04,7.06,5.3,14.65,3.94,7.04,11.53,16.1,25.34,19.25l.12.03h105.35v-29h34.91v103.39l.31.31,36.71,36.65v27.39h-37.02v35.88l.6.28,179,85,.21.1h57.2v48.99h139.07v-115.98h129.02v-113.11h-48.02v-4.9h189.01v-160h33.38l.31-.31,44.01-44.01.31-.31V93.23h-217.04V.23h0Zm-215.97,93.1h50.91v132.99h14.99v12.89h-19.9v-14.98h-56.1v54.1h14.98v19.9h-19.9v-55h-89v-64.89h104.01v-85.01h0Zm325,42h83.91v12.9h-83.91v-12.9h0Zm-172,0h118.91v56h21.99v73.89h-19.89v-19.99h-23v-1.91h23v-37.1h-8v-57.99h-113.01v-12.9h0Zm-399.99,43.01h107.9v53.9h-80.01v92h-77.9v-63h-69.98v-12.9h119.99v-69.99h0Zm370.99,5.98h95.9v21.59l-6.76,8.74-.22.28v15.89l.43.31c.06.04,6.15,4.56,6.46,11.89.25,5.97-3.29,12.18-10.54,18.45l-.36.31v71.43h-57.9v-14h-87.1v49.99h-12.91v-85.99h-22.01v-4.9h95.01v-94.02h0Zm257,25.99h4.9v43.93h-56.93v-43.93h5.93v14.01h46.1v-14.01h0Zm-470.01,61.02h26.91v26.9h-58.99v99.09h29.99v26.92h-77.99v14.99h-30.91v-30.01h0v-21.99h-76.48l-.31.31-14,13.99-.31.31v7.39h-34.9v-41.9h28.99s62.91,0,62.91,0v15.01h60.09v-89h85v-22h0Zm-274,28.99h11.9v27.91h-11.9v-27.91h0Zm634.99,9h121.9v9.93h-16.14s-67.8-.01-67.8-.01h-1.05v20.09h10.76c1.95,1.25,3.2,3.75,3.2,6.45s-1.27,5.23-3.24,6.47h-10.71v56.97s-5.92,0-5.92,0v-56.98h-31v-42.91h0Zm-120.99,43.01h5.91v73.99h69.99v6.91h-22.01v21.8l-10.74,11.4-.06.07-.05.07-13.84,20.88-6.57,2.96-.53.24-.08.58-1.11,8.23-7.51,6.89-29.75,8.91-.75.22v50.41l-3.5,4.33h-5.5v5.32l-8.38,3.77-.62.28v52.62h-86.9v-211.96h-54.13v22.94h-26.89v-45.88h93.53s23.44,0,23.44,0h86.05v-45h0Zm-574.01,30h20.92v15.91h-20.92v-15.91h0Zm241,103.01h163.82v31.9h-58.91v84.12h0v9.98h53.97v4.91h-30.97v73.99h-34.94v-81h-103.97v-12.9h10.99v-111h0Zm441.99,1h17.91v17.9h-17.91v-17.9h0Zm-306.99,64.01h1.9v1.89h-1.9v-1.89h0Zm0,30h1.9v1.89h-1.9v-1.89h0Z"/></g><g id="Callouts_copy"><path class="cls-4" d="m431.77,750.86c0-.16.04-.38.13-.61l2.5-6.81c.27-.74.72-1.08,1.44-1.08s1.19.33,1.47,1.08l2.51,6.82c.09.25.12.42.12.61,0,.53-.4.9-.96.9s-.83-.25-1-.84l-.48-1.45h-3.31l-.48,1.43c-.18.61-.46.86-.97.86-.6,0-.97-.35-.97-.9Zm5.29-2.88l-1.21-3.75h-.04l-1.19,3.75h2.44Z"/><path class="cls-4" d="m440.99,746.24h-.36c-.44,0-.72-.27-.72-.7s.28-.7.72-.7h.36v-.75c0-.6.35-.96.93-.96s.93.37.93.96v.75h.65c.44,0,.71.27.71.7s-.27.7-.71.7h-.65v3.26c0,.48.17.69.56.72h.12c.46.06.7.25.7.69,0,.55-.53.83-1.31.83h-.06c-1.24,0-1.87-.62-1.87-1.82v-3.67Z"/><path class="cls-4" d="m445.61,746.24h-.36c-.44,0-.72-.27-.72-.7s.28-.7.72-.7h.36v-.75c0-.6.35-.96.93-.96s.93.37.93.96v.75h.65c.44,0,.71.27.71.7s-.27.7-.71.7h-.65v3.26c0,.48.17.69.56.72h.12c.46.06.7.25.7.69,0,.55-.53.83-1.31.83h-.06c-1.24,0-1.87-.62-1.87-1.82v-3.67Z"/><path class="cls-4" d="m449.41,749.69c0-1.24.95-1.96,2.65-2.06l1.71-.1v-.45c0-.63-.44-1-1.14-1-.56,0-.91.18-1.32.72-.2.23-.44.34-.74.34-.45,0-.77-.29-.77-.71,0-.15.03-.28.1-.42.32-.81,1.41-1.31,2.82-1.31,1.75,0,2.88.9,2.88,2.27v3.88c0,.62-.37.93-.9.93s-.85-.28-.89-.83v-.35h-.04c-.38.72-1.23,1.15-2.08,1.15-1.29,0-2.28-.84-2.28-2.06Zm4.37-.54v-.5l-1.43.09c-.69.05-1.09.36-1.09.84,0,.51.42.83,1.04.83.81,0,1.48-.53,1.48-1.26Z"/><path class="cls-4" d="m456.55,748.24c0-2.18,1.29-3.55,3.34-3.55,1.36,0,2.5.66,2.87,1.62.06.16.1.32.1.46,0,.46-.36.72-.79.72-.37,0-.59-.15-.78-.48-.34-.6-.75-.87-1.34-.87-.94,0-1.52.77-1.52,2.09s.58,2.1,1.5,2.1c.65,0,1.05-.32,1.33-.8.25-.39.45-.55.84-.55.43,0,.78.29.78.74,0,.15-.04.3-.12.48-.41.93-1.57,1.57-2.87,1.57-2.05,0-3.35-1.35-3.35-3.55Z"/><path class="cls-4" d="m463.92,750.81v-7.5c0-.63.39-.97.93-.97s.93.34.93.97v4.22h.03l2.46-2.47c.25-.26.46-.37.74-.37.48,0,.83.35.83.81,0,.28-.08.45-.35.7l-1.73,1.64,1.9,2.42c.2.27.26.44.26.68,0,.5-.36.84-.88.84-.39,0-.62-.14-.91-.58l-1.75-2.31-.59.55v1.38c0,.63-.38.96-.93.96s-.93-.33-.93-.96Z"/><path class="cls-4" d="m470.31,748.27c0-2.19,1.28-3.58,3.29-3.58s3.22,1.32,3.22,3.17c0,.51-.29.81-.81.81h-3.88v.08c0,1.01.61,1.67,1.55,1.67.68,0,1.12-.23,1.62-.82.2-.2.36-.27.6-.27.4,0,.72.25.72.68,0,.15-.04.3-.13.45-.45.84-1.5,1.33-2.82,1.33-2.13,0-3.38-1.31-3.38-3.52Zm4.73-.74c-.04-.89-.61-1.47-1.42-1.47s-1.4.6-1.47,1.47h2.89Z"/><path class="cls-4" d="m477.77,750.81v-5.18c0-.59.36-.93.89-.93s.88.34.88.93v.44h.04c.18-.84.74-1.35,1.42-1.35.25,0,.44.06.58.17.18.14.27.37.27.69,0,.29-.09.51-.27.67s-.44.23-.81.24c-.84.01-1.14.49-1.14,1.29v3.02c0,.62-.36.96-.93.96s-.93-.35-.93-.96Z"/><path class="cls-4" d="m485.11,750.04c-.06-.17-.1-.34-.1-.51,0-.51.35-.84.84-.84.39,0,.65.15.88.56.3.7,1.02,1.02,1.89,1.02,1.03,0,1.73-.5,1.73-1.17,0-.6-.43-.95-1.58-1.18l-.97-.19c-1.83-.36-2.72-1.24-2.72-2.6,0-1.68,1.46-2.79,3.5-2.79,1.68,0,2.94.71,3.34,1.9.04.13.07.26.07.42,0,.46-.33.77-.82.77-.43,0-.7-.17-.91-.57-.3-.69-.89-.98-1.68-.98-.95,0-1.57.44-1.57,1.12,0,.57.44.91,1.52,1.13l.96.2c1.94.39,2.78,1.17,2.78,2.56,0,1.79-1.4,2.92-3.69,2.92-1.89,0-3.1-.75-3.47-1.76Z"/><path class="cls-4" d="m493.28,753.1v-7.45c0-.62.38-.95.91-.95s.91.33.91.96v.37h.04c.37-.8,1.12-1.29,2.11-1.29,1.73,0,2.79,1.31,2.79,3.51s-1.05,3.51-2.75,3.51c-.99,0-1.75-.48-2.11-1.25h-.04v2.6c0,.63-.38.96-.93.96s-.93-.33-.93-.96Zm4.86-4.86c0-1.23-.58-2.02-1.51-2.02s-1.5.81-1.5,2.02.6,2.02,1.5,2.02,1.51-.78,1.51-2.02Z"/><path class="cls-4" d="m500.72,749.69c0-1.24.95-1.96,2.65-2.06l1.71-.1v-.45c0-.63-.44-1-1.14-1-.57,0-.91.18-1.32.72-.2.23-.44.34-.74.34-.45,0-.77-.29-.77-.71,0-.15.03-.28.09-.42.32-.81,1.41-1.31,2.82-1.31,1.75,0,2.88.9,2.88,2.27v3.88c0,.62-.37.93-.9.93s-.85-.28-.89-.83v-.35h-.04c-.38.72-1.23,1.15-2.08,1.15-1.29,0-2.28-.84-2.28-2.06Zm4.37-.54v-.5l-1.43.09c-.69.05-1.09.36-1.09.84,0,.51.42.83,1.04.83.81,0,1.48-.53,1.48-1.26Z"/><path class="cls-4" d="m509.19,750.81l-1.37-4.74c-.07-.24-.1-.39-.1-.57,0-.46.38-.79.9-.79.46,0,.76.28.87.79l1.01,4.4h.04l1.05-4.34c.12-.55.48-.85,1.05-.85s.91.3,1.04.85l1.06,4.34h.04l1.02-4.41c.1-.5.4-.77.86-.77.51,0,.88.32.88.79,0,.17-.03.32-.1.57l-1.37,4.75c-.19.67-.55.98-1.19.98-.68,0-1.04-.29-1.2-.98l-1.04-3.96h-.04l-1.03,3.97c-.16.67-.53.97-1.19.97s-.98-.3-1.17-.97Z"/><path class="cls-4" d="m518.35,750.81v-5.18c0-.58.34-.93.89-.93s.93.36.93.94v.38h.04c.36-.84,1.05-1.31,2.09-1.31,1.51,0,2.36.95,2.36,2.55v3.55c0,.63-.39.96-.93.96s-.93-.33-.93-.96v-3.17c0-.89-.42-1.4-1.25-1.4s-1.36.61-1.36,1.49v3.07c0,.63-.38.96-.93.96s-.93-.33-.93-.96Z"/><path class="cls-1" d="m857.91,116.89v-5.51c0-.48.27-.77.74-.77h1.95c2.11,0,3.36,1.26,3.36,3.5s-1.25,3.55-3.36,3.55h-1.95c-.46,0-.74-.28-.74-.77Zm2.51-.45c1.32,0,2.03-.8,2.03-2.32s-.73-2.29-2.03-2.29h-1.04v4.61h1.04Z"/><path class="cls-1" d="m864.79,117.02v-3.98c0-.45.28-.72.69-.72s.67.26.67.72v.34h.03c.14-.65.57-1.04,1.09-1.04.19,0,.34.04.44.13.14.11.21.28.21.53,0,.22-.07.4-.21.51s-.34.18-.62.19c-.65,0-.88.38-.88,1v2.32c0,.47-.28.74-.71.74s-.71-.27-.71-.74Z"/><path class="cls-1" d="m868.06,115.04c0-1.69,1.03-2.72,2.59-2.72s2.59,1.03,2.59,2.72-1.01,2.73-2.59,2.73-2.59-1.02-2.59-2.73Zm3.74,0c0-1.04-.45-1.64-1.14-1.64s-1.15.6-1.15,1.64.44,1.64,1.15,1.64,1.14-.59,1.14-1.64Z"/><path class="cls-1" d="m873.98,118.78v-5.73c0-.48.29-.73.7-.73s.7.25.7.74v.28h.03c.28-.62.86-1,1.62-1,1.33,0,2.14,1.01,2.14,2.7s-.81,2.7-2.12,2.7c-.76,0-1.35-.37-1.63-.96h-.03v2c0,.49-.29.74-.71.74s-.71-.25-.71-.74Zm3.74-3.74c0-.95-.45-1.56-1.16-1.56s-1.16.62-1.16,1.56.46,1.55,1.16,1.55,1.16-.6,1.16-1.55Z"/><path class="cls-1" d="m666.7,169.21c-.05-.13-.08-.26-.08-.4,0-.39.27-.65.65-.65.3,0,.5.12.68.43.23.54.78.78,1.46.78.79,0,1.33-.38,1.33-.9,0-.46-.33-.73-1.22-.91l-.75-.15c-1.41-.28-2.09-.95-2.09-2,0-1.29,1.12-2.14,2.69-2.14,1.29,0,2.26.54,2.57,1.46.03.1.05.2.05.33,0,.35-.25.59-.63.59-.33,0-.54-.13-.7-.43-.23-.53-.69-.75-1.29-.75-.73,0-1.21.34-1.21.86,0,.43.34.7,1.17.87l.74.15c1.49.3,2.14.9,2.14,1.97,0,1.38-1.08,2.25-2.84,2.25-1.46,0-2.39-.58-2.67-1.35Z"/><path class="cls-1" d="m673.36,166.29h-.27c-.34,0-.55-.21-.55-.54s.21-.54.55-.54h.27v-.58c0-.46.27-.74.71-.74s.71.28.71.74v.58h.5c.34,0,.55.21.55.54s-.21.54-.55.54h-.5v2.5c0,.37.13.53.43.55h.09c.35.05.54.2.54.53,0,.42-.41.63-1.01.63h-.05c-.95,0-1.44-.47-1.44-1.4v-2.82Z"/><path class="cls-1" d="m676.28,168.95c0-.95.73-1.5,2.04-1.58l1.32-.08v-.35c0-.49-.34-.77-.88-.77-.43,0-.7.14-1.02.55-.16.18-.34.26-.57.26-.35,0-.6-.22-.6-.55,0-.11.02-.21.07-.32.24-.62,1.08-1.01,2.17-1.01,1.34,0,2.22.69,2.22,1.75v2.98c0,.47-.29.72-.69.72s-.65-.21-.68-.63v-.27h-.03c-.29.56-.95.88-1.6.88-1,0-1.75-.64-1.75-1.59Zm3.36-.42v-.38l-1.1.07c-.53.04-.83.28-.83.65,0,.39.32.63.8.63.62,0,1.14-.41,1.14-.97Z"/><path class="cls-1" d="m681.93,163.83c0-.42.33-.74.76-.74s.76.32.76.74-.33.74-.76.74-.76-.33-.76-.74Zm.05,5.98v-3.96c0-.46.27-.75.71-.75s.71.28.71.75v3.96c0,.46-.27.74-.71.74s-.71-.28-.71-.74Z"/><path class="cls-1" d="m684.36,169.81v-3.98c0-.45.28-.72.69-.72s.67.26.67.72v.34h.03c.14-.65.57-1.04,1.09-1.04.19,0,.34.04.44.13.14.11.21.28.21.53,0,.22-.07.4-.21.51s-.34.18-.62.19c-.65,0-.88.38-.88,1v2.32c0,.47-.28.74-.71.74s-.71-.27-.71-.74Z"/><path class="cls-1" d="m687.88,169.52c-.03-.09-.05-.19-.05-.26,0-.33.24-.55.58-.55.23,0,.42.1.62.32.28.37.6.53,1.14.53s.85-.21.85-.56c0-.28-.18-.43-.69-.55l-.88-.19c-1.03-.22-1.54-.74-1.54-1.52,0-1,.86-1.65,2.22-1.65,1.08,0,1.88.49,2.05,1.08.02.07.03.14.03.21,0,.29-.18.49-.55.49-.19,0-.39-.07-.52-.22-.25-.32-.53-.56-1.04-.56-.48,0-.82.23-.82.57,0,.27.21.45.73.57l.86.19c1.11.23,1.57.64,1.57,1.43,0,1.04-.93,1.71-2.31,1.71-1.2,0-2-.43-2.25-1.04Z"/><path class="cls-1" d="m465.92,312.64v-3.88c0-.49.27-.77.74-.77s.74.28.74.77v3.74c0,.9.53,1.49,1.48,1.49s1.47-.59,1.47-1.49v-3.74c0-.49.27-.77.74-.77s.74.28.74.77v3.88c0,1.55-1.15,2.61-2.95,2.61s-2.95-1.05-2.95-2.61Z"/><path class="cls-1" d="m472.87,316.26v-5.73c0-.48.29-.73.7-.73s.7.25.7.74v.28h.03c.28-.62.86-1,1.62-1,1.33,0,2.14,1.01,2.14,2.7s-.81,2.7-2.12,2.7c-.76,0-1.35-.37-1.63-.96h-.03v2c0,.49-.29.74-.71.74s-.71-.25-.71-.74Zm3.74-3.74c0-.95-.45-1.56-1.16-1.56s-1.16.62-1.16,1.56.46,1.55,1.16,1.55,1.16-.6,1.16-1.55Z"/><path class="cls-1" d="m478.8,316.26v-5.73c0-.48.29-.73.7-.73s.7.25.7.74v.28h.03c.28-.62.86-1,1.62-1,1.33,0,2.14,1.01,2.14,2.7s-.81,2.7-2.12,2.7c-.76,0-1.35-.37-1.63-.96h-.03v2c0,.49-.29.74-.71.74s-.71-.25-.71-.74Zm3.74-3.74c0-.95-.45-1.56-1.16-1.56s-1.16.62-1.16,1.56.46,1.55,1.16,1.55,1.16-.6,1.16-1.55Z"/><path class="cls-1" d="m484.54,312.54c0-1.68.98-2.75,2.53-2.75s2.48,1.02,2.48,2.44c0,.4-.22.62-.62.62h-2.99v.06c0,.78.47,1.28,1.19,1.28.52,0,.86-.18,1.25-.63.15-.16.28-.21.46-.21.31,0,.56.2.56.52,0,.11-.03.23-.1.35-.35.64-1.16,1.03-2.17,1.03-1.64,0-2.6-1.01-2.6-2.71Zm3.64-.57c-.03-.68-.47-1.13-1.09-1.13s-1.08.46-1.13,1.13h2.22Z"/><path class="cls-1" d="m490.29,314.49v-3.98c0-.45.28-.72.69-.72s.67.26.67.72v.34h.03c.14-.65.57-1.04,1.09-1.04.19,0,.34.04.44.13.14.11.21.28.21.53,0,.22-.07.4-.21.51s-.34.18-.62.19c-.65,0-.88.38-.88,1v2.32c0,.47-.28.74-.71.74s-.71-.27-.71-.74Z"/><path class="cls-1" d="m757.92,534.49v-5.62c0-.48.27-.77.74-.77h2.15c1.62,0,2.55.86,2.55,2.25,0,.88-.43,1.63-1.21,1.96l1.02,1.76c.12.21.16.34.16.51,0,.39-.31.67-.74.67-.35,0-.51-.13-.75-.56l-1.17-2.12h-1.25v1.91c0,.48-.27.77-.74.77s-.74-.28-.74-.77Zm2.74-2.98c.74,0,1.18-.42,1.18-1.12s-.46-1.12-1.19-1.12h-1.25v2.25h1.27Z"/><path class="cls-1" d="m764.17,533.29v-2.73c0-.49.3-.75.71-.75s.71.26.71.75v2.44c0,.7.35,1.07.98,1.07s1.03-.45,1.03-1.15v-2.36c0-.49.3-.75.71-.75s.71.26.71.75v3.97c0,.47-.28.72-.69.72s-.69-.25-.69-.72v-.32h-.03c-.26.66-.78,1.04-1.57,1.04-1.13,0-1.88-.74-1.88-1.96Z"/><path class="cls-1" d="m769.99,534.53v-5.79c0-.49.3-.75.71-.75s.71.26.71.75v2.08h.03c.29-.62.87-.99,1.62-.99,1.32,0,2.13,1.01,2.13,2.7s-.8,2.7-2.12,2.7c-.77,0-1.35-.37-1.64-.98h-.03v.28c0,.47-.29.72-.71.72s-.7-.24-.7-.72Zm3.74-2c0-.95-.44-1.56-1.15-1.56s-1.17.62-1.17,1.56.47,1.55,1.17,1.55,1.15-.6,1.15-1.55Z"/><path class="cls-1" d="m775.96,534.53v-5.79c0-.49.3-.75.71-.75s.71.26.71.75v2.08h.03c.29-.62.87-.99,1.62-.99,1.32,0,2.13,1.01,2.13,2.7s-.8,2.7-2.12,2.7c-.77,0-1.35-.37-1.64-.98h-.03v.28c0,.47-.29.72-.71.72s-.7-.24-.7-.72Zm3.74-2c0-.95-.44-1.56-1.15-1.56s-1.17.62-1.17,1.56.47,1.55,1.17,1.55,1.15-.6,1.15-1.55Z"/><path class="cls-1" d="m781.94,534.51v-5.77c0-.49.3-.75.71-.75s.71.26.71.75v5.77c0,.49-.29.74-.71.74s-.71-.25-.71-.74Z"/><path class="cls-1" d="m784.13,532.56c0-1.68.98-2.75,2.53-2.75s2.48,1.02,2.48,2.44c0,.39-.22.62-.62.62h-2.99v.06c0,.78.47,1.28,1.19,1.28.52,0,.86-.18,1.25-.63.15-.16.28-.21.46-.21.31,0,.56.2.56.52,0,.11-.03.23-.1.35-.35.64-1.16,1.03-2.17,1.03-1.64,0-2.6-1.01-2.6-2.71Zm3.64-.57c-.03-.68-.47-1.13-1.09-1.13s-1.08.46-1.13,1.13h2.22Z"/><path class="cls-1" d="m553.67,360.27c0-.12.03-.29.1-.47l1.92-5.24c.21-.57.55-.83,1.11-.83s.92.25,1.13.83l1.93,5.24c.07.19.09.32.09.47,0,.41-.31.69-.74.69s-.63-.19-.77-.65l-.37-1.11h-2.54l-.37,1.1c-.14.47-.36.66-.75.66-.46,0-.75-.27-.75-.69Zm4.07-2.21l-.93-2.89h-.03l-.91,2.89h1.88Z"/><path class="cls-1" d="m562.83,360.1v-5.6c0-.49.27-.77.74-.77s.74.28.74.77v5.15h2.5c.4,0,.67.23.67.61s-.26.61-.67.61h-3.24c-.46,0-.74-.28-.74-.77Z"/><path class="cls-1" d="m568.11,354.25c0-.42.33-.74.76-.74s.76.32.76.74-.33.74-.76.74-.76-.33-.76-.74Zm.05,5.98v-3.96c0-.46.27-.75.71-.75s.71.28.71.75v3.96c0,.46-.27.74-.71.74s-.71-.28-.71-.74Z"/><path class="cls-1" d="m570.53,360.24v-3.98c0-.44.26-.72.69-.72s.71.27.71.72v.29h.03c.28-.65.81-1.01,1.61-1.01,1.16,0,1.82.73,1.82,1.96v2.73c0,.49-.3.74-.71.74s-.71-.25-.71-.74v-2.44c0-.68-.32-1.07-.96-1.07s-1.04.47-1.04,1.15v2.36c0,.49-.29.74-.71.74s-.71-.25-.71-.74Z"/><path class="cls-1" d="m576.33,360.24v-5.77c0-.49.3-.75.71-.75s.71.26.71.75v3.25h.02l1.89-1.9c.19-.2.35-.28.57-.28.37,0,.63.27.63.62,0,.21-.06.35-.27.54l-1.33,1.26,1.46,1.86c.16.21.2.34.2.52,0,.38-.28.64-.68.64-.3,0-.47-.11-.7-.44l-1.34-1.78-.45.42v1.06c0,.49-.29.74-.71.74s-.71-.25-.71-.74Z"/><path class="cls-1" d="m648.89,491.61v-5.62c0-.48.27-.77.74-.77h2.15c1.62,0,2.55.85,2.55,2.25,0,.88-.43,1.63-1.21,1.96l1.02,1.76c.12.21.16.34.16.51,0,.39-.31.67-.74.67-.35,0-.51-.13-.75-.56l-1.17-2.12h-1.25v1.91c0,.48-.27.77-.74.77s-.74-.28-.74-.77Zm2.74-2.98c.74,0,1.18-.42,1.18-1.12s-.46-1.12-1.19-1.12h-1.25v2.25h1.27Z"/><path class="cls-1" d="m654.93,489.65c0-1.69,1.03-2.72,2.59-2.72s2.59,1.03,2.59,2.72-1.01,2.73-2.59,2.73-2.59-1.02-2.59-2.73Zm3.74,0c0-1.04-.45-1.64-1.14-1.64s-1.15.6-1.15,1.64.44,1.64,1.15,1.64,1.14-.59,1.14-1.64Z"/><path class="cls-1" d="m660.66,489.65c0-1.69,1.03-2.72,2.59-2.72s2.59,1.03,2.59,2.72-1.01,2.73-2.59,2.73-2.59-1.02-2.59-2.73Zm3.74,0c0-1.04-.45-1.64-1.14-1.64s-1.15.6-1.15,1.64.44,1.64,1.15,1.64,1.14-.59,1.14-1.64Z"/><path class="cls-1" d="m666.96,488.11h-.27c-.34,0-.55-.21-.55-.54s.21-.54.55-.54h.27v-.58c0-.46.27-.74.71-.74s.71.28.71.74v.58h.5c.34,0,.55.21.55.54s-.21.54-.55.54h-.5v2.5c0,.37.13.53.43.55h.09c.35.05.54.2.54.53,0,.42-.41.63-1.01.63h-.05c-.95,0-1.44-.47-1.44-1.4v-2.82Z"/><path class="cls-1" d="m683.64,379.49c0-.12.03-.29.1-.47l1.92-5.24c.21-.57.55-.83,1.11-.83s.92.25,1.13.83l1.93,5.24c.07.19.09.32.09.47,0,.41-.31.69-.74.69s-.63-.19-.77-.65l-.37-1.11h-2.54l-.37,1.1c-.14.47-.36.66-.75.66-.46,0-.75-.27-.75-.69Zm4.07-2.21l-.93-2.89h-.03l-.91,2.89h1.88Z"/><path class="cls-1" d="m692.79,379.5v-5.6c0-.6.35-.95.95-.95.51,0,.8.21,1.01.76l1.75,4.33h.04l1.74-4.33c.21-.54.5-.76,1.02-.76.6,0,.95.35.95.95v5.6c0,.43-.24.69-.66.69s-.65-.25-.65-.69v-4.16h-.04l-1.74,4.26c-.13.31-.32.45-.63.45s-.52-.14-.64-.44l-1.74-4.27h-.04v4.16c0,.43-.24.69-.65.69s-.66-.25-.66-.69Z"/><path class="cls-1" d="m700.99,378.59c0-.95.73-1.5,2.04-1.58l1.32-.08v-.35c0-.49-.34-.77-.88-.77-.43,0-.7.14-1.02.55-.16.18-.34.26-.57.26-.35,0-.6-.22-.6-.55,0-.11.02-.21.07-.32.24-.62,1.08-1.01,2.17-1.01,1.34,0,2.22.69,2.22,1.75v2.98c0,.47-.29.72-.69.72s-.65-.21-.68-.63v-.27h-.03c-.29.56-.95.88-1.6.88-1,0-1.75-.64-1.75-1.59Zm3.36-.42v-.38l-1.1.07c-.53.04-.83.28-.83.65,0,.39.32.63.8.63.62,0,1.14-.41,1.14-.97Z"/><path class="cls-1" d="m706.65,373.47c0-.42.33-.74.76-.74s.76.32.76.74-.33.74-.76.74-.76-.33-.76-.74Zm.05,5.98v-3.96c0-.46.27-.75.71-.75s.71.28.71.75v3.96c0,.46-.27.74-.71.74s-.71-.28-.71-.74Z"/><path class="cls-1" d="m709.07,379.45v-3.98c0-.44.26-.72.69-.72s.71.27.71.72v.29h.03c.28-.65.81-1.01,1.61-1.01,1.16,0,1.82.73,1.82,1.96v2.73c0,.49-.3.74-.71.74s-.71-.25-.71-.74v-2.44c0-.68-.32-1.07-.96-1.07s-1.04.47-1.04,1.15v2.36c0,.49-.29.74-.71.74s-.71-.25-.71-.74Z"/><path class="cls-1" d="m813.47,361.76v-5.15h-1.46c-.4,0-.67-.23-.67-.61s.26-.61.67-.61h4.39c.4,0,.66.23.66.61s-.27.61-.66.61h-1.46v5.15c0,.48-.27.77-.74.77s-.74-.28-.74-.77Z"/><path class="cls-1" d="m817.02,361.79v-3.98c0-.45.28-.72.69-.72s.67.26.67.72v.34h.03c.14-.65.57-1.04,1.09-1.04.19,0,.34.04.44.13.14.11.21.28.21.53,0,.22-.07.4-.21.51s-.34.18-.62.19c-.65,0-.88.38-.88,1v2.32c0,.47-.28.74-.71.74s-.71-.27-.71-.74Z"/><path class="cls-1" d="m820.29,359.84c0-1.68.98-2.75,2.53-2.75s2.48,1.02,2.48,2.44c0,.4-.22.62-.62.62h-2.99v.06c0,.78.47,1.28,1.19,1.28.52,0,.86-.18,1.25-.63.15-.16.28-.21.46-.21.31,0,.56.2.56.52,0,.11-.03.23-.1.35-.35.64-1.16,1.03-2.17,1.03-1.64,0-2.6-1.01-2.6-2.71Zm3.64-.57c-.03-.68-.47-1.13-1.09-1.13s-1.08.46-1.13,1.13h2.22Z"/><path class="cls-1" d="m825.84,359.84c0-1.68.98-2.75,2.53-2.75s2.48,1.02,2.48,2.44c0,.4-.22.62-.62.62h-2.99v.06c0,.78.47,1.28,1.19,1.28.52,0,.86-.18,1.25-.63.15-.16.28-.21.46-.21.31,0,.56.2.56.52,0,.11-.03.23-.1.35-.35.64-1.16,1.03-2.17,1.03-1.64,0-2.6-1.01-2.6-2.71Zm3.64-.57c-.03-.68-.47-1.13-1.09-1.13s-1.08.46-1.13,1.13h2.22Z"/><path class="cls-8" d="m506.1,53.47v-7.16c0-.63.36-1,.96-1h2.54c2.75,0,4.37,1.64,4.37,4.54s-1.62,4.61-4.37,4.61h-2.54c-.6,0-.96-.37-.96-1Zm3.27-.58c1.71,0,2.64-1.04,2.64-3.02s-.95-2.97-2.64-2.97h-1.35v5.99h1.35Z"/><path class="cls-8" d="m514.79,51.1c0-2.19,1.28-3.58,3.29-3.58s3.22,1.32,3.22,3.17c0,.51-.29.81-.81.81h-3.88v.08c0,1.01.61,1.67,1.55,1.67.68,0,1.12-.23,1.62-.82.2-.2.36-.27.6-.27.4,0,.72.25.72.68,0,.15-.04.3-.13.45-.45.84-1.5,1.33-2.82,1.33-2.13,0-3.38-1.31-3.38-3.52Zm4.73-.74c-.04-.89-.61-1.47-1.42-1.47s-1.4.6-1.47,1.47h2.89Z"/><path class="cls-8" d="m522.75,53.64v-4.58h-.36c-.39,0-.68-.25-.68-.69s.29-.68.68-.68h.36v-.51c0-1.35.66-1.94,1.94-1.96.98,0,1.4.31,1.4.75,0,.26-.13.41-.37.49-.1.03-.22.04-.36.05-.57.02-.8.25-.8.75v.43h.78c.39,0,.68.25.68.68s-.29.69-.68.69h-.74v4.58c0,.64-.38.96-.93.96s-.93-.32-.93-.96Z"/><path class="cls-8" d="m526.44,51.1c0-2.19,1.28-3.58,3.29-3.58s3.22,1.32,3.22,3.17c0,.51-.29.81-.81.81h-3.88v.08c0,1.01.61,1.67,1.55,1.67.68,0,1.12-.23,1.62-.82.2-.2.36-.27.6-.27.4,0,.72.25.72.68,0,.15-.04.3-.13.45-.45.84-1.5,1.33-2.82,1.33-2.13,0-3.38-1.31-3.38-3.52Zm4.73-.74c-.04-.89-.61-1.47-1.42-1.47s-1.4.6-1.47,1.47h2.89Z"/><path class="cls-8" d="m533.91,53.64v-5.18c0-.58.34-.93.9-.93s.93.36.93.94v.38h.04c.36-.84,1.05-1.31,2.09-1.31,1.51,0,2.36.95,2.36,2.55v3.55c0,.63-.39.96-.93.96s-.93-.33-.93-.96v-3.17c0-.89-.42-1.4-1.25-1.4s-1.36.61-1.36,1.49v3.07c0,.63-.38.96-.93.96s-.93-.33-.93-.96Z"/><path class="cls-8" d="m541.15,51.06c0-2.16,1.08-3.5,2.79-3.5.98,0,1.75.52,2.08,1.28h.04v-2.69c0-.63.39-.97.93-.97s.93.34.93.97v7.52c0,.62-.38.94-.92.94s-.93-.32-.93-.94v-.39h-.03c-.3.76-1.05,1.31-2.09,1.31-1.7,0-2.77-1.35-2.77-3.52Zm4.91.01c0-1.24-.59-2.02-1.51-2.02s-1.5.78-1.5,2.02.57,2.02,1.5,2.02,1.51-.77,1.51-2.02Z"/><path class="cls-8" d="m548.89,51.1c0-2.19,1.28-3.58,3.29-3.58s3.22,1.32,3.22,3.17c0,.51-.29.81-.81.81h-3.88v.08c0,1.01.61,1.67,1.55,1.67.68,0,1.12-.23,1.62-.82.2-.2.36-.27.6-.27.4,0,.72.25.72.68,0,.15-.04.3-.13.45-.45.84-1.5,1.33-2.82,1.33-2.13,0-3.38-1.31-3.38-3.52Zm4.73-.74c-.04-.89-.61-1.47-1.42-1.47s-1.4.6-1.47,1.47h2.89Z"/><path class="cls-8" d="m556.36,53.64v-5.18c0-.59.36-.93.89-.93s.88.34.88.93v.44h.04c.18-.84.74-1.35,1.42-1.35.25,0,.44.06.58.17.18.14.27.37.27.69,0,.29-.09.51-.27.67s-.44.23-.81.24c-.84.01-1.14.49-1.14,1.29v3.02c0,.62-.36.96-.93.96s-.93-.35-.93-.96Z"/><path class="cls-8" d="m563.7,52.86c-.06-.17-.1-.34-.1-.51,0-.51.35-.84.84-.84.39,0,.65.15.88.56.3.7,1.02,1.02,1.89,1.02,1.03,0,1.73-.5,1.73-1.17,0-.6-.43-.95-1.58-1.18l-.97-.19c-1.83-.36-2.72-1.24-2.72-2.6,0-1.68,1.46-2.79,3.5-2.79,1.68,0,2.94.71,3.34,1.9.04.13.07.26.07.42,0,.46-.33.77-.82.77-.43,0-.7-.17-.91-.57-.3-.69-.89-.98-1.68-.98-.95,0-1.57.44-1.57,1.12,0,.57.44.91,1.52,1.13l.96.2c1.94.39,2.78,1.17,2.78,2.56,0,1.79-1.4,2.92-3.69,2.92-1.89,0-3.1-.75-3.47-1.76Z"/><path class="cls-8" d="m571.87,55.93v-7.45c0-.62.38-.95.91-.95s.91.33.91.96v.37h.04c.37-.8,1.12-1.29,2.11-1.29,1.73,0,2.79,1.31,2.79,3.51s-1.05,3.51-2.75,3.51c-.99,0-1.75-.48-2.11-1.25h-.04v2.6c0,.63-.38.96-.93.96s-.93-.33-.93-.96Zm4.86-4.86c0-1.23-.58-2.02-1.51-2.02s-1.5.81-1.5,2.02.6,2.02,1.5,2.02,1.51-.78,1.51-2.02Z"/><path class="cls-8" d="m579.31,52.52c0-1.24.95-1.96,2.65-2.06l1.71-.1v-.45c0-.63-.44-1-1.14-1-.57,0-.91.18-1.32.72-.2.23-.44.34-.74.34-.45,0-.77-.29-.77-.71,0-.15.03-.28.09-.42.32-.81,1.41-1.31,2.82-1.31,1.75,0,2.88.9,2.88,2.27v3.88c0,.62-.37.93-.9.93s-.85-.28-.89-.83v-.35h-.04c-.38.72-1.23,1.15-2.08,1.15-1.29,0-2.28-.84-2.28-2.06Zm4.37-.54v-.5l-1.43.09c-.69.05-1.09.36-1.09.84,0,.51.42.83,1.04.83.81,0,1.48-.53,1.48-1.26Z"/><path class="cls-8" d="m587.77,53.63l-1.37-4.74c-.07-.24-.1-.39-.1-.57,0-.46.38-.79.9-.79.46,0,.76.28.87.79l1.01,4.4h.04l1.05-4.34c.12-.55.48-.85,1.05-.85s.91.3,1.04.85l1.06,4.34h.04l1.02-4.41c.1-.5.4-.77.86-.77.51,0,.88.32.88.79,0,.17-.03.32-.1.57l-1.37,4.75c-.19.67-.55.98-1.19.98-.68,0-1.04-.29-1.2-.98l-1.04-3.96h-.04l-1.03,3.97c-.16.67-.53.97-1.19.97s-.98-.3-1.17-.97Z"/><path class="cls-8" d="m596.93,53.64v-5.18c0-.58.34-.93.89-.93s.93.36.93.94v.38h.04c.36-.84,1.05-1.31,2.09-1.31,1.51,0,2.36.95,2.36,2.55v3.55c0,.63-.39.96-.93.96s-.93-.33-.93-.96v-3.17c0-.89-.42-1.4-1.25-1.4s-1.36.61-1.36,1.49v3.07c0,.63-.38.96-.93.96s-.93-.33-.93-.96Z"/><path class="cls-1" d="m192.42,349.54l-1.47-5.33c-.05-.18-.08-.36-.08-.49,0-.41.28-.66.73-.66.39,0,.62.21.71.63l1.05,4.57h.04l1.19-4.54c.11-.46.35-.66.76-.66s.64.21.75.65l1.19,4.55h.04l1.05-4.57c.09-.42.33-.63.71-.63.45,0,.73.25.73.66,0,.13-.03.3-.08.49l-1.47,5.34c-.15.52-.4.74-.85.74s-.73-.22-.87-.75l-1.17-4.16h-.04l-1.17,4.16c-.14.52-.41.75-.87.75s-.72-.22-.86-.75Z"/><path class="cls-1" d="m199.77,348.69c0-.95.73-1.5,2.04-1.58l1.32-.08v-.35c0-.49-.34-.77-.88-.77-.43,0-.7.14-1.02.55-.16.18-.34.26-.57.26-.35,0-.6-.22-.6-.55,0-.11.02-.21.07-.32.24-.62,1.08-1.01,2.17-1.01,1.34,0,2.22.69,2.22,1.75v2.98c0,.47-.29.72-.69.72s-.65-.21-.68-.63v-.27h-.03c-.29.56-.95.88-1.6.88-1,0-1.75-.64-1.75-1.59Zm3.36-.42v-.38l-1.1.07c-.53.04-.83.28-.83.65,0,.39.32.63.8.63.62,0,1.14-.41,1.14-.97Z"/><path class="cls-1" d="m205.83,346.04h-.27c-.34,0-.55-.21-.55-.54s.21-.54.55-.54h.27v-.58c0-.46.27-.74.71-.74s.71.28.71.74v.58h.5c.34,0,.55.21.55.54s-.21.54-.55.54h-.5v2.5c0,.37.13.53.43.55h.09c.35.05.54.2.54.53,0,.42-.41.63-1.01.63h-.05c-.95,0-1.44-.47-1.44-1.4v-2.82Z"/><path class="cls-1" d="m208.74,347.6c0-1.68.98-2.75,2.53-2.75s2.48,1.02,2.48,2.44c0,.4-.22.62-.62.62h-2.99v.06c0,.78.47,1.28,1.19,1.28.52,0,.86-.18,1.25-.63.15-.16.28-.21.46-.21.31,0,.56.2.56.52,0,.11-.03.23-.1.35-.35.64-1.16,1.03-2.17,1.03-1.64,0-2.6-1.01-2.6-2.71Zm3.64-.57c-.03-.68-.47-1.13-1.09-1.13s-1.08.46-1.13,1.13h2.22Z"/><path class="cls-1" d="m214.48,349.56v-3.98c0-.45.28-.72.69-.72s.67.26.67.72v.34h.03c.14-.65.57-1.04,1.09-1.04.19,0,.34.04.44.13.14.11.21.28.21.53,0,.22-.07.4-.21.51s-.34.18-.62.19c-.65,0-.88.38-.88,1v2.32c0,.47-.28.74-.71.74s-.71-.27-.71-.74Z"/><path class="cls-1" d="m218.52,349.56v-3.52h-.27c-.3,0-.52-.19-.52-.53s.22-.52.52-.52h.27v-.4c0-1.04.51-1.49,1.49-1.5.76,0,1.07.24,1.07.58,0,.2-.1.32-.29.38-.08.02-.17.03-.27.04-.44.01-.62.19-.62.58v.33h.6c.3,0,.52.19.52.52s-.22.53-.52.53h-.57v3.52c0,.49-.29.74-.71.74s-.71-.25-.71-.74Z"/><path class="cls-1" d="m221.23,348.69c0-.95.73-1.5,2.04-1.58l1.32-.08v-.35c0-.49-.34-.77-.88-.77-.43,0-.7.14-1.02.55-.16.18-.34.26-.57.26-.35,0-.6-.22-.6-.55,0-.11.02-.21.07-.32.24-.62,1.08-1.01,2.17-1.01,1.34,0,2.22.69,2.22,1.75v2.98c0,.47-.29.72-.69.72s-.65-.21-.68-.63v-.27h-.03c-.29.56-.95.88-1.6.88-1,0-1.75-.64-1.75-1.59Zm3.36-.42v-.38l-1.1.07c-.53.04-.83.28-.83.65,0,.39.32.63.8.63.62,0,1.14-.41,1.14-.97Z"/><path class="cls-1" d="m226.94,349.56v-5.77c0-.49.3-.75.71-.75s.71.26.71.75v5.77c0,.49-.29.74-.71.74s-.71-.25-.71-.74Z"/><path class="cls-1" d="m229.36,349.56v-5.77c0-.49.3-.75.71-.75s.71.26.71.75v5.77c0,.49-.29.74-.71.74s-.71-.25-.71-.74Z"/><path class="cls-1" d="m12.72,447.97v-5.51c0-.48.27-.77.74-.77h3.35c.41,0,.67.23.67.61s-.27.61-.67.61h-2.61v1.69h2.49c.37,0,.62.21.62.57s-.24.57-.62.57h-2.49v1.78h2.61c.4,0,.67.23.67.61s-.26.61-.67.61h-3.35c-.46,0-.74-.28-.74-.77Z"/><path class="cls-1" d="m18.37,448.1v-5.77c0-.49.3-.75.71-.75s.71.26.71.75v5.77c0,.49-.29.74-.71.74s-.71-.25-.71-.74Z"/><path class="cls-1" d="m20.79,448.12v-5.79c0-.49.3-.75.71-.75s.71.26.71.75v2.08h.03c.29-.62.87-.99,1.62-.99,1.32,0,2.13,1.01,2.13,2.7s-.8,2.7-2.12,2.7c-.77,0-1.35-.37-1.64-.98h-.03v.28c0,.47-.29.72-.71.72s-.7-.24-.7-.72Zm3.74-2c0-.95-.44-1.56-1.15-1.56s-1.17.62-1.17,1.56.47,1.55,1.17,1.55,1.15-.6,1.15-1.55Z"/><path class="cls-1" d="m26.54,446.12c0-1.69,1.03-2.72,2.59-2.72s2.59,1.03,2.59,2.72-1.01,2.73-2.59,2.73-2.59-1.02-2.59-2.73Zm3.74,0c0-1.04-.45-1.64-1.14-1.64s-1.15.6-1.15,1.64.44,1.64,1.15,1.64,1.14-.59,1.14-1.64Z"/><path class="cls-1" d="m33.26,448.1l-1.05-3.65c-.05-.19-.08-.3-.08-.44,0-.36.29-.61.69-.61.36,0,.59.21.67.61l.78,3.38h.03l.81-3.33c.09-.42.37-.65.81-.65s.7.23.8.65l.82,3.33h.03l.78-3.39c.08-.38.31-.6.66-.6.4,0,.67.25.67.61,0,.13-.02.25-.08.43l-1.05,3.65c-.15.52-.42.75-.91.75-.52,0-.8-.22-.92-.76l-.8-3.05h-.03l-.79,3.06c-.12.52-.41.75-.91.75s-.75-.23-.9-.75Z"/><path class="cls-1" d="m135.42,228.38v-5.7c0-.49.27-.77.74-.77s.74.28.74.77v2.19h3.17v-2.19c0-.49.27-.77.74-.77s.74.28.74.77v5.7c0,.48-.27.77-.74.77s-.74-.28-.74-.77v-2.29h-3.17v2.29c0,.48-.27.77-.74.77s-.74-.28-.74-.77Z"/><path class="cls-1" d="m142.28,227.55c0-.95.73-1.5,2.04-1.58l1.32-.08v-.35c0-.49-.34-.77-.88-.77-.43,0-.7.14-1.02.55-.16.18-.34.26-.57.26-.35,0-.6-.22-.6-.55,0-.11.02-.21.07-.32.24-.62,1.08-1.01,2.17-1.01,1.34,0,2.22.69,2.22,1.75v2.98c0,.47-.29.72-.69.72s-.65-.21-.68-.63v-.27h-.03c-.29.56-.95.88-1.6.88-1,0-1.75-.64-1.75-1.59Zm3.36-.42v-.38l-1.1.07c-.53.04-.83.28-.83.65,0,.39.32.63.8.63.62,0,1.14-.41,1.14-.97Z"/><path class="cls-1" d="m147.99,228.41v-5.77c0-.49.3-.75.71-.75s.71.26.71.75v5.77c0,.49-.29.74-.71.74s-.71-.25-.71-.74Z"/><path class="cls-1" d="m150.41,228.41v-5.77c0-.49.3-.75.71-.75s.71.26.71.75v5.77c0,.49-.29.74-.71.74s-.71-.25-.71-.74Z"/><path class="cls-1" d="m238.03,651.28c0-2.27,1.29-3.64,3.32-3.64,1.32,0,2.34.59,2.82,1.6.1.19.15.38.15.55,0,.39-.26.63-.65.63-.33,0-.54-.15-.7-.49-.32-.72-.9-1.08-1.6-1.08-1.11,0-1.83.93-1.83,2.42s.71,2.43,1.84,2.43c.74,0,1.3-.34,1.62-1.04.15-.33.34-.46.65-.46.42,0,.69.26.69.65,0,.17-.04.32-.11.49-.44.98-1.49,1.58-2.82,1.58-2.09,0-3.36-1.37-3.36-3.64Z"/><path class="cls-1" d="m247.35,654.03v-5.6c0-.49.27-.77.74-.77s.74.28.74.77v5.15h2.5c.4,0,.67.23.67.61s-.26.61-.67.61h-3.24c-.46,0-.74-.28-.74-.77Z"/><path class="cls-1" d="m252.4,652.18c0-1.69,1.03-2.72,2.59-2.72s2.59,1.03,2.59,2.72-1.01,2.73-2.59,2.73-2.59-1.02-2.59-2.73Zm3.74,0c0-1.04-.45-1.64-1.14-1.64s-1.15.6-1.15,1.64.44,1.64,1.15,1.64,1.14-.59,1.14-1.64Z"/><path class="cls-1" d="m258.35,654.18v-5.79c0-.49.3-.75.71-.75s.71.26.71.75v2.08h.03c.29-.62.87-.99,1.62-.99,1.32,0,2.13,1.01,2.13,2.7s-.8,2.7-2.12,2.7c-.77,0-1.35-.37-1.64-.98h-.03v.28c0,.47-.29.72-.71.72s-.7-.24-.7-.72Zm3.74-2c0-.95-.44-1.56-1.15-1.56s-1.17.62-1.17,1.56.47,1.55,1.17,1.55,1.15-.6,1.15-1.55Z"/><path class="cls-1" d="m264.32,654.18v-5.79c0-.49.3-.75.71-.75s.71.26.71.75v2.08h.03c.29-.62.87-.99,1.62-.99,1.32,0,2.13,1.01,2.13,2.7s-.8,2.7-2.12,2.7c-.77,0-1.35-.37-1.64-.98h-.03v.28c0,.47-.29.72-.71.72s-.7-.24-.7-.72Zm3.74-2c0-.95-.44-1.56-1.15-1.56s-1.17.62-1.17,1.56.47,1.55,1.17,1.55,1.15-.6,1.15-1.55Z"/><path class="cls-1" d="m270.06,656.07c0-.29.2-.47.52-.47.1,0,.15,0,.25,0,.25,0,.52-.11.69-.47l.07-.19-1.67-4.4c-.05-.15-.08-.3-.08-.42,0-.39.32-.66.74-.66.38,0,.57.16.69.58l1.14,3.62h.02l1.14-3.63c.12-.4.32-.57.69-.57.41,0,.69.27.69.64,0,.12-.03.28-.08.42l-1.61,4.37c-.49,1.35-1.09,1.85-2.24,1.85-.62,0-.96-.24-.96-.67Z"/><path class="cls-1" d="m171.26,431.41c0-2.27,1.29-3.64,3.32-3.64,1.32,0,2.34.59,2.82,1.6.1.19.15.38.15.55,0,.39-.26.63-.65.63-.33,0-.54-.15-.7-.49-.32-.72-.9-1.08-1.6-1.08-1.11,0-1.83.93-1.83,2.42s.71,2.43,1.84,2.43c.74,0,1.3-.34,1.62-1.04.15-.33.34-.46.65-.46.42,0,.69.26.69.65,0,.17-.04.32-.11.49-.44.98-1.49,1.58-2.82,1.58-2.09,0-3.36-1.37-3.36-3.64Z"/><path class="cls-1" d="m180.58,434.34v-5.6c0-.6.35-.95.95-.95.51,0,.8.21,1.01.76l1.75,4.33h.04l1.74-4.33c.21-.54.5-.76,1.02-.76.6,0,.95.35.95.95v5.6c0,.43-.24.69-.66.69s-.65-.25-.65-.69v-4.16h-.04l-1.74,4.26c-.13.31-.32.45-.63.45s-.52-.14-.64-.44l-1.74-4.27h-.04v4.16c0,.43-.24.69-.65.69s-.66-.25-.66-.69Z"/><path class="cls-1" d="m188.78,433.44c0-.95.73-1.5,2.04-1.58l1.32-.08v-.35c0-.49-.34-.77-.88-.77-.43,0-.7.14-1.02.55-.16.18-.34.26-.57.26-.35,0-.6-.22-.6-.55,0-.11.02-.21.07-.32.24-.62,1.08-1.01,2.17-1.01,1.34,0,2.22.69,2.22,1.75v2.98c0,.47-.29.72-.69.72s-.65-.21-.68-.63v-.27h-.03c-.29.56-.95.88-1.6.88-1,0-1.75-.64-1.75-1.59Zm3.36-.42v-.38l-1.1.07c-.53.04-.83.28-.83.65,0,.39.32.63.8.63.62,0,1.14-.41,1.14-.97Z"/><path class="cls-1" d="m194.44,428.32c0-.42.33-.74.76-.74s.76.32.76.74-.33.74-.76.74-.76-.33-.76-.74Zm.05,5.98v-3.96c0-.46.27-.75.71-.75s.71.28.71.75v3.96c0,.46-.27.74-.71.74s-.71-.28-.71-.74Z"/><path class="cls-1" d="m196.86,434.3v-3.98c0-.44.26-.72.69-.72s.71.27.71.72v.29h.03c.28-.65.81-1.01,1.61-1.01,1.16,0,1.82.73,1.82,1.96v2.73c0,.49-.3.74-.71.74s-.71-.25-.71-.74v-2.44c0-.68-.32-1.07-.96-1.07s-1.04.47-1.04,1.15v2.36c0,.49-.29.74-.71.74s-.71-.25-.71-.74Z"/><path class="cls-1" d="m327.73,146.73c0-2.26,1.29-3.62,3.36-3.62,1.35,0,2.41.63,2.81,1.5.08.17.11.31.11.45,0,.38-.26.63-.64.63-.31,0-.53-.13-.71-.43-.35-.63-.86-.94-1.55-.94-1.16,0-1.86.88-1.86,2.38s.74,2.46,1.91,2.46c.96,0,1.63-.59,1.66-1.46v-.11s-1.02,0-1.02,0c-.35,0-.59-.2-.59-.54s.23-.54.59-.54h1.72c.46,0,.74.28.74.77v.11c0,1.79-1.14,3-3.12,3-2.1,0-3.39-1.37-3.39-3.66Z"/><path class="cls-1" d="m335.09,149.63v-3.98c0-.45.28-.72.69-.72s.67.26.67.72v.34h.03c.14-.65.57-1.04,1.09-1.04.19,0,.34.04.44.13.14.11.21.28.21.53,0,.22-.07.4-.21.51s-.34.18-.62.19c-.65,0-.88.38-.88,1v2.32c0,.47-.28.74-.71.74s-.71-.27-.71-.74Z"/><path class="cls-1" d="m338.4,148.77c0-.95.73-1.5,2.04-1.58l1.32-.08v-.35c0-.49-.34-.77-.88-.77-.43,0-.7.14-1.02.55-.16.18-.34.26-.57.26-.35,0-.6-.22-.6-.55,0-.11.02-.21.07-.32.24-.62,1.08-1.01,2.17-1.01,1.34,0,2.22.69,2.22,1.75v2.98c0,.47-.29.72-.69.72s-.65-.21-.68-.63v-.27h-.03c-.29.56-.95.88-1.6.88-1,0-1.75-.64-1.75-1.59Zm3.36-.42v-.38l-1.1.07c-.53.04-.83.28-.83.65,0,.39.32.63.8.63.62,0,1.14-.41,1.14-.97Z"/><path class="cls-1" d="m345.23,149.65l-1.36-3.65c-.04-.13-.08-.28-.08-.42,0-.39.31-.64.71-.64.35,0,.58.19.68.57l1.06,3.51h.03l1.06-3.53c.1-.38.34-.56.67-.56.4,0,.69.27.69.63,0,.13-.03.28-.08.4l-1.36,3.68c-.18.5-.48.73-1,.73-.55,0-.84-.22-1.03-.73Z"/><path class="cls-1" d="m349,147.68c0-1.68.98-2.75,2.53-2.75s2.48,1.02,2.48,2.44c0,.4-.22.62-.62.62h-2.99v.06c0,.78.47,1.28,1.19,1.28.52,0,.86-.18,1.25-.63.15-.16.28-.21.46-.21.31,0,.56.2.56.52,0,.11-.03.23-.1.35-.35.64-1.16,1.03-2.17,1.03-1.64,0-2.6-1.01-2.6-2.71Zm3.64-.57c-.03-.68-.47-1.13-1.09-1.13s-1.08.46-1.13,1.13h2.22Z"/><path class="cls-1" d="m354.78,149.63v-5.77c0-.49.3-.75.71-.75s.71.26.71.75v5.77c0,.49-.29.74-.71.74s-.71-.25-.71-.74Z"/><path class="cls-1" d="m285.98,262.49c0-2.27,1.29-3.64,3.32-3.64,1.32,0,2.34.59,2.82,1.6.1.19.15.38.15.55,0,.39-.26.63-.65.63-.33,0-.54-.15-.7-.49-.32-.72-.9-1.08-1.6-1.08-1.11,0-1.83.93-1.83,2.42s.71,2.43,1.84,2.43c.74,0,1.3-.34,1.62-1.04.15-.33.34-.46.65-.46.42,0,.69.26.69.65,0,.17-.04.32-.11.49-.44.98-1.49,1.58-2.82,1.58-2.09,0-3.36-1.37-3.36-3.64Z"/><path class="cls-1" d="m295.3,265.24v-5.6c0-.49.27-.77.74-.77s.74.28.74.77v5.15h2.5c.4,0,.67.23.67.61s-.26.61-.67.61h-3.24c-.46,0-.74-.28-.74-.77Z"/><path class="cls-1" d="m300.58,259.39c0-.42.33-.74.76-.74s.76.32.76.74-.33.74-.76.74-.76-.33-.76-.74Zm.05,5.98v-3.96c0-.46.27-.75.71-.75s.71.28.71.75v3.96c0,.46-.27.74-.71.74s-.71-.28-.71-.74Z"/><path class="cls-1" d="m303,265.37v-3.98c0-.44.26-.72.69-.72s.71.27.71.72v.29h.03c.28-.65.81-1.01,1.61-1.01,1.16,0,1.82.73,1.82,1.96v2.73c0,.49-.3.74-.71.74s-.71-.25-.71-.74v-2.44c0-.68-.32-1.07-.96-1.07s-1.04.47-1.04,1.15v2.36c0,.49-.29.74-.71.74s-.71-.25-.71-.74Z"/><path class="cls-1" d="m308.8,265.37v-5.77c0-.49.3-.75.71-.75s.71.26.71.75v3.25h.02l1.89-1.9c.19-.2.35-.28.57-.28.37,0,.63.27.63.62,0,.21-.06.35-.27.54l-1.33,1.26,1.46,1.86c.16.21.2.34.2.52,0,.38-.28.64-.68.64-.3,0-.47-.11-.7-.44l-1.34-1.78-.45.42v1.06c0,.49-.29.74-.71.74s-.71-.25-.71-.74Z"/><path class="cls-1" d="m386.41,341.59v-15.97c0-1.4.79-2.22,2.14-2.22h6.75c3.84,0,6.24,1.97,6.24,5.1,0,2.24-1.67,4.11-3.84,4.43v.11c2.78.21,4.81,2.24,4.81,4.94,0,3.6-2.7,5.85-7.07,5.85h-6.91c-1.35,0-2.14-.82-2.14-2.24Zm7.35-9.7c2.28,0,3.58-1.01,3.58-2.73s-1.15-2.58-3.14-2.58h-3.51v5.31h3.07Zm.61,8.75c2.46,0,3.79-1.05,3.79-3s-1.37-2.93-3.89-2.93h-3.58v5.93h3.68Z"/><path class="cls-1" d="m827.48,188.55c-1.13,0-1.77-.57-2.17-1.93l-1.08-3.19h-7.38l-1.08,3.23c-.38,1.33-1.02,1.88-2.22,1.88s-2.14-.84-2.14-2.01c0-.42.07-.81.27-1.36l5.61-15.21c.61-1.67,1.6-2.41,3.27-2.41s2.62.76,3.21,2.42l5.58,15.19c.18.52.28,1.01.28,1.36,0,1.23-.83,2.01-2.17,2.01Zm-4.18-8.43l-2.65-8.37h-.1l-2.7,8.37h5.45Z"/><path class="cls-1" d="m46.9,357.13c0-6.58,3.75-10.56,9.63-10.56,3.82,0,6.78,1.7,8.18,4.64.28.54.42,1.09.42,1.6,0,1.12-.75,1.84-1.88,1.84-.96,0-1.57-.42-2.04-1.42-.93-2.08-2.61-3.13-4.64-3.13-3.23,0-5.31,2.71-5.31,7.01s2.05,7.05,5.32,7.05c2.15,0,3.77-.98,4.69-3.03.44-.96.98-1.35,1.88-1.35,1.2,0,2,.76,2,1.9,0,.48-.11.93-.33,1.43-1.27,2.83-4.32,4.57-8.18,4.57-6.06,0-9.74-3.96-9.74-10.56Z"/><path class="cls-1" d="m214.92,518.91v-5.6c0-.6.35-.95.95-.95.51,0,.8.21,1.01.76l1.75,4.33h.04l1.74-4.33c.21-.54.5-.76,1.02-.76.6,0,.95.35.95.95v5.6c0,.43-.24.69-.66.69s-.65-.25-.65-.69v-4.16h-.04l-1.74,4.26c-.13.31-.32.45-.63.45s-.52-.14-.64-.44l-1.74-4.27h-.04v4.16c0,.43-.24.69-.65.69s-.66-.25-.66-.69Z"/><path class="cls-1" d="m223.24,516.88c0-1.69,1.03-2.72,2.59-2.72s2.59,1.03,2.59,2.72-1.01,2.73-2.59,2.73-2.59-1.02-2.59-2.73Zm3.74,0c0-1.04-.45-1.64-1.14-1.64s-1.15.6-1.15,1.64.44,1.64,1.15,1.64,1.14-.59,1.14-1.64Z"/><path class="cls-1" d="m229.14,517.64v-2.73c0-.49.3-.75.71-.75s.71.26.71.75v2.44c0,.7.35,1.07.98,1.07s1.03-.45,1.03-1.15v-2.36c0-.49.3-.75.71-.75s.71.26.71.75v3.97c0,.47-.28.72-.69.72s-.69-.25-.69-.72v-.32h-.03c-.26.66-.78,1.04-1.57,1.04-1.13,0-1.88-.74-1.88-1.96Z"/><path class="cls-1" d="m234.92,518.86v-3.98c0-.44.26-.72.69-.72s.71.27.71.72v.29h.03c.28-.65.81-1.01,1.61-1.01,1.16,0,1.82.73,1.82,1.96v2.73c0,.49-.3.74-.71.74s-.71-.25-.71-.74v-2.44c0-.68-.32-1.07-.96-1.07s-1.04.47-1.04,1.15v2.36c0,.49-.29.74-.71.74s-.71-.25-.71-.74Z"/><path class="cls-1" d="m240.49,516.87c0-1.66.83-2.69,2.14-2.69.76,0,1.34.4,1.6.98h.03v-2.07c0-.49.3-.75.71-.75s.71.26.71.75v5.79c0,.47-.29.72-.71.72s-.72-.24-.72-.72v-.3h-.02c-.23.59-.81,1.01-1.61,1.01-1.31,0-2.13-1.04-2.13-2.71Zm3.78,0c0-.95-.45-1.56-1.16-1.56s-1.16.6-1.16,1.56.44,1.55,1.16,1.55,1.16-.6,1.16-1.55Z"/><path class="cls-1" d="m401.92,463.72v-5.51c0-.48.27-.77.74-.77h2.33c1.32,0,2.15.68,2.15,1.76,0,.77-.58,1.42-1.32,1.53v.04c.96.07,1.66.77,1.66,1.7,0,1.24-.93,2.02-2.44,2.02h-2.38c-.46,0-.74-.28-.74-.77Zm2.53-3.34c.79,0,1.24-.35,1.24-.94s-.4-.89-1.08-.89h-1.21v1.83h1.06Zm.21,3.02c.85,0,1.31-.36,1.31-1.04s-.47-1.01-1.34-1.01h-1.24v2.05h1.27Z"/><path class="cls-1" d="m410.3,463.9v-5.6c0-.6.35-.95.95-.95.51,0,.8.21,1.01.76l1.75,4.33h.04l1.74-4.33c.21-.54.5-.76,1.02-.76.6,0,.95.35.95.95v5.6c0,.43-.24.69-.66.69s-.65-.25-.65-.69v-4.16h-.04l-1.74,4.26c-.13.31-.32.45-.63.45s-.52-.14-.64-.44l-1.74-4.27h-.04v4.16c0,.43-.24.69-.65.69s-.66-.25-.66-.69Z"/><path class="cls-1" d="m418.49,462.99c0-.95.73-1.5,2.04-1.58l1.32-.08v-.35c0-.49-.34-.77-.88-.77-.43,0-.7.14-1.02.55-.16.18-.34.26-.57.26-.35,0-.6-.22-.6-.55,0-.11.02-.21.07-.32.24-.62,1.08-1.01,2.17-1.01,1.34,0,2.22.69,2.22,1.75v2.98c0,.47-.29.72-.69.72s-.65-.21-.68-.63v-.27h-.03c-.29.56-.95.88-1.6.88-1,0-1.75-.64-1.75-1.59Zm3.36-.42v-.38l-1.1.07c-.53.04-.83.28-.83.65,0,.39.32.63.8.63.62,0,1.14-.41,1.14-.97Z"/><path class="cls-1" d="m424.15,457.87c0-.42.33-.74.76-.74s.76.32.76.74-.33.74-.76.74-.76-.33-.76-.74Zm.05,5.98v-3.96c0-.46.27-.75.71-.75s.71.28.71.75v3.96c0,.46-.27.74-.71.74s-.71-.28-.71-.74Z"/><path class="cls-1" d="m426.57,463.85v-3.98c0-.44.26-.72.69-.72s.71.27.71.72v.29h.03c.28-.65.81-1.01,1.61-1.01,1.16,0,1.82.73,1.82,1.96v2.73c0,.49-.3.74-.71.74s-.71-.25-.71-.74v-2.44c0-.68-.32-1.07-.96-1.07s-1.04.47-1.04,1.15v2.36c0,.49-.29.74-.71.74s-.71-.25-.71-.74Z"/><path class="cls-1" d="m439.18,567.63v-5.61c0-.48.27-.77.74-.77h2.13c1.45,0,2.44.96,2.44,2.41s-1.03,2.41-2.51,2.41h-1.32v1.55c0,.48-.27.77-.74.77s-.74-.28-.74-.77Zm2.47-2.7c.84,0,1.34-.45,1.34-1.25s-.49-1.25-1.33-1.25h-1v2.5h1Z"/><path class="cls-1" d="m445.21,561.68c0-.42.33-.74.76-.74s.76.32.76.74-.33.74-.76.74-.76-.33-.76-.74Zm.05,5.98v-3.96c0-.46.27-.75.71-.75s.71.28.71.75v3.96c0,.46-.27.74-.71.74s-.71-.28-.71-.74Z"/><path class="cls-1" d="m447.66,567.66v-5.77c0-.49.3-.75.71-.75s.71.26.71.75v5.77c0,.49-.29.74-.71.74s-.71-.25-.71-.74Z"/><path class="cls-1" d="m450.09,567.66v-5.77c0-.49.3-.75.71-.75s.71.26.71.75v5.77c0,.49-.29.74-.71.74s-.71-.25-.71-.74Z"/><path class="cls-1" d="m452.27,566.8c0-.95.73-1.5,2.04-1.58l1.32-.08v-.35c0-.49-.34-.77-.88-.77-.43,0-.7.14-1.02.55-.16.18-.34.26-.57.26-.35,0-.6-.22-.6-.55,0-.11.02-.21.07-.32.24-.62,1.08-1.01,2.17-1.01,1.34,0,2.22.69,2.22,1.75v2.98c0,.47-.29.72-.69.72s-.65-.21-.68-.63v-.27h-.03c-.29.56-.95.88-1.6.88-1,0-1.75-.64-1.75-1.59Zm3.36-.42v-.38l-1.1.07c-.53.04-.83.28-.83.65,0,.39.32.63.8.63.62,0,1.14-.41,1.14-.97Z"/><path class="cls-1" d="m457.95,567.66v-3.98c0-.45.28-.72.69-.72s.67.26.67.72v.34h.03c.14-.65.57-1.04,1.09-1.04.19,0,.34.04.44.13.14.11.21.28.21.53,0,.22-.07.4-.21.51s-.34.18-.62.19c-.65,0-.88.38-.88,1v2.32c0,.47-.28.74-.71.74s-.71-.27-.71-.74Z"/><path class="cls-1" d="m461.47,567.37c-.03-.09-.05-.19-.05-.26,0-.33.24-.55.58-.55.23,0,.42.1.62.32.28.37.6.53,1.14.53s.85-.21.85-.56c0-.28-.18-.43-.69-.55l-.88-.19c-1.03-.22-1.54-.74-1.54-1.52,0-1,.86-1.65,2.22-1.65,1.08,0,1.88.49,2.05,1.08.02.07.03.14.03.21,0,.29-.18.49-.55.49-.19,0-.39-.07-.52-.22-.25-.32-.53-.56-1.04-.56-.48,0-.82.23-.82.57,0,.27.21.45.73.57l.86.19c1.11.23,1.57.64,1.57,1.43,0,1.04-.93,1.71-2.31,1.71-1.2,0-2-.43-2.25-1.04Z"/><path class="cls-1" d="m612.48,628.58c0-.12.03-.29.1-.47l1.92-5.24c.21-.57.55-.83,1.11-.83s.92.25,1.13.83l1.93,5.24c.07.19.09.32.09.47,0,.41-.31.69-.74.69s-.63-.19-.77-.65l-.37-1.11h-2.54l-.37,1.1c-.14.47-.36.66-.75.66-.46,0-.75-.27-.75-.69Zm4.07-2.21l-.93-2.89h-.03l-.91,2.89h1.88Z"/><path class="cls-1" d="m621.63,628.41v-5.6c0-.49.27-.77.74-.77s.74.28.74.77v5.15h2.5c.4,0,.67.23.67.61s-.26.61-.67.61h-3.24c-.46,0-.74-.28-.74-.77Z"/><path class="cls-1" d="m626.68,626.56c0-1.69,1.03-2.72,2.59-2.72s2.59,1.03,2.59,2.72-1.01,2.73-2.59,2.73-2.59-1.02-2.59-2.73Zm3.74,0c0-1.04-.45-1.64-1.14-1.64s-1.15.6-1.15,1.64.44,1.64,1.15,1.64,1.14-.59,1.14-1.64Z"/><path class="cls-1" d="m632.63,628.56v-5.79c0-.49.3-.75.71-.75s.71.26.71.75v2.08h.03c.29-.62.87-.99,1.62-.99,1.32,0,2.13,1.01,2.13,2.7s-.8,2.7-2.12,2.7c-.77,0-1.35-.37-1.64-.98h-.03v.28c0,.47-.29.72-.71.72s-.7-.24-.7-.72Zm3.74-2c0-.95-.44-1.56-1.15-1.56s-1.17.62-1.17,1.56.47,1.55,1.17,1.55,1.15-.6,1.15-1.55Z"/><path class="cls-1" d="m638.6,628.56v-5.79c0-.49.3-.75.71-.75s.71.26.71.75v2.08h.03c.29-.62.87-.99,1.62-.99,1.32,0,2.13,1.01,2.13,2.7s-.8,2.7-2.12,2.7c-.77,0-1.35-.37-1.64-.98h-.03v.28c0,.47-.29.72-.71.72s-.7-.24-.7-.72Zm3.74-2c0-.95-.44-1.56-1.15-1.56s-1.17.62-1.17,1.56.47,1.55,1.17,1.55,1.15-.6,1.15-1.55Z"/><path class="cls-1" d="m644.34,630.45c0-.29.2-.47.52-.47.1,0,.15,0,.25,0,.25,0,.52-.11.69-.47l.07-.19-1.67-4.4c-.05-.15-.08-.3-.08-.42,0-.39.32-.66.74-.66.38,0,.57.16.69.58l1.14,3.62h.02l1.14-3.63c.12-.4.32-.57.69-.57.41,0,.69.27.69.64,0,.12-.03.28-.08.42l-1.61,4.37c-.49,1.35-1.09,1.85-2.24,1.85-.62,0-.96-.24-.96-.67Z"/><path class="cls-1" d="m779.09,416.05c0-.12.03-.29.1-.47l1.92-5.24c.21-.57.55-.83,1.11-.83s.92.25,1.13.83l1.93,5.24c.07.19.09.32.09.47,0,.41-.31.69-.74.69s-.63-.19-.77-.65l-.37-1.11h-2.54l-.37,1.1c-.14.47-.36.66-.75.66-.46,0-.75-.27-.75-.69Zm4.07-2.21l-.93-2.89h-.03l-.91,2.89h1.88Z"/><path class="cls-1" d="m788.25,415.88v-5.51c0-.48.27-.77.74-.77h1.95c2.11,0,3.36,1.26,3.36,3.5s-1.25,3.55-3.36,3.55h-1.95c-.46,0-.74-.28-.74-.77Zm2.51-.45c1.32,0,2.03-.8,2.03-2.32s-.73-2.29-2.03-2.29h-1.04v4.61h1.04Z"/><path class="cls-1" d="m794.93,414.03c0-1.69,1.03-2.72,2.59-2.72s2.59,1.03,2.59,2.72-1.01,2.73-2.59,2.73-2.59-1.02-2.59-2.73Zm3.74,0c0-1.04-.45-1.64-1.14-1.64s-1.15.6-1.15,1.64.44,1.64,1.15,1.64,1.14-.59,1.14-1.64Z"/><path class="cls-1" d="m800.66,414.03c0-1.69,1.03-2.72,2.59-2.72s2.59,1.03,2.59,2.72-1.01,2.73-2.59,2.73-2.59-1.02-2.59-2.73Zm3.74,0c0-1.04-.45-1.64-1.14-1.64s-1.15.6-1.15,1.64.44,1.64,1.15,1.64,1.14-.59,1.14-1.64Z"/><path class="cls-1" d="m806.58,416.01v-3.98c0-.45.28-.72.69-.72s.67.26.67.72v.34h.03c.14-.65.57-1.04,1.09-1.04.19,0,.34.04.44.13.14.11.21.28.21.53,0,.22-.07.4-.21.51s-.34.18-.62.19c-.65,0-.88.38-.88,1v2.32c0,.47-.28.74-.71.74s-.71-.27-.71-.74Z"/><path class="cls-1" d="m279.79,462.58c0-2.27,1.29-3.64,3.32-3.64,1.32,0,2.34.59,2.82,1.6.1.19.15.38.15.55,0,.39-.26.63-.65.63-.33,0-.54-.15-.7-.49-.32-.72-.9-1.08-1.6-1.08-1.11,0-1.83.93-1.83,2.42s.71,2.43,1.84,2.43c.74,0,1.3-.34,1.62-1.04.15-.33.34-.46.65-.46.42,0,.69.26.69.65,0,.17-.04.32-.11.49-.44.98-1.49,1.58-2.82,1.58-2.09,0-3.36-1.37-3.36-3.64Z"/><path class="cls-1" d="m289.11,465.34v-5.51c0-.48.27-.77.74-.77h1.95c2.11,0,3.36,1.26,3.36,3.5s-1.25,3.55-3.36,3.55h-1.95c-.46,0-.74-.28-.74-.77Zm2.51-.45c1.32,0,2.03-.8,2.03-2.32s-.73-2.29-2.03-2.29h-1.04v4.61h1.04Z"/><path class="cls-1" d="m295.79,463.49c0-1.69,1.03-2.72,2.59-2.72s2.59,1.03,2.59,2.72-1.01,2.73-2.59,2.73-2.59-1.02-2.59-2.73Zm3.74,0c0-1.04-.45-1.64-1.14-1.64s-1.15.6-1.15,1.64.44,1.64,1.15,1.64,1.14-.59,1.14-1.64Z"/><path class="cls-1" d="m301.52,463.49c0-1.69,1.03-2.72,2.59-2.72s2.59,1.03,2.59,2.72-1.01,2.73-2.59,2.73-2.59-1.02-2.59-2.73Zm3.74,0c0-1.04-.45-1.64-1.14-1.64s-1.15.6-1.15,1.64.44,1.64,1.15,1.64,1.14-.59,1.14-1.64Z"/><path class="cls-1" d="m307.44,465.47v-3.98c0-.45.28-.72.69-.72s.67.26.67.72v.34h.03c.14-.65.57-1.04,1.09-1.04.19,0,.34.04.44.13.14.11.21.28.21.53,0,.22-.07.39-.21.51s-.34.18-.62.19c-.65,0-.88.38-.88,1v2.32c0,.47-.28.74-.71.74s-.71-.27-.71-.74Z"/></g></svg>