<svg id="Layer_1" data-name="Layer 1" xmlns="http://www.w3.org/2000/svg" viewBox="0 0 8186.28 8192"><defs><style>.cls-1{fill:#7fe5fb;}</style></defs><title>Incendiary New-01</title><path class="cls-1" d="M4100.38,6597.09c1157,0,1807.56-1320.75,1807.56-2432.76,0-347.2-72.67-625.2-216.86-764.77,48.46,185.71-61.14,556-269.93,556-246.84,0-226.08-244.55-192.63-634.44,13.84-160.33,28.84-344.9,28.84-546.77,0-556-323-1181.2-723.26-1459.2,96.9,208.79,191.49,556,191.49,1181.2,0,556-191.49,834-556,834-433.72,0-486.78-417.57-486.78-1251.56C3682.81,1412,3835.07,456.93,3955,62.43c-313.76,440.64-967.8,1571.08-967.8,2572.34,0,1112,0,1390-278,1390-173,0-223.78-370.28-200.72-556-72.67,115.35-216.86,417.57-216.86,695.56C2294,5276.32,2944.56,6597.09,4100.38,6597.09ZM1598.44,5624.68c0-291.81,49.59-572.14,141.87-832.83,80.74,479.86,254.92,959.72,520.23,1366.91,384.12,587.14,1003.55,1072.77,1839.85,1072.77S5556.13,6745.9,5940.25,6158.76c266.46-406,440.64-887.07,520.23-1366.91,92.28,260.69,141.87,541,141.87,832.83,0,1381.91-1120.06,2502-2502,2502S1598.44,7006.59,1598.44,5624.68Z"/></svg>