<?xml version="1.0" encoding="UTF-8"?><svg id="Layer_3" xmlns="http://www.w3.org/2000/svg" viewBox="0 0 124.54 124.85"><defs><style>.cls-1{fill:#fcfcff;}</style></defs><path class="cls-1" d="m.13,62.14C-2.15,32.36,25.69-3.03,68,.21c24.1,1.84,59.75,24.57,56.31,68.6-1.91,24.43-24.83,59.14-68.52,55.82C28.43,122.55-1.88,96.74.13,62.14Zm16.24-18.88c-7.66,16.68-4.91,32.36,4.27,46.86,7.74,12.23,19.54,19.14,34.21,21.6.25-2.85.43-4.93.59-6.87h10.55c.14,2.77.26,5.15.37,7.56,40.86-5.55,53.69-47.24,41.21-68.97-1.98.88-3.99,1.78-6.16,2.74-1.52-2.73-2.99-5.38-4.57-8.2,2.33-1.42,4.25-2.59,6.18-3.77-22.27-31.09-64.62-26.62-81.42.26,1.9,1.15,3.8,2.3,5.93,3.59-1.79,3.02-3.32,5.6-4.81,8.1-2.22-1.01-4.13-1.88-6.36-2.89Z"/><circle class="cls-1" cx="40.05" cy="50.86" r="10.21"/><circle class="cls-1" cx="82.23" cy="50.86" r="10.21"/><circle class="cls-1" cx="59.97" cy="84.1" r="10.21"/></svg>