<?xml version="1.0" encoding="UTF-8"?><svg id="Layer_1" xmlns="http://www.w3.org/2000/svg" viewBox="0 0 124.51 51.69"><defs><style>.cls-1{fill:#fcfcff;}</style></defs><path class="cls-1" d="m24.67,50.86C10.03,51.76,1.68,40.98.4,31.23-1.64,15.69,4.1,5.52,17.92,1.12c13.57-4.32,27.59,4.23,31.27,18.31.62,2.37,1.61,3.6,4.36,3.49,5.65-.22,11.32-.2,16.98,0,2.84.1,4.03-.97,4.71-3.67,2.4-9.57,8.51-16.29,18.03-18.1,9.65-1.84,19.39-.46,25.86,8.28,9.7,13.1,6.77,35.39-12.65,41.22-13.64,4.09-27.61-4.29-31.29-18.37-.62-2.37-1.61-3.59-4.36-3.49-5.82.22-11.66-.13-17.47.21-1.43.08-3.73,1.75-3.97,3.01-2,10.51-13.42,20.6-24.73,18.85Zm60.79-21.79c1.6,8.8,9.77,12.43,15.88,11.76,7-.77,12.7-7.23,12.85-14.4.17-7.61-5-14.36-12.23-15.48-5.93-.92-14.43,2.1-16.5,11.37q4.55.79,8.36-2.33c3.56-2.92,8.25-2.82,11.2.23,2.9,3,2.94,8.14.09,11.2-2.92,3.13-8.11,3.78-10.98.21-2.72-3.38-5.48-2.69-8.68-2.55Zm-46.45,0c-3.18,0-5.93-1.09-8.63,2.52-2.66,3.58-8.06,2.97-11.01-.07-2.91-3-2.96-8.13-.11-11.2,2.91-3.13,8.08-3.79,10.98-.22,2.72,3.36,5.48,2.71,8.68,2.55-1.56-8.75-9.73-12.43-15.87-11.76-7,.76-12.7,7.22-12.87,14.39-.17,7.61,4.99,14.36,12.22,15.49,5.91.92,14.43-2.07,16.6-11.7Z"/></svg>