<?xml version="1.0" encoding="UTF-8"?><svg id="Layer_1" xmlns="http://www.w3.org/2000/svg" viewBox="0 0 647.78 565.1"><defs><style>.cls-1{fill:#fcfcff;}</style></defs><path class="cls-1" d="m323.99,30.5c-32.3,0-113.8,10.7-167.4,59.5-3.6,4.8-8.4,9.2-15.2,0s-32.4-49.2-29.2-77.2c0-6.8-2-12.8-7.6-12.8s-14.4,11-20,30.5c-1.5,5.1-2.9,9.6-4.3,13.8-4,11.9-7.3,21.8-7.3,37.7,0,21.6,10.4,60,58.4,90.4,38.4,24.3,58.9,42.9,64.4,49.2-.7-13.9.9-45.1,12.4-59.2,9.2,22,30.4,71.2,49.2,100.8,18.8,29.6,37.2,61.6,37.2,93.6v110c-2.9-3.5-9.5-11.6-12.4-16.4-.4-.7-.8-1.3-1.2-2-3.1-5.5-6.4-11.4-19.2-12.8-14.4-1.6-65.2-8.8-85.2-14-2.5-.6-5.3-1.2-8.3-1.9-21.6-4.4-55.6-11.4-75.3-63-5.8-15.1-9.6-30.1-13.2-44.3-10.4-41.1-19.3-76-69.2-90.9-11.2-2.4-13.6,6.4-6.8,14,6.8,7.6,25.6,34,26.4,59.6.1,2.8.1,6.1.1,9.7,0,29.3,0,83.2,46.3,135.1-18.8-2-29.8-3.2-34-4.4s-12.4-.9-12.4,4.4c0,4.8,1.9,6,11.7,12.3,1.1.7,2.4,1.5,3.7,2.4,7.1,4.6,31.7,18.3,55.5,31.5,19.7,11,38.8,21.6,47,26.5l.2.1c18.3,11,87.4,52.4,175.7,52.4s157.4-41.5,175.7-52.4l.2-.1c8.1-4.9,27.3-15.5,46.9-26.5h0c23.7-13.2,48.3-26.9,55.4-31.5,1.3-.9,2.6-1.7,3.7-2.4h0c9.8-6.2,11.7-7.5,11.7-12.3,0-5.3-8.2-5.6-12.4-4.4-4.2,1.2-15.2,2.4-34,4.4,46.3-52,46.3-105.9,46.3-135.1,0-3.6,0-6.9.1-9.7.8-25.6,19.6-52,26.4-59.6,6.8-7.6,4.4-16.4-6.8-14-49.9,14.9-58.8,49.8-69.2,90.9-3.6,14.2-7.4,29.2-13.2,44.3-19.6,51.5-53.7,58.5-75.3,63-3.1.6-5.9,1.2-8.3,1.9-20,5.2-70.8,12.4-85.2,14-12.8,1.4-16.1,7.3-19.2,12.8-.4.7-.8,1.4-1.2,2-2.9,4.8-9.5,12.9-12.4,16.4v-110c0-32,18.4-64,37.2-93.6,18.8-29.6,40-78.8,49.2-100.8,11.5,14.1,13.1,45.3,12.4,59.2,5.5-6.3,26-24.9,64.4-49.2,48-30.4,58.4-68.8,58.4-90.4,0-16-3.3-25.8-7.3-37.7-1.4-4.2-2.9-8.7-4.3-13.8C557.59,11,548.79,0,543.19,0s-7.6,6-7.6,12.8c3.2,28-22.4,68-29.2,77.2-6.8,9.2-11.6,4.8-15.2,0-53.4-48.8-134.9-59.5-167.2-59.5Z"/><path class="cls-1" d="m128.99,246c10.5,12.1,33.9,37.6,43.1,42.8,0-8.7-.1-17-.9-19.6,8.8,6.5,52,45.4,60.4,90.9,1.7,9.3-2.1,7.9-9.8,5.2-1.6-.5-3.3-1.2-5.2-1.7-1.5-.5-3.7-1-6.6-1.6-19.3-4.4-66.2-15.1-78.6-54-5.3-22.1-3.8-50.5-2.4-62Z"/><path class="cls-1" d="m518.99,246c-10.5,12.1-33.9,37.6-43.1,42.8,0-8.7.1-17,.9-19.6-8.8,6.5-52,45.4-60.4,90.9-1.7,9.3,2.1,7.9,9.8,5.2,1.6-.5,3.3-1.2,5.2-1.7,1.5-.5,3.7-1,6.6-1.6,19.3-4.4,66.2-15.1,78.6-54,5.3-22.1,3.8-50.5,2.4-62Z"/></svg>