<?xml version="1.0" encoding="UTF-8"?>
<svg id="Layer_2" data-name="Layer 2" xmlns="http://www.w3.org/2000/svg" viewBox="0 0 16112.41 11136.86">
  <defs>
    <style>
      .cls-1 {
        fill: #32cd32;
      }
    </style>
  </defs>
  <path class="cls-1" d="m11313.73,3354.77c173.92,301.24,185.41,753.62-48.2,888.5-233.61,134.88-690.48-39.38-864.4-340.62-173.92-301.24-252.89-795.39-19.28-930.27,233.61-134.88,757.96,81.15,931.88,382.39Z"/>
  <path class="cls-1" d="m5667.83,3935.86c-247.62,244.28-688.88,487.67-878.32,295.63-189.45-192.04-95.52-783.99,152.1-1028.28,247.62-244.28,624.61-401.98,814.05-209.94,189.45,192.04,159.79,698.3-87.83,942.59Z"/>
  <path class="cls-1" d="m12248.82,2671.93s-93.19-77.12,22.49-154.24c0,0,581.62-173.52,440.23-1291.77,0,0-58-893.14-802.06-1191.89-86.35-34.67-183.17-35.13-270.07-1.89-176.82,67.63-465.26,244.15-585.97,692.49,0,0-55.7,355.61,38.56,578.41,0,0,81.4,141.39-68.55,98.54,0,0-119.97-51.41-248.5-51.41,0,0-154.24-21.42-265.64,55.7,0,0-1036.85,642.67-1482.43,625.54,0,0-402.74,154.24-1448.16,94.26,0,0-719.8,8.57-1996.57-719.79,0,0-152.1-77.12-434.88,0,0,0-199.23,96.4-134.96-154.24,0,0,115.68-552.7-64.27-809.77,0,0-94.22-321.46-498.84-429.09-70.16-18.66-144.78-17.1-213.49,6.35-134.79,45.99-366.35,168.69-573.01,493.44,0,0-334.19,604.11-269.92,1015.43,0,0-77.12,636.25,385.6,957.58,0,0,237.79,64.27,57.84,231.36,0,0-520.57,828.34-559.12,1866.61,0,0-89.98,723.37,96.4,1166.81,0,0,102.83,337.58,610.54,486.92,0,0,482,59.36,848.33-69.18,366.32-128.53,565.55-237.79,565.55-237.79,0,0,1375.32-732.65,2634.96-668.38,0,0,1028.28-29.7,1902.32,332.19,0,0,1195.37,618.96,1632.39,618.96,0,0,526.99,89.98,822.62-77.12,0,0,398.46-179.95,424.16-565.55,0,0,244.22-1690.23-565.55-2898.46Zm-6034.71,1844.47c-518.97,663.37-1442.29,1150.13-1985.86,655.53-473.99-431.29-296.7-1464.67,250.64-2127.25,574.43-695.36,1522.72-1135.86,1996.41-641.53,481.12,502.09,246.46,1464.36-261.19,2113.25Zm5541.39,762.9c-500.32,306.79-1443.01-146.25-1927.52-832.7-473.38-670.68-645.64-1756.87-103.07-2121.74,579.36-389.62,1639.79,177.94,2078.98,932.31,435.53,748.07,501.74,1684.8-48.39,2022.13Z"/>
  <path class="cls-1" d="m6215.05,832.49c340.27-140.64,1924.56-712.07,3712.4,1.63,27.89,11.13,30.34,49.97,4.06,64.49-334.14,184.68-1937.66,962.74-3719.95-1.62-26.42-14.29-24.26-53.02,3.5-64.5Z"/>
  <path class="cls-1" d="m3831.01,7101.71c-66.48-57.84-6.13-166.48,78.54-142.08,110.62,31.87,308.52,62.08,610.04,16.08,0,0,651.11-68.54,1499.3-505.43.18-.09.15-.09.34-.17,11.73-5.09,1522.42-658.28,3084.27-308.56.33.07.39.1.72.13,11.92,1.25,490.56,53.01,1132.26,367.25,0,0,580.12,283.39,914.47,343.77.7.13,1.23.28,1.88.56,24.03,10.43,549.4,234.02,1123.25,96.23,37.47-9,67.42,31,47.04,63.71-145.82,234.15-589.44,870.97-1375.35,1376.5-19.14,12.31-36.77,26.94-53.2,42.69-33.94,32.54-114.28,80.74-213.89-54.23,0,0-518.21-565.32-1190.68-282.95-.27.11-.31.12-.57.26-18.52,9.34-1579.35,796.34-2067.22,922.17-7.48,1.93-14.57,4.18-21.66,7.24-46.93,20.31-273.37,106.3-547.79,9.07-21.97-7.79-44.02-14.59-66.91-18.97-255.99-48.94-1969.4-426.74-2950.96-1929.49-.5-.77-1.05-1.43-1.76-2.01-.52-.42-1.23-1.02-2.12-1.79Z"/>
  <path class="cls-1" d="m15912.06,2965.42c-301.17,243.63-644.74,584.17-785.51,529.47-263.39-102.35-191.15-956.49-54.25-1193.57,235.55-407.9,487.38-397.42,787.5-239.67,271.65,142.79,374.6,643,52.26,903.77Z"/>
  <path class="cls-1" d="m14348.22,4169.36s299.91-274.21,574.12,0c0,0,338.48,454.16,55.7,1101.11,0,0-321.34,865.47-539.85,1126.82,0,0-655.53,1006.86-818.34,1580.98,0,0-164.95,338.48,111.4,134.96,0,0,245.95-216.37,599.62-287.06,0,0,372.96,0,347.25,417.74,0,0-57.84,372.75-796.92,739.08,0,0-886.89,327.76-1336.76,661.95,0,0-597.69,314.91-771.21,482.01,0,0-4417.31,2675.67-8770.36-683.38,0,0-426.31-389.89-1139.68-736.93,0,0-1201.8-539.85-1336.76-1047.56,0,0-141.39-437.02,694.09-366.32,0,0,482.01,83.55,874.04,449.87,0,0,224.94,193.95,167.1-150.45,0,0-83.55-699.25-661.95-1341.24,0,0-821.42-834.79-1082.31-1348.93,0,0-775.02-1332.02-427.98-1970.64,0,0,501.29-497.71,1323.91,569.37,0,0,809.77,1163.36,899.74,1873.57,0,0,282.78,1160.09,462.73,1442.86,0,0,411.31,642.67,668.38,1478.15,0,0,64.27,822.62,938.3,1143.96,0,0,1516.71,912.6,2994.86,437.02,0,0,398.46-12.85,1452.44-604.11,0,0,800.55-514.14,1120.07-462.73,0,0,358.08,12.85,396.64,475.58,0,0,44.99,186.38-44.99,372.75,0,0-96.4,202.44,141.39,77.12,0,0,1093.7-257.07,1886.83-1079.69,0,0,716-710.34,985.93-1679.08,0,0,419.88-2331.21,1032.56-2806.79Z"/>
</svg>