<svg id="Layer_1" data-name="Layer 1" xmlns="http://www.w3.org/2000/svg" viewBox="0 0 16257 16257"><defs><style>.cls-1{fill:#7fe5fb;}</style></defs><title>Zeropoint</title><path class="cls-1" d="M7463.65,90.72,7355.79,198.58V735.14l215.73,215.73V3531.33l-268.28,268.28v860.15h-323.6L6172,4015.34V9555.17c52.55,215.73,246.15,699.74,591.87,915.47V7243l431.46-431.46v3979.94l1020.57,2635.78,1020.57-2635.78V6811.53L9668,7243v3227.65c215.73-143.82,644.42-528.26,644.42-915.47V4015.34L9560.1,4659.76H9344.37V3799.61l-320.83-268.28V950.87l215.73-215.73V195.81L9131.41,88H7463.65Z"/><polygon class="cls-1" points="7140.06 12459.23 7571.52 13319.39 5743.34 12835.38 7140.06 12459.23"/><polygon class="cls-1" points="8860.36 13266.84 9239.27 12459.23 10528.12 12835.38 8860.36 13266.84"/><path class="cls-1" d="M14671.24,12351.37l-1991.35-591.88-1775.62-215.73L9668,11328l-268.28,591.88,1399.48,52.55c287.64,88.5,871.21,268.28,915.47,268.28s663.78,500.6,968,752.29l-810.37,757.82-1936,215.72-1452,268.28H7892.34l-1559.89-160.41-1667.76-484L3644.12,12946l860.16-807.61L6979.64,11978l-215.73-484-3119.79,215.73-1936,752.29-1452,1396.71L1816,15258.19l1828.17,536.56,1936,376.14H10636l4140.35-752.29,1399.48-1559.89Zm-163.18,2635.77-4032.49,752.29H5903.76l-3819.53-860.15L955.8,13858.71l1020.57-1020.57L3752,12193.72l-860.15,807.6,1612.44,1020.57L6172,14453.35l1667.75,268.28h699.74L9939,14345.49l2096.45-107.87,1399.48-1236.3-968-807.6,1936,536.56,1075.89,1075.88Z"/></svg>