<svg id="Layer_1" data-name="Layer 1" xmlns="http://www.w3.org/2000/svg" viewBox="0 0 16257 16257"><defs><style>.cls-1{fill:#7fe5fb;}</style></defs><title>Fragment</title><polygon class="cls-1" points="4569.81 2098.42 5260.06 400.54 3987.98 1833.95 1438.52 3373.14 1174.05 5443.92 2022.99 3796.29 4569.81 2098.42"/><path class="cls-1" d="M378,8892.57,219.33,10273.08H909.59C748.26,9831.42,420.32,8934.88,378,8892.57Z"/><polygon class="cls-1" points="1705.63 12714.11 801.16 14200.41 5418.74 15898.29 1917.2 13721.73 1705.63 12714.11"/><polygon class="cls-1" points="12691.58 14943.56 14072.09 15633.82 13752.09 13880.41 12691.58 14943.56"/><path class="cls-1" d="M16140.22,8043.63,14548.13,5761.28l690.26,2282.35c-87.27,513.06-264.46,1560.35-264.46,1645Z"/><polygon class="cls-1" points="13061.83 773.44 12265.79 1196.58 13167.62 1833.95 13061.83 773.44"/><path class="cls-1" d="M11628.42,3373.14,8444.24,2204.2l-3025.5,743.15L2819,5018.13,1917.2,8255.2,2554.57,11122l1856.56,2282.35,3184.18,1113.4,3184.17-796L13273.4,11651l798.69-3184.18L13487.62,5600Zm1912.1,5299.92-47.61,190.41L12913.73,11167c2.65,34.38-7.93,66.12-23.8,95.21l-26.45,108.43-2287.63,1890.94-2919.72,727.28-2919.71-1018.2L3033.26,10884,2448.78,8265.78c23.81-89.92,50.25-179.84,74-269.76L3273.92,5306.4Q4468,4362.26,5659.41,3415.46l2774.25-679.68,2441,891.25c42.32,15.87,84.63,31.74,129.59,47.61l349.1,126.94L13056.54,5838l13.23,60.82,39.67,198.35,484,2361.69Z"/><polygon class="cls-1" points="8637.3 3172.15 8415.15 3090.17 6648.52 3523.89 9049.87 3809.51 8637.3 3172.15"/><polygon class="cls-1" points="10150.05 3724.89 9166.24 3365.21 9457.15 3817.45 10150.05 3724.89"/><path class="cls-1" d="M11594,5026.06c235.38,134.88,457.53,261.82,650.59,370.26L11152.38,4089.85l-314.71-116.37-867.45,116.37C10462.12,4378.12,11062.46,4721.93,11594,5026.06Z"/><polygon class="cls-1" points="12699.51 6343.11 12609.59 9297.2 13183.49 8694.22 13244.31 8450.91 12802.66 6290.21 12699.51 6343.11"/><polygon class="cls-1" points="12511.74 9892.25 12514.39 9902.83 12548.77 10008.61 12720.67 10542.84 13016.87 9363.32 12548.77 9852.58 12511.74 9892.25"/><polygon class="cls-1" points="11004.28 12465.51 12561.99 11177.56 12564.63 11166.98 12334.55 10450.27 11004.28 12465.51"/><polygon class="cls-1" points="7394.31 13536.6 7672 13634.45 9877.65 13084.36 7058.44 12999.73 7394.31 13536.6"/><polygon class="cls-1" points="3752.6 11230.45 4937.41 12679.73 6883.89 13359.41 6624.71 12944.19 3752.6 11230.45"/><polygon class="cls-1" points="2826.97 8170.57 2797.88 8273.71 3181.36 9992.75 3490.78 7504.11 2826.97 8170.57"/><path class="cls-1" d="M3474.91,7030.72q15.87-39.68,47.61-95.21c37-74.05,92.56-174.55,158.68-296.2,134.88-240.67,317.36-566,523.64-923,243.31-423.15,515.71-893.9,767-1322.33l-1399,1110.76-558,1999.37,454.88-454.89C3469.62,7041.3,3472.27,7036,3474.91,7030.72Z"/><polygon class="cls-1" points="8806.56 4121.59 6008.51 3788.36 6725.21 5467.72 8806.56 4121.59"/><path class="cls-1" d="M4072.61,6636.66,6418.43,5613.18l-745.8-1748.13c-325.29,555.38-788.11,1346.14-1174.23,2020.53C4339.72,6165.91,4191.62,6422.45,4072.61,6636.66Z"/><path class="cls-1" d="M3871.61,7207.91l-417.85,3334.93c452.23-238,1385.8-706.13,2525.65-1272.09Z"/><path class="cls-1" d="M6132.8,9574.89c-1079,536.87-1965,981.17-2435.73,1224.48L6532.15,12492Z"/><polygon class="cls-1" points="7283.23 12666.5 10004.6 12748.49 9377.81 11270.12 7283.23 12666.5"/><path class="cls-1" d="M9623.77,7850.57C8610.86,8350.41,7574.15,8860.83,6640.58,9323.65l2671.11,1425.47Z"/><path class="cls-1" d="M6521.57,9001c952.08-473.4,2012.59-994.4,3044-1502.17L6836.29,5954.34Z"/><polygon class="cls-1" points="6183.05 8995.71 6495.12 5949.05 4125.5 6983.12 6183.05 8995.71"/><polygon class="cls-1" points="9306.41 4203.57 7031.99 5674.01 9610.54 7133.86 9306.41 4203.57"/><path class="cls-1" d="M9658.15,4304.07l309.42,2999.05c893.9-439,1753.42-862.16,2488.63-1219.19l169.26-84.63c-74-39.67-174.55-95.21-293.56-161.33-240.66-134.87-560.67-317.36-909.76-515.71C10840.31,4986.39,10176.5,4602.92,9658.15,4304.07Z"/><polygon class="cls-1" points="9652.86 10762.34 12096.53 9868.45 9972.86 7787.09 9652.86 10762.34"/><path class="cls-1" d="M12353.06,6509.72c-645.3,317.36-1375.23,674.39-2131.6,1044.64l2039,1996.73Z"/><polygon class="cls-1" points="9679.3 11114.09 10388.07 12780.23 12064.79 10241.35 9679.3 11114.09"/><polygon class="cls-1" points="9123.92 11032.1 6481.9 9622.49 6878.6 12528.98 9123.92 11032.1"/></svg>