<svg id="Layer_1" data-name="Layer 1" xmlns="http://www.w3.org/2000/svg" viewBox="0 0 8192 8192"><defs><style>.cls-1{fill:#32cd32;}</style></defs><title>Nanoswarm New website</title><polygon class="cls-1" points="1517.89 281.08 1602.64 606.62 1259.61 538.01 1517.89 281.08"/><polygon class="cls-1" points="6145.39 281.08 6076.79 742.49 6488.42 571.65 6145.39 281.08"/><polygon class="cls-1" points="7756.95 999.42 7825.56 520.52 8151.09 742.49 7756.95 999.42"/><polygon class="cls-1" points="7670.85 4147.2 8031.37 4335.53 8013.88 3925.24 7670.85 4147.2"/><polygon class="cls-1" points="6933.68 5088.84 7311.69 5583.88 7551.13 5002.75 6933.68 5088.84"/><polygon class="cls-1" points="3506.1 1085.51 3163.07 606.62 3745.55 538.01 3506.1 1085.51"/><polygon class="cls-1" points="865.47 2368.84 574.9 1615.52 26.06 2265.26 865.47 2368.84"/><polygon class="cls-1" points="1055.14 4677.21 608.53 5191.08 1123.75 5361.92 1055.14 4677.21"/><path class="cls-1" d="M2169,1821.34c103.58,0,188.33-84.75,188.33-188.33S2272.55,1444.7,2169,1444.7s-188.33,84.75-188.33,188.33c-.17,103.83,83.86,188.14,187.69,188.31Z"/><path class="cls-1" d="M4963,999.42c0,75.33-61.88,137.21-137.21,137.21s-137.21-61.88-137.21-137.21,61.88-137.21,137.21-137.21S4963,924.09,4963,999.42Z"/><path class="cls-1" d="M7517.5,2744.15c65.92,0,119.72-53.81,119.72-119.72s-53.8-119.72-119.72-119.72-119.72,53.8-119.72,119.72C7396.43,2690.35,7450.25,2744.15,7517.5,2744.15Z"/><path class="cls-1" d="M7327.83,1085.51,626,2898.85,5527.94,7826.33l71.3-267.69M4088.58,6039.9,2454.15,4396.08c212.55-314.8,573.06-523.31,982-523.31,653.77,0,1182.43,528.67,1182.43,1181.09C4619.93,5465.5,4408.73,5827.36,4088.58,6039.9Zm1315.61,1321L4310.53,6260.53c375.32-270.39,618.8-710.27,618.8-1206.65,0-821.92-667.22-1487.8-1491.83-1487.8-493.69,0-932.23,239.45-1202.62,609.38L1087.43,3022.6,6990.18,1425.85Z"/><path class="cls-1" d="M4790.77,6217.47l411.64,445.26L6470.93,1941.05,1774.82,3206.86,2255,3703.24c131.84-131.83,513.87-400.87,994.12-427.78L5819.8,2574.61,5202.41,4884.36C5219.89,5191.08,5162.05,5889.24,4790.77,6217.47Z"/><path class="cls-1" d="M3386.38,4198.32c-219.27-13.46-399.53,109-462.75,170.82L4141,5601.35c137.21-164.12,160.08-410.29,154.7-513.87Z"/><path class="cls-1" d="M3437.5,6235c61.88,0,121.06-4,180.25-13.46l255.59,256.94A1498.44,1498.44,0,0,1,3437.5,6543c-823.27,0-1491.83-665.88-1491.83-1487.8a1516.38,1516.38,0,0,1,67.26-445.2l255.58,256.93c-9.41,61.88-14.79,123.76-14.79,188.33C2255.06,5706.29,2783.73,6235,3437.5,6235Z"/></svg>