<svg id="Layer_1" data-name="Layer 1" xmlns="http://www.w3.org/2000/svg" viewBox="0 0 16257 16257"><defs><style>.cls-1{fill:#f38e5e;}</style></defs><title>Hot Hands New</title><path class="cls-1" d="M7713.11,88C7149.59,2164.7,6348.64,6301,7987.73,6984.71,9252.08,7513.91,9789.87,6066.47,9020.38,2651c1642,1916.56,1642,3218.11,1335.87,5203.32,234.57,134.45,454.83,288.92,660.79,460.55,303.21-180.22,454.82-529.2,454.82-1041.24,326.1,595,406.2,1187.13,240.29,1770.67,560.66,743.74,895.35,1670.56,895.35,2674.61,0,2454.34-1990.94,4445.27-4451,4445.27s-4451-1990.93-4451-4445.27c0-706.56,165.91-1375.92,460.55-1970.91q-433.38-1004.05,231.7-2763.28c0,1055.54,200.24,1310.12,434.8,1458.87,65.8,42.91,145.89,65.79,237.43,71.52,134.44-128.73,274.61-248.87,423.36-360.43C5261.63,5093.89,6205.61,2333.47,7713.11,88ZM7038,13884.32c185.93-718,557.8-1433.12,1278.66-1739.2-174.49,575-148.75,1416,334.68,1959.47,1109.89-228.85,1945.17-1212.87,1945.17-2388.55,0-1347.32-1092.73-2440-2440-2440s-2440,1092.72-2440,2440C5716.46,12660,6251.38,13478.13,7038,13884.32Z"/></svg>