<svg id="Layer_5" data-name="Layer 5" xmlns="http://www.w3.org/2000/svg" viewBox="0 0 99.26 125.94"><defs><style>.cls-1{fill:#f9c06f;}</style></defs><title>Paint Shells test</title><circle class="cls-1" cx="50.45" cy="28.16" r="8.63"/><rect class="cls-1" x="46.95" y="33.87" width="7.01" height="11.07"/><circle class="cls-1" cx="73.24" cy="52.37" r="8.63"/><rect class="cls-1" x="225.98" y="201.84" width="7.01" height="11.07" transform="translate(271.99 -177.11) rotate(90)"/><circle class="cls-1" cx="27.91" cy="52.37" r="8.63"/><rect class="cls-1" x="197.91" y="201.83" width="7.01" height="11.07" transform="translate(-170.83 253.78) rotate(-90)"/><path class="cls-1" d="M236.45,248.36c-1.66-5.74.8-8.71,5-12.43,12.11-10.69,17.23-24.52,13.47-40.69-4.72-20.32-21.53-32.84-41.09-32.55-16.49.25-29.49,8.51-36.69,23.67s-5.75,29.87,4.64,43.29a34.73,34.73,0,0,0,7.95,7.83c4.3,2.84,3.22,6.61,3.11,10.44-12.41-2.56-29.74-22.68-27.84-47.15,1.8-23.11,18.59-42.09,40.84-45.14,29.56-4,49,11.81,55.92,34C270,215.94,255.75,240.34,236.45,248.36Z" transform="translate(-164.88 -155)"/><path class="cls-1" d="M215.33,268.13a5.11,5.11,0,0,1-5.1-5.1V244.38a5.12,5.12,0,0,1,5.1-5.1l.23,0V213.09H213v5.06c-2.55,5.56-6,7.58-6,7.58v6.47a19.33,19.33,0,0,1-5,5v33.06a14.76,14.76,0,0,1,5,7.39v3.33h8.63V268.11Z" transform="translate(-164.88 -155)"/><path class="cls-1" d="M215.84,268.13a5.11,5.11,0,0,0,5.1-5.1V244.38a5.12,5.12,0,0,0-5.1-5.1l-.24,0,0-26.21h2.6v5.06c2.54,5.56,6,7.58,6,7.58v6.47a19.33,19.33,0,0,0,5,5v33.06a14.68,14.68,0,0,0-5,7.39v3.33h-8.64V268.11Z" transform="translate(-164.88 -155)"/><rect class="cls-1" x="50.65" y="81.59" width="0.13" height="2.71"/><rect class="cls-1" x="50.44" y="78.12" width="0.51" height="3.56"/><rect class="cls-1" x="50.22" y="67.93" width="0.9" height="10.48"/><rect class="cls-1" x="50.45" y="60.11" width="0.67" height="8.54"/><rect class="cls-1" x="50.56" y="58.09" width="0.34" height="2.28"/><rect class="cls-1" x="50.61" y="113.24" width="0.25" height="4.53"/><rect class="cls-1" x="50.37" y="117.4" width="0.75" height="8.54"/></svg>