<svg id="Layer_1" data-name="Layer 1" xmlns="http://www.w3.org/2000/svg" viewBox="0 0 8080.36 7105.93"><defs><style>.cls-1{fill:#7fe5fb;}</style></defs><title>Recon Bolt strats2</title><path class="cls-1" d="M7800.74,4040.21c0,700.47-191.17,1356.71-525,1918.8h321c308.15-570.65,483.62-1224,483.62-1918.8C8080.36,1809,6271.41,0,4040.19,0S0,1809,0,4040.21C0,4735,175.48,5388.36,483.63,5959h321c-333.83-562.09-525-1218.33-525-1918.8,0-2077.14,1683.4-3760.55,3760.55-3760.55S7800.74,1963,7800.74,4040.21Zm-556.38,0c0,719-236.81,1383.82-637.7,1918.8H5863.39c507.87-482.22,823.15-1164.16,823.15-1918.8,0-1075.66-642-2001.54-1563.57-2415.25L4776.3,921.62C6191.54,1254,7244.36,2523.68,7244.36,4040.21Zm-6408.36,0c0,719,236.81,1383.82,637.7,1918.8H2217c-507.88-482.18-823.16-1164.12-823.16-1918.8,0-1078.52,644.83-2007.24,1570.7-2419.54L3312.6,918.78C1893.12,1248.29,836,2520.83,836,4040.21Zm3208.48,1672C4278.42,4200,4512.39,3371.14,5332.69,3312.65l-1288.23-2615-1298.22,2615c830.3,57,1064.3,885.88,1298.22,2399.56ZM670.54,6416.91A57.54,57.54,0,0,0,613.47,6484l95.59,573.5c4.27,27.11,28.53,48.51,57.06,48.51H7315.69c28.53,0,51.35-20,57.06-48.51l95.59-573.5c5.7-34.23-21.4-67.05-57.07-67.05Z" transform="translate(0 -0.04)"/></svg>