<svg id="Layer_1" data-name="Layer 1" xmlns="http://www.w3.org/2000/svg" viewBox="0 0 7985.06 7616.65"><defs><style>.cls-1{fill:#7fe5fb;}</style></defs><title>Shock Bolt x2 strats2</title><polygon class="cls-1" points="1820.89 5375.11 0 3308.22 1890.67 7056.23 2439.95 6273.55 3713.12 7616.6 2381.26 4744.9 1820.89 5375.11"/><polygon class="cls-1" points="6164.22 5375.11 5603.84 4744.9 4271.94 7616.65 5545.1 6273.6 6094.39 7056.28 7985.06 3308.22 6164.22 5375.11"/><path class="cls-1" d="M4114.51,230.66C3835.23,2040.41,3554.09,3032.59,2562,3102.47l1552.5,3128.9L5656,3102.47c-981-69.88-1262-1062.06-1541.45-2871.81Z" transform="translate(-122.01 -178.41)"/><path class="cls-1" d="M7316,1181.93l-550.34,526c-78,71.68-106.23,120.29-106.23,193.31,0,97.29,60.06,165.13,181.77,165.13H7864c99.87,0,160.1-62.65,160.1-153.58,0-93.44-60.06-153.58-160.1-153.58H7167.6v-7.7l399.35-384C7869,1082.09,7979.09,941.31,7979.09,716c0-317.47-263.66-537.63-655.32-537.63-349.4,0-581.12,190.73-643.85,395.5a258.78,258.78,0,0,0-14.06,83.23c0,96.12,61.48,157.43,165.13,157.43,83.14,0,128.07-36,171.48-112.67,66.59-148.48,169-222.76,317.46-222.76C7485,479.16,7602.8,588,7602.8,740.31c0,133-58.89,222.6-286.75,441.6Z" transform="translate(-122.01 -178.41)"/><path class="cls-1" d="M5234.81,1940.88c0,89.59,70.43,152.33,169,152.33,66.52,0,103.65-21.75,154.84-101.13l267.51-401.94h7.7l272.61,408.3c42.25,64.07,78.05,94.69,151.08,94.69,101.13,0,177.92-64.08,177.92-165.13,0-41-12.8-76.79-41-115.18l-318.71-440.34,313.69-418.59c36.05-46.09,49.93-83.23,49.93-129.32,0-94.69-70.35-158.68-175.32-158.68-69.1,0-108.85,30.69-158.78,108.74l-250.86,382.7h-7.7L5590.73,772c-49.94-79.39-89.59-106.24-165.13-106.24-102.39,0-179.18,70.35-179.18,163.77,0,43.5,12.8,80.63,39.65,116.52l320,436.33-321.3,430c-35.89,47.76-49.94,83.57-49.94,128.4Z" transform="translate(-122.01 -178.41)"/></svg>