<svg id="Layer_1" data-name="Layer 1" xmlns="http://www.w3.org/2000/svg" viewBox="0 0 16259 16259"><defs><style>.cls-1{fill:#62c55b;}</style></defs><title>Snake Bite NEW</title><path class="cls-1" d="M3564.86,5880.91c197.07,0,347.46-150.39,347.46-347.46S3761.93,5186,3564.86,5186s-347.45,150.39-347.45,347.45C3217.41,5727.93,3367.8,5880.91,3564.86,5880.91Z"/><path class="cls-1" d="M12723.17,5880.91c-197.06,0-347.45-150.39-347.45-347.46S12526.11,5186,12723.17,5186s347.46,150.39,347.46,347.45C13070.63,5727.93,12920.24,5880.91,12723.17,5880.91Z"/><path class="cls-1" d="M4303.85,7556Z"/><path class="cls-1" d="M13221,7675.23c75.19-121.87,134.83-256.7,134.83-407.09,0-391.54-316.34-723.43-723.43-723.43S11909,6861.05,11909,7268.14c0,90.75,15.55,165.95,44.08,241.14-210,15.56-453.77-75.19-513.41-573-106.31-889.38-484.88-1402.79-484.88-1402.79V9531.79l-388.94,544.52-754.55,1024.21L8136.24,13395.29l-860.86-1177.2L5735.16,10060.75l-388.94-529V5533.45s-378.57,513.41-484.88,1387.23c-59.64,497.85-300.78,588.6-513.41,573,31.12-75.2,44.08-165.95,44.08-241.15,0-391.53-316.34-723.43-723.43-723.43s-723.43,331.9-723.43,723.43c0,150.39,44.08,287.82,134.83,407.1C2115.4,8007.13,1436.05,8912.07,1436.05,9983c0,1358.71,1102,2460.71,2460.71,2460.71,90.75,0,197.06,0,287.82-15.55,134.83,2066.58,1856.55,3713.1,3967.22,3713.1s3832.38-1643.93,3967.21-3713.1c90.76,15.55,181.51,15.55,287.82,15.55,1358.71,0,2460.71-1102,2460.71-2460.71C14852,8912.07,14172.63,8007.13,13221,7675.23Z"/><path class="cls-1" d="M8151.8,5276.75,7594.31,4597.4,6583.06,3376.12V9441L8151.8,11582.81l798.62-1117.56L9705,9438.44V3376.12Z"/><path class="cls-1" d="M8514.81,2681.21c0-197.07-165.95-363-363-363s-363,165.95-363,363H6974.6L8151.8,4190.3,9329,2681.21Z"/><path class="cls-1" d="M8182.91,433.12c0-181.51-134.83-316.34-316.34-316.34s-316.34,134.83-316.34,316.34c0,90.75,44.08,165.94,106.31,225.58-59.64,90.76-106.31,197.07-106.31,300.78,0,300.79,241.14,529,529,529s529-241.15,529-529C8618.53,689.82,8439.61,477.2,8182.91,433.12Z"/><path class="cls-1" d="M7607.28,1670c59.63,0,106.31-46.67,106.31-106.31,0-57-46.68-106.31-106.31-106.31-57.05,0-106.32,46.68-106.32,106.31C7503.56,1623.28,7550.23,1670,7607.28,1670Z"/></svg>