<svg id="Layer_1" data-name="Layer 1" xmlns="http://www.w3.org/2000/svg" viewBox="0 0 8192 8192"><defs><style>.cls-1{fill:#7fe5fb;}</style></defs><title>Gatecrash-01</title><path class="cls-1" d="M2034.68,4131.34l992.41-550.93a1561.74,1561.74,0,0,0,588.63,353.53l183,970.87H3797l61,323h1.8l233.28,1231.08,213.55-1231.08h1.8l55.63-323h-1.8l166.9-956.51c412.75-122,753.72-412.76,943.95-791.41l1665.37,425.32L5632.8,2548.53c1.8-25.13,1.8-52,1.8-77.17,0-136.39-18-271-52-396.6l480.94-358.91-635.28-14.37a1580.67,1580.67,0,0,0-224.32-297.9l323-852.42L4631.43,998l-524-536.59L3868.76,946c-26.92,3.58-52.05,9-79,14.35L3018.11,102.52l240.47,1073.15c-231.49,148.94-419.92,358.92-543.76,606.57l-1308.24-66.39,1064.18,594-258.42,301.49,351.72,43.07c9,68.19,21.54,136.39,37.69,201ZM3281.91,2469.57a752.93,752.93,0,0,1,10.77-129.21l351.73-32.31-217.15-301.49c147.16-210,389.42-346.35,665.79-346.35,446.85,0,811.15,362.51,811.15,811.15,0,443.26-355.33,804-796.8,811.15V2790.79l-480.93,341C3418.29,2984.61,3281.91,2744.14,3281.91,2469.57Z"/><path class="cls-1" d="M2788.4,4982c89.73-12.56,183-21.53,276.36-32.3L3124,5270.9q-250.33,24.23-484.53,59.22c-269.19,84.35-475.57,118.44-665.79,150.75-75.37,12.56-147.16,25.12-220.73,39.48-145.36,41.27-283.54,86.15-409.17,134.59-344.55,131-601.18,280-766.28,427.11C412.38,6231,365.72,6351.24,365.72,6441c0,87.93,46.66,210,211.76,358.91,80.76,73.56,184.84,145.36,308.67,215.35,96.9,19.74,183,35.89,262,50.25,355.33,66.4,594,111.26,1407,468.38l9,3.59c466.59,75.37,983.42,118.45,1530.77,118.45,549.14,0,1066-43.08,1534.36-118.45,678.35-330.2,1042.65-382.24,1304.66-419.93,105.88-14.36,195.61-28.72,283.54-55.63,165.1-86.16,296.11-174.08,394.81-263.8,165.1-149,211.76-269.19,211.76-358.92,0-87.93-46.66-210-211.76-358.92s-421.72-296.1-766.28-427.1c-21.54-7.18-41.28-16.15-62.81-23.33-147.16-46.66-328.41-82.55-516.84-118.45-73.56-14.35-148.95-28.72-224.32-44.84-145.36-30.51-288.93-61-421.72-91.52-188.44-41.28-353.53-77.17-466.59-98.71L5046,5265.54l55.63-321.23q212.66,21.54,414.55,48.45c95.11,5.38,192,3.59,290.71,1.8,409.16-5.39,854.22-12.57,1319,418.13,637.07,272.78,1024.7,629.9,1024.7,1022.91,0,850.63-1814.32,1539.75-4052.16,1539.75S40.9,7291.6,40.9,6441c0-405.6,414.55-775.26,1091.11-1051.63l3.58-1.79C1539.37,5064.52,2142.34,5023.25,2788.4,4982Z"/></svg>